<svg width="174" height="48" viewBox="0 0 174 48" fill="none" xmlns="http://www.w3.org/2000/svg">
<path d="M77.9269 5.12748V19H75.1444V9.9769L71.4279 19H69.3212L65.5847 9.9769V19H62.8023V5.12748H65.9623L70.3745 15.4424L74.7867 5.12748H77.9269ZM91.7083 5.12748L87.0178 14.1705V19H84.2354V14.1705L79.5251 5.12748H82.6653L85.6465 11.4675L88.6078 5.12748H91.7083ZM97.373 12.0439C97.373 10.6791 97.6778 9.46016 98.2872 8.38692C98.91 7.30044 99.7513 6.45908 100.811 5.86284C101.885 5.25335 103.084 4.94861 104.409 4.94861C105.959 4.94861 107.317 5.3461 108.483 6.14109C109.649 6.93607 110.464 8.0358 110.928 9.44028H107.728C107.41 8.77779 106.959 8.28093 106.376 7.94968C105.806 7.61844 105.144 7.45281 104.389 7.45281C103.581 7.45281 102.858 7.64494 102.222 8.02918C101.6 8.40017 101.109 8.93016 100.752 9.61915C100.407 10.3081 100.235 11.1164 100.235 12.0439C100.235 12.9581 100.407 13.7663 100.752 14.4686C101.109 15.1576 101.6 15.6942 102.222 16.0784C102.858 16.4494 103.581 16.6349 104.389 16.6349C105.144 16.6349 105.806 16.4693 106.376 16.138C106.959 15.7936 107.41 15.2901 107.728 14.6276H110.928C110.464 16.0453 109.649 17.1517 108.483 17.9466C107.33 18.7284 105.972 19.1192 104.409 19.1192C103.084 19.1192 101.885 18.8211 100.811 18.2249C99.7513 17.6154 98.91 16.774 98.2872 15.7008C97.6778 14.6276 97.373 13.4086 97.373 12.0439ZM121.81 16.3567H116.285L115.371 19H112.45L117.438 5.1076H120.678L125.666 19H122.725L121.81 16.3567ZM121.055 14.1307L119.048 8.3273L117.041 14.1307H121.055ZM134.686 19L131.625 13.5941H130.313V19H127.531V5.12748H132.738C133.811 5.12748 134.725 5.3196 135.481 5.70384C136.236 6.07484 136.799 6.58495 137.17 7.23419C137.554 7.87018 137.746 8.58567 137.746 9.38066C137.746 10.2949 137.481 11.123 136.951 11.865C136.421 12.5937 135.633 13.0972 134.586 13.3755L137.905 19H134.686ZM130.313 11.5072H132.639C133.394 11.5072 133.957 11.3284 134.328 10.9706C134.699 10.5996 134.884 10.0895 134.884 9.44028C134.884 8.80429 134.699 8.31405 134.328 7.96956C133.957 7.61181 133.394 7.43294 132.639 7.43294H130.313V11.5072ZM143.045 7.37332V10.8514H147.716V13.0575H143.045V16.7343H148.312V19H140.263V5.1076H148.312V7.37332H143.045ZM153.623 7.37332V10.8514H158.294V13.0575H153.623V16.7343H158.89V19H150.841V5.1076H158.89V7.37332H153.623ZM168.574 19L165.513 13.5941H164.201V19H161.419V5.12748H166.626C167.699 5.12748 168.613 5.3196 169.369 5.70384C170.124 6.07484 170.687 6.58495 171.058 7.23419C171.442 7.87018 171.634 8.58567 171.634 9.38066C171.634 10.2949 171.369 11.123 170.839 11.865C170.309 12.5937 169.521 13.0972 168.474 13.3755L171.793 19H168.574ZM164.201 11.5072H166.526C167.282 11.5072 167.845 11.3284 168.216 10.9706C168.587 10.5996 168.772 10.0895 168.772 9.44028C168.772 8.80429 168.587 8.31405 168.216 7.96956C167.845 7.61181 167.282 7.43294 166.526 7.43294H164.201V11.5072ZM72.4614 33.3012C72.1434 32.7182 71.7061 32.2743 71.1496 31.9696C70.5931 31.6648 69.9439 31.5124 69.2019 31.5124C68.3804 31.5124 67.6517 31.6979 67.0157 32.0689C66.3797 32.4399 65.8828 32.9699 65.5251 33.6589C65.1673 34.3479 64.9885 35.1429 64.9885 36.0439C64.9885 36.9713 65.1673 37.7796 65.5251 38.4686C65.8961 39.1576 66.4062 39.6876 67.0554 40.0585C67.7047 40.4295 68.4599 40.615 69.3212 40.615C70.3811 40.615 71.249 40.3368 71.9247 39.7803C72.6005 39.2106 73.0443 38.4222 73.2563 37.4152H68.4864V35.2886H75.999V37.7133C75.8135 38.6806 75.4161 39.5749 74.8066 40.3964C74.1971 41.2179 73.4087 41.8804 72.4415 42.3839C71.4875 42.8741 70.4143 43.1192 69.2218 43.1192C67.8836 43.1192 66.6712 42.8211 65.5847 42.2249C64.5115 41.6154 63.6635 40.774 63.0408 39.7008C62.4313 38.6276 62.1265 37.4086 62.1265 36.0439C62.1265 34.6791 62.4313 33.4602 63.0408 32.3869C63.6635 31.3004 64.5115 30.4591 65.5847 29.8628C66.6712 29.2534 67.8769 28.9486 69.2019 28.9486C70.7654 28.9486 72.1235 29.3328 73.2762 30.1013C74.4289 30.8566 75.2239 31.9232 75.6612 33.3012H72.4614ZM80.8003 29.1275V37.7133C80.8003 38.6541 81.0455 39.3762 81.5357 39.8797C82.0259 40.3699 82.7149 40.615 83.6027 40.615C84.5036 40.615 85.1993 40.3699 85.6895 39.8797C86.1797 39.3762 86.4249 38.6541 86.4249 37.7133V29.1275H89.2272V37.6935C89.2272 38.8727 88.9688 39.8731 88.4521 40.6945C87.9486 41.5028 87.2662 42.1123 86.405 42.523C85.557 42.9338 84.6096 43.1391 83.5629 43.1391C82.5294 43.1391 81.5887 42.9338 80.7407 42.523C79.906 42.1123 79.2435 41.5028 78.7532 40.6945C78.263 39.8731 78.0179 38.8727 78.0179 37.6935V29.1275H80.8003ZM94.698 29.1275V43H91.9156V29.1275H94.698ZM102.296 29.1275C103.754 29.1275 105.033 29.4123 106.132 29.9821C107.245 30.5518 108.1 31.3667 108.696 32.4267C109.306 33.4734 109.61 34.6924 109.61 36.0836C109.61 37.4748 109.306 38.6938 108.696 39.7406C108.1 40.774 107.245 41.5756 106.132 42.1454C105.033 42.7151 103.754 43 102.296 43H97.4471V29.1275H102.296ZM102.197 40.6349C103.655 40.6349 104.781 40.2374 105.576 39.4424C106.371 38.6474 106.768 37.5278 106.768 36.0836C106.768 34.6394 106.371 33.5132 105.576 32.7049C104.781 31.8834 103.655 31.4727 102.197 31.4727H100.23V40.6349H102.197ZM120.2 40.3567H114.674L113.76 43H110.839L115.827 29.1076H119.067L124.055 43H121.114L120.2 40.3567ZM119.444 38.1307L117.437 32.3273L115.43 38.1307H119.444ZM137.785 43H135.003L128.702 33.48V43H125.92V29.1076H128.702L135.003 38.6474V29.1076H137.785V43ZM139.859 36.0439C139.859 34.6791 140.164 33.4602 140.773 32.3869C141.396 31.3004 142.237 30.4591 143.297 29.8628C144.371 29.2534 145.57 28.9486 146.895 28.9486C148.445 28.9486 149.803 29.3461 150.969 30.1411C152.135 30.9361 152.95 32.0358 153.414 33.4403H150.214C149.896 32.7778 149.445 32.2809 148.862 31.9497C148.292 31.6184 147.63 31.4528 146.875 31.4528C146.067 31.4528 145.344 31.6449 144.708 32.0292C144.086 32.4002 143.595 32.9302 143.238 33.6192C142.893 34.3081 142.721 35.1164 142.721 36.0439C142.721 36.9581 142.893 37.7663 143.238 38.4686C143.595 39.1576 144.086 39.6942 144.708 40.0784C145.344 40.4494 146.067 40.6349 146.875 40.6349C147.63 40.6349 148.292 40.4693 148.862 40.138C149.445 39.7936 149.896 39.2901 150.214 38.6276H153.414C152.95 40.0453 152.135 41.1517 150.969 41.9466C149.816 42.7284 148.458 43.1192 146.895 43.1192C145.57 43.1192 144.371 42.8211 143.297 42.2249C142.237 41.6154 141.396 40.774 140.773 39.7008C140.164 38.6276 139.859 37.4086 139.859 36.0439ZM158.573 31.3733V34.8514H163.243V37.0575H158.573V40.7343H163.839V43H155.79V29.1076H163.839V31.3733H158.573Z" fill="#1476B7"/>
<path d="M39.7458 26.5525V36.7379C39.7458 37.1851 39.5636 37.5991 39.2655 37.9138C39.0336 38.1291 33.7009 43.3626 24.8405 43.3626C15.9801 43.3626 10.6473 38.1291 10.4155 37.9138C10.1173 37.5991 9.93517 37.1851 9.93517 36.7379V26.5525L22.6212 32.8956C23.3093 33.2433 24.0695 33.4245 24.8405 33.4245C25.6114 33.4245 26.3716 33.2433 27.0597 32.8956L39.7458 26.5525ZM48.0265 30.5737V18.7155L48.7668 18.3445C49.043 18.2078 49.2755 17.9967 49.438 17.7349C49.6006 17.4732 49.6867 17.1712 49.6867 16.863C49.6867 16.5549 49.6006 16.2529 49.438 15.9911C49.2755 15.7294 49.043 15.5182 48.7668 15.3816L25.5808 3.78837C25.3507 3.67323 25.0969 3.61328 24.8397 3.61328C24.5824 3.61328 24.3286 3.67323 24.0985 3.78837L0.912484 15.3816C0.637971 15.52 0.407293 15.7319 0.246173 15.9937C0.0850543 16.2555 -0.000171483 16.5569 2.59051e-07 16.8644C0.000172001 17.1718 0.0857346 17.4731 0.247146 17.7348C0.408558 17.9964 0.639473 18.2081 0.91414 18.3461L24.1002 29.9393C24.3301 30.0541 24.5835 30.1138 24.8405 30.1138C25.0974 30.1138 25.3509 30.0541 25.5808 29.9393L44.7142 20.3716V30.5737C43.7288 31.1483 43.0581 32.2033 43.0581 33.4256C43.0581 35.2523 44.5436 36.7379 46.3704 36.7379C48.1971 36.7379 49.6827 35.2523 49.6827 33.4256C49.6827 32.205 49.0119 31.1483 48.0265 30.5737Z" fill="#1476B7"/>
</svg>
