<svg width="10" height="10" viewBox="0 0 10 10" fill="none" xmlns="http://www.w3.org/2000/svg">
<path d="M9.20004 5.79996H5.79996V9.20004C5.79996 9.64168 5.44164 10 5 10C4.55836 10 4.20004 9.64168 4.20004 9.20004V5.79996H0.799958C0.358316 5.79996 0 5.44164 0 5C0 4.55836 0.358316 4.20004 0.799958 4.20004H4.20004V0.799958C4.20004 0.358316 4.55836 0 5 0C5.44164 0 5.79996 0.358316 5.79996 0.799958V4.20004H9.20004C9.64168 4.20004 10 4.55836 10 5C10 5.44164 9.64168 5.79996 9.20004 5.79996Z" fill="#1476B7"/>
</svg>
