<svg width="19" height="18" viewBox="0 0 19 18" fill="none" xmlns="http://www.w3.org/2000/svg">
<path d="M16.4146 2.62658H13.1317V1.97C13.1317 0.884006 12.2479 0.000244141 11.1619 0.000244141H7.22242C6.13643 0.000244141 5.25267 0.884006 5.25267 1.97V2.62658H1.96975C0.883762 2.62658 0 3.51034 0 4.59633V15.1017C0 16.1877 0.883762 17.0714 1.96975 17.0714H16.4146C17.5006 17.0714 18.3844 16.1877 18.3844 15.1017V4.59633C18.3844 3.51034 17.5006 2.62658 16.4146 2.62658ZM6.56584 1.97C6.56584 1.79586 6.63502 1.62885 6.75815 1.50572C6.88128 1.38259 7.04829 1.31341 7.22242 1.31341H11.1619C11.3361 1.31341 11.5031 1.38259 11.6262 1.50572C11.7493 1.62885 11.8185 1.79586 11.8185 1.97V2.62658H6.56584V1.97ZM16.2964 3.93975L14.8775 6.20299C14.8234 6.31243 14.7396 6.40447 14.6357 6.46866C14.5318 6.53284 14.412 6.5666 14.2899 6.56608H13.7883V5.9095C13.7883 5.73536 13.7191 5.56836 13.596 5.44523C13.4728 5.32209 13.3058 5.25292 13.1317 5.25292C12.9575 5.25292 12.7905 5.32209 12.6674 5.44523C12.5443 5.56836 12.4751 5.73536 12.4751 5.9095V6.56608H5.90926V5.9095C5.90926 5.73536 5.84008 5.56836 5.71695 5.44523C5.59381 5.32209 5.42681 5.25292 5.25267 5.25292C5.07853 5.25292 4.91153 5.32209 4.7884 5.44523C4.66526 5.56836 4.59609 5.73536 4.59609 5.9095V6.56608H4.09446C3.84364 6.56608 3.61843 6.42689 3.47596 6.14718L2.08859 3.93975H16.2964ZM17.0712 15.1017C17.0712 15.2758 17.002 15.4428 16.8789 15.566C16.7557 15.6891 16.5887 15.7583 16.4146 15.7583H1.96975C1.79561 15.7583 1.62861 15.6891 1.50548 15.566C1.38234 15.4428 1.31317 15.2758 1.31317 15.1017V5.17216L2.33284 6.79064C2.49566 7.11853 2.74702 7.39428 3.05847 7.58668C3.36993 7.77907 3.72903 7.88042 4.09511 7.87925H4.59674V8.53584C4.59674 8.70997 4.66592 8.87698 4.78905 9.00011C4.91219 9.12325 5.07919 9.19242 5.25333 9.19242C5.42747 9.19242 5.59447 9.12325 5.7176 9.00011C5.84074 8.87698 5.90991 8.70997 5.90991 8.53584V7.87925H12.4758V8.53584C12.4758 8.70997 12.5449 8.87698 12.6681 9.00011C12.7912 9.12325 12.9582 9.19242 13.1323 9.19242C13.3065 9.19242 13.4735 9.12325 13.5966 9.00011C13.7197 8.87698 13.7889 8.70997 13.7889 8.53584V7.87925H14.2905C15.0417 7.87925 15.7166 7.46167 16.0213 6.84645L17.0725 5.17413V15.1017H17.0712Z" fill="#BDBDBD"/>
</svg>
