<svg width="16" height="20" viewBox="0 0 16 20" fill="none" xmlns="http://www.w3.org/2000/svg">
<path d="M1.65088 16.5427L1.65088 16.5428C1.63662 16.9963 1.81017 17.4346 2.14141 17.7766C2.31617 17.957 2.52523 18.1007 2.75629 18.1991C2.98735 18.2976 3.23576 18.3489 3.48692 18.35H14.75V17.85H3.4495C2.75735 17.85 2.18517 17.3313 2.15157 16.6644C2.15157 16.6644 2.15157 16.6644 2.15156 16.6643L2.2015 16.6618C2.19253 16.499 2.21708 16.336 2.27364 16.1831C2.33019 16.0301 2.41755 15.8904 2.5303 15.7726L1.65088 16.5427ZM1.65088 16.5427C1.6644 16.0985 1.8473 15.6762 2.1621 15.3625L2.16224 15.3624C2.3244 15.1995 2.51724 15.0703 2.72962 14.9823C2.942 14.8944 3.1697 14.8494 3.39957 14.85H3.3997H14.7497V15.35L3.40023 15.35C3.40016 15.35 3.40009 15.35 3.40002 15.35M1.65088 16.5427L3.40002 15.35M3.40002 15.35H3.4V15.4L3.40002 15.35ZM0.95 16.6V16.65H0.953623C0.967366 17.2484 1.20669 17.8177 1.63879 18.2638L1.63881 18.2638C1.87887 18.5114 2.16599 18.7084 2.48329 18.8434C2.80059 18.9784 3.14168 19.0487 3.48651 19.05H3.4867H14.8C15.1585 19.05 15.45 18.7585 15.45 18.4V17.8C15.45 17.5704 15.3292 17.3708 15.15 17.2554V15.9443C15.3292 15.8289 15.45 15.6293 15.45 15.3997V1.9C15.45 1.37619 15.0238 0.95 14.5 0.95H3.4C2.04909 0.95 0.95 2.04909 0.95 3.4V16.6ZM2.85084 16.6293L2.85082 16.629C2.84658 16.5542 2.85773 16.4794 2.8836 16.4091C2.90946 16.3389 2.94948 16.2747 3.00117 16.2205L3.00121 16.2205C3.10574 16.1107 3.24743 16.05 3.4 16.05H14.45V17.15H3.4495C3.13033 17.15 2.8652 16.9122 2.85084 16.6293ZM14.75 1.9V14.15H3.75V1.65H14.5C14.5663 1.65 14.6299 1.67634 14.6768 1.72322C14.7237 1.77011 14.75 1.8337 14.75 1.9ZM1.65 14.8855V3.4C1.65 2.55531 2.2524 1.85013 3.05 1.68719V14.1769C2.52672 14.2506 2.04124 14.4929 1.6675 14.8676C1.66159 14.8735 1.65576 14.8795 1.65 14.8855Z" fill="#BDBDBD" stroke="#BDBDBD" stroke-width="0.1"/>
</svg>
