<svg width="65" height="65" viewBox="0 0 65 65" fill="none" xmlns="http://www.w3.org/2000/svg">
<circle cx="32.5" cy="32.5" r="32.5" fill="#D8EEF2"/>
<path d="M23.5273 28.0001C23.5273 33.224 27.7773 37.4739 33.0011 37.4739C38.2249 37.4739 42.4749 33.224 42.4749 28.0001C42.4749 22.7763 38.2249 18.5264 33.0011 18.5264C27.7773 18.5264 23.5273 22.7763 23.5273 28.0001ZM33.0011 19.7895C37.5285 19.7895 41.2117 23.4727 41.2117 28.0001C41.2117 32.5276 37.5285 36.2107 33.0011 36.2107C28.4737 36.2107 24.7905 32.5276 24.7905 28.0001C24.7905 23.4727 28.4737 19.7895 33.0011 19.7895Z" fill="#68ADBD"/>
<path d="M27.1491 26.8741L29.5973 29.2862L29.034 32.6763C29.0148 32.792 29.0281 32.9108 29.0726 33.0193C29.1171 33.1279 29.191 33.2219 29.2859 33.2908C29.3808 33.3597 29.493 33.4009 29.61 33.4096C29.7269 33.4184 29.844 33.3944 29.9481 33.3405L32.9982 31.7566L36.0481 33.3405C36.1522 33.3945 36.2693 33.4185 36.3862 33.4097C36.5032 33.401 36.6154 33.3598 36.7102 33.2909C36.8052 33.222 36.879 33.128 36.9235 33.0194C36.968 32.9109 36.9814 32.7921 36.9622 32.6763L36.3989 29.2862L38.847 26.8741C38.9306 26.7918 38.9896 26.6879 39.0174 26.5739C39.0452 26.4599 39.0407 26.3405 39.0044 26.2289C38.9681 26.1174 38.9015 26.0182 38.812 25.9424C38.7225 25.8666 38.6137 25.8171 38.4977 25.7997L35.1002 25.2883L33.5629 22.214C33.5105 22.109 33.4299 22.0208 33.3301 21.9591C33.2303 21.8974 33.1154 21.8648 32.9981 21.8648C32.8808 21.8648 32.7658 21.8974 32.6661 21.9591C32.5663 22.0208 32.4857 22.109 32.4333 22.214L30.896 25.2883L27.4985 25.7997C27.3825 25.8171 27.2737 25.8665 27.1842 25.9424C27.0948 26.0182 27.0282 26.1174 26.9919 26.229C26.9556 26.3405 26.9511 26.4599 26.9789 26.5739C27.0067 26.6878 27.0656 26.7918 27.1491 26.8741ZM31.4084 26.4885C31.6117 26.4579 31.7873 26.3303 31.8794 26.1465L32.9982 23.9087L34.1171 26.1466C34.1624 26.2372 34.2289 26.3155 34.3108 26.375C34.3928 26.4345 34.4879 26.4735 34.588 26.4885L37.0608 26.8608L35.2788 28.6162C35.2067 28.6874 35.1527 28.7748 35.1214 28.8711C35.0901 28.9675 35.0824 29.0699 35.099 29.1699L35.509 31.6372L33.2891 30.4846C33.1991 30.4379 33.0993 30.4135 32.9981 30.4135C32.8968 30.4135 32.797 30.4379 32.707 30.4846L30.4872 31.6372L30.8972 29.1699C30.9138 29.0699 30.9062 28.9674 30.8749 28.8711C30.8436 28.7747 30.7896 28.6873 30.7174 28.6162L28.9356 26.8608L31.4084 26.4885ZM33.6298 16.6316C33.6298 16.9804 33.347 17.2632 32.9982 17.2632C32.6494 17.2632 32.3666 16.9804 32.3666 16.6316C32.3666 16.2828 32.6494 16 32.9982 16C33.347 16 33.6298 16.2828 33.6298 16.6316Z" fill="#68ADBD"/>
<path d="M30.0235 16.3722C24.7106 17.7284 21 22.51 21 28C21 31.4098 22.4337 34.6228 24.9504 36.8982L21.1453 43.604C21.0854 43.7097 21.0572 43.8303 21.0641 43.9516C21.071 44.0728 21.1127 44.1895 21.1842 44.2876C21.2557 44.3857 21.354 44.4612 21.4673 44.5049C21.5806 44.5487 21.7041 44.5588 21.823 44.5342L26.1441 43.6369L27.6629 47.9166C27.7033 48.0307 27.7757 48.1307 27.8714 48.2047C27.967 48.2788 28.082 48.3238 28.2025 48.3345C28.323 48.3451 28.4441 48.3209 28.5512 48.2647C28.6584 48.2085 28.7471 48.1227 28.8069 48.0175L33.0001 40.6458L37.193 48.0175C37.2481 48.1144 37.3279 48.195 37.4243 48.2511C37.5206 48.3072 37.6301 48.3367 37.7416 48.3368C37.7602 48.3368 37.7789 48.336 37.7974 48.3345C37.9179 48.3238 38.0329 48.2788 38.1286 48.2047C38.2242 48.1306 38.2967 48.0306 38.3372 47.9166L39.8557 43.6369L44.1769 44.5342C44.4197 44.5845 44.6696 44.4881 44.8156 44.2877C44.8872 44.1896 44.929 44.0729 44.9359 43.9516C44.9428 43.8304 44.9146 43.7097 44.8546 43.604L41.0496 36.8982C43.5664 34.6227 45 31.4098 45 28C45 22.5099 41.2894 17.7284 35.9768 16.3722C35.8964 16.3517 35.8128 16.3472 35.7307 16.359C35.6486 16.3707 35.5696 16.3986 35.4982 16.4409C35.4269 16.4832 35.3646 16.5391 35.3149 16.6055C35.2651 16.6719 35.229 16.7475 35.2085 16.8279C35.1222 17.1659 35.3262 17.5098 35.6642 17.5961C40.4172 18.8095 43.737 23.0877 43.737 28C43.737 33.9786 38.8815 38.7369 33.0001 38.7369C27.1145 38.7369 22.2632 33.9747 22.2632 28C22.2632 23.0877 25.5827 18.8095 30.3358 17.5961C30.6738 17.5098 30.8778 17.1659 30.7918 16.8279C30.7713 16.7475 30.7352 16.6719 30.6854 16.6055C30.6357 16.5391 30.5734 16.4832 30.5021 16.4409C30.4307 16.3985 30.3517 16.3707 30.2696 16.3589C30.1875 16.3472 30.1039 16.3517 30.0235 16.3722ZM28.3917 46.1931L27.1506 42.6954C27.0995 42.5515 26.9981 42.431 26.8651 42.3561C26.7321 42.2813 26.5764 42.2571 26.4269 42.2881L22.9328 43.0137L25.9442 37.7064C27.7 38.9829 29.779 39.7605 31.9409 39.953L28.3917 46.1931ZM39.573 42.2881C39.4235 42.2572 39.2679 42.2813 39.1349 42.3562C39.0019 42.4311 38.9004 42.5516 38.8494 42.6954L37.6084 46.1931L34.0589 39.953C36.2212 39.7605 38.3 38.9829 40.0561 37.7064L43.0675 43.0136L39.573 42.2881Z" fill="#68ADBD"/>
</svg>
