<svg width="65" height="65" viewBox="0 0 65 65" fill="none" xmlns="http://www.w3.org/2000/svg">
<circle cx="32.5" cy="32.5" r="32.5" fill="#F6E4E1"/>
<g clip-path="url(#clip0_1087_8226)">
<path d="M46.4219 23.7344C46.0187 23.7344 45.6448 23.855 45.3262 24.0561C45.1246 23.2806 44.4238 22.7031 43.5859 22.7031C42.5908 22.7031 41.7812 23.5127 41.7812 24.5078V25.9779C41.6182 25.9004 41.4443 25.8481 41.2656 25.8227V18.0625C41.2656 17.9257 41.2113 17.7946 41.1146 17.6979C41.0179 17.6012 40.8868 17.5469 40.75 17.5469H39.2031V17.0313C39.2031 16.8945 39.1488 16.7633 39.0521 16.6666C38.9554 16.5699 38.8243 16.5156 38.6875 16.5156H33.5312C33.4635 16.5156 33.3965 16.5289 33.3339 16.5548C33.2713 16.5807 33.2145 16.6188 33.1667 16.6667L32.5 17.3334L31.8333 16.6667C31.7855 16.6188 31.7287 16.5807 31.6661 16.5548C31.6035 16.5289 31.5365 16.5156 31.4688 16.5156H26.3125C26.1757 16.5156 26.0446 16.5699 25.9479 16.6666C25.8512 16.7633 25.7969 16.8945 25.7969 17.0313V17.5469H24.25C24.1132 17.5469 23.9821 17.6012 23.8854 17.6979C23.7887 17.7946 23.7344 17.9257 23.7344 18.0625V25.8232C23.5556 25.8481 23.3816 25.9005 23.2188 25.9784V24.5078C23.2188 23.5127 22.4092 22.7031 21.4141 22.7031C20.5762 22.7031 19.8754 23.2806 19.6738 24.0561C19.3465 23.847 18.9665 23.7354 18.5781 23.7344C17.4407 23.7344 16.5156 24.6594 16.5156 25.7969V34.5625C16.5156 34.6486 16.5373 34.7337 16.5785 34.8095L19.6723 40.4814C19.696 40.5247 19.7259 40.5644 19.7605 40.5994L23.7973 44.6357C23.9413 44.7791 24.0555 44.9495 24.1332 45.1372C24.2109 45.325 24.2506 45.5262 24.25 45.7294V47.9688C24.25 48.1055 24.3043 48.2367 24.401 48.3334C24.4977 48.43 24.6289 48.4844 24.7656 48.4844H30.9531C31.0899 48.4844 31.221 48.43 31.3177 48.3334C31.4144 48.2367 31.4688 48.1055 31.4688 47.9688V41.5626C31.4695 40.9095 31.2215 40.2806 30.7752 39.8038L28.375 37.2319V32.2422C28.375 31.247 27.5655 30.4375 26.5703 30.4375C26.2924 30.4375 26.032 30.5061 25.7969 30.6185V28.8906H39.2031V30.6185C38.9622 30.5009 38.6978 30.439 38.4297 30.4375C37.4345 30.4375 36.625 31.247 36.625 32.2422V37.2324L34.2248 39.8038C33.7785 40.2806 33.5305 40.9095 33.5312 41.5626V47.9688C33.5312 48.1055 33.5856 48.2367 33.6823 48.3334C33.779 48.43 33.9101 48.4844 34.0469 48.4844H40.2344C40.3711 48.4844 40.5023 48.43 40.599 48.3334C40.6957 48.2367 40.75 48.1055 40.75 47.9688V45.7294C40.75 45.3159 40.9109 44.9271 41.2027 44.6352L45.2395 40.5989C45.2741 40.5644 45.304 40.5242 45.3277 40.4808L48.4215 34.809C48.4628 34.7334 48.4844 34.6486 48.4844 34.5625V25.7969C48.4844 24.6594 47.5593 23.7344 46.4219 23.7344ZM42.8125 24.5078C42.8125 24.0814 43.1595 23.7344 43.5859 23.7344C44.0124 23.7344 44.3594 24.0814 44.3594 24.5078V32.3216L43.2858 33.6875C43.2115 33.3833 43.0464 33.1089 42.8125 32.9006V27.6016V24.5078ZM33.7447 17.5469H38.1719V25.7969H33.0156V18.276L33.7447 17.5469ZM31.2553 17.5469L31.9844 18.276V25.7969H26.8281V17.5469H31.2553ZM24.7656 18.5781H25.7969V26.3125C25.7969 26.4493 25.8512 26.5804 25.9479 26.6771C26.0446 26.7738 26.1757 26.8281 26.3125 26.8281H38.6875C38.8243 26.8281 38.9554 26.7738 39.0521 26.6771C39.1488 26.5804 39.2031 26.4493 39.2031 26.3125V18.5781H40.2344V27.8594H24.7656V18.5781ZM20.6406 24.5078C20.6406 24.0814 20.9876 23.7344 21.4141 23.7344C21.8405 23.7344 22.1875 24.0814 22.1875 24.5078V32.9012C21.9586 33.1074 21.7879 33.3781 21.7142 33.688L20.6406 32.3216V25.7969V24.5078ZM30.4375 41.5626V47.4531H25.2812V45.7294C25.2812 45.0405 25.0131 44.3929 24.5264 43.9061L20.5421 39.9219L17.5469 34.431V25.7969C17.5469 25.2281 18.0094 24.7656 18.5781 24.7656C19.1469 24.7656 19.6094 25.2281 19.6094 25.7969V32.5C19.6094 32.6156 19.6483 32.7278 19.7197 32.8187L25.3916 40.0374L26.2022 39.4001L22.7031 34.9466V34.0469C22.7031 33.7623 22.9346 33.5312 23.2188 33.5312H23.2863C23.4286 33.5312 23.5658 33.5911 23.6632 33.6952L30.0214 40.5077C30.2895 40.7949 30.4375 41.1692 30.4375 41.5626ZM26.5703 31.4688C26.9967 31.4688 27.3438 31.8158 27.3438 32.2422V36.1274L25.7969 34.4702V32.2422C25.7969 31.8158 26.1439 31.4688 26.5703 31.4688ZM24.7656 32.2422V33.3652L24.4171 32.9919C24.2722 32.837 24.0971 32.7134 23.9026 32.6288C23.7081 32.5442 23.4984 32.5004 23.2863 32.5H23.2188V27.6016C23.2188 27.2659 23.4348 26.9823 23.7344 26.8756V28.375C23.7344 28.5118 23.7887 28.6429 23.8854 28.7396C23.9821 28.8363 24.1132 28.8906 24.25 28.8906H24.7656V32.2422ZM40.75 28.8906C40.8868 28.8906 41.0179 28.8363 41.1146 28.7396C41.2113 28.6429 41.2656 28.5118 41.2656 28.375V26.8756C41.5652 26.9823 41.7812 27.2659 41.7812 27.6016V32.5H41.7137C41.2862 32.5 40.8743 32.6794 40.5829 32.9919L40.2344 33.3652V28.8906H40.75ZM37.6562 32.2422C37.6562 31.8158 38.0033 31.4688 38.4297 31.4688C38.8561 31.4688 39.2031 31.8158 39.2031 32.2422V34.4702L37.6562 36.1274V32.2422ZM47.4531 34.431L44.4579 39.9219L40.4736 43.9061C40.2335 44.145 40.0431 44.4292 39.9136 44.7422C39.784 45.0551 39.7178 45.3907 39.7188 45.7294V47.4531H34.5625V41.5626C34.5625 41.1692 34.7105 40.7949 34.9786 40.5077L41.3373 33.6947C41.4342 33.5911 41.5714 33.5312 41.7137 33.5312H41.7812C42.0654 33.5312 42.2969 33.7623 42.2969 34.0469V34.9466L38.7978 39.4001L39.6084 40.0374L45.2803 32.8187C45.3517 32.7278 45.3906 32.6156 45.3906 32.5V25.7969C45.3906 25.2281 45.8531 24.7656 46.4219 24.7656C46.9906 24.7656 47.4531 25.2281 47.4531 25.7969V34.431Z" fill="#BC544E"/>
<path d="M27.8594 19.0938H30.9531V20.125H27.8594V19.0938ZM27.8594 21.1562H30.9531V22.1875H27.8594V21.1562ZM27.8594 23.2188H30.9531V24.25H27.8594V23.2188ZM34.0469 19.0938H37.1406V20.125H34.0469V19.0938ZM34.0469 21.1562H37.1406V22.1875H34.0469V21.1562ZM34.0469 23.2188H37.1406V24.25H34.0469V23.2188Z" fill="#BC544E"/>
</g>
<defs>
<clipPath id="clip0_1087_8226">
<rect width="33" height="33" fill="white" transform="translate(16 16)"/>
</clipPath>
</defs>
</svg>
