<svg width="65" height="65" viewBox="0 0 65 65" fill="none" xmlns="http://www.w3.org/2000/svg">
<circle cx="32.5" cy="32.5" r="32.5" fill="#8AC53E" fill-opacity="0.48"/>
<path d="M34.7013 32.1231C34.0758 32.1231 33.5226 31.7596 33.2924 31.1982C33.0569 30.6213 33.2098 29.9483 33.672 29.5243C34.1954 29.0459 34.2613 28.2348 33.8224 27.678C33.305 27.0201 32.7142 26.4235 32.0614 25.8998C31.82 25.7068 31.5201 25.6015 31.211 25.6013C31.0206 25.6013 30.8323 25.6413 30.6582 25.7185C30.4842 25.7957 30.3282 25.9085 30.2004 26.0497C29.9334 26.3454 29.4903 26.5293 29.0441 26.5294C28.8542 26.5294 28.6706 26.4946 28.5154 26.4299C27.9328 26.1847 27.5656 25.5936 27.6017 24.9609C27.6443 24.2419 27.1167 23.613 26.4002 23.5296C25.57 23.4335 24.7315 23.4313 23.9008 23.523C23.1978 23.6007 22.6661 24.2155 22.6901 24.9232C22.7121 25.5528 22.3402 26.1341 21.7655 26.3696C21.6124 26.4321 21.4336 26.4652 21.2484 26.4652C20.8021 26.4652 20.3583 26.2819 20.0893 25.986C19.9616 25.8462 19.8062 25.7346 19.633 25.6581C19.4598 25.5817 19.2726 25.5421 19.0833 25.542C18.7812 25.542 18.4836 25.6444 18.2432 25.8318C17.578 26.3533 16.975 26.9496 16.446 27.6089C15.9963 28.1682 16.0601 28.9848 16.5927 29.4693C17.0641 29.8962 17.2166 30.5745 16.9725 31.1569C16.7406 31.709 16.1482 32.0666 15.4615 32.0697C14.7428 32.0537 14.1602 32.5635 14.0744 33.2721C13.9769 34.105 13.9752 34.9549 14.0695 35.7981C14.1529 36.5438 14.8919 37.0054 15.5285 37.0054L15.5821 37.0047C16.1569 37.0047 16.6964 37.3775 16.9243 37.9313C17.1604 38.507 17.0073 39.1797 16.5428 39.6057C16.0207 40.0853 15.9559 40.896 16.3933 41.4484C16.91 42.1063 17.4998 42.7032 18.1515 43.2278C18.3933 43.4221 18.6941 43.5281 19.0043 43.5285C19.1945 43.5283 19.3826 43.4883 19.5565 43.4111C19.7304 43.334 19.8863 43.2213 20.0141 43.0804C20.2827 42.7835 20.726 42.5991 21.171 42.5991C21.3603 42.5991 21.5429 42.6338 21.7 42.6998C22.2832 42.9437 22.6508 43.5344 22.6149 44.1674C22.572 44.8881 23.1003 45.5168 23.8149 45.5986C24.2357 45.648 24.6667 45.673 25.0959 45.673C25.5018 45.673 25.9121 45.6503 26.3154 45.6057C27.0183 45.528 27.5501 44.9129 27.5261 44.204C27.5034 43.5757 27.8748 42.995 28.4495 42.7596C28.6041 42.6965 28.7839 42.6631 28.9695 42.6631C29.4141 42.6631 29.8574 42.8468 30.1289 43.1448C30.2566 43.2837 30.4118 43.3946 30.5846 43.4706C30.7574 43.5466 30.944 43.586 31.1328 43.5863C31.4332 43.5863 31.73 43.4847 31.9729 43.297C32.6378 42.7753 33.2408 42.1791 33.77 41.5201C34.2209 40.9598 34.1568 40.1425 33.6235 39.6588C33.1516 39.2318 32.9986 38.5539 33.2431 37.9716C33.4715 37.4263 34.0238 37.0591 34.6194 37.0552L34.7187 37.0578C34.7456 37.0595 34.7725 37.0602 34.7991 37.0602C35.4838 37.0602 36.0611 36.5432 36.1419 35.857C36.2397 35.0231 36.2414 34.173 36.1468 33.3303C36.0629 32.5848 35.3311 32.1231 34.7013 32.1231ZM34.5993 35.4816C33.385 35.4936 32.2591 36.247 31.7915 37.3632C31.3155 38.4971 31.5706 39.8062 32.4206 40.6838C32.0375 41.1416 31.6121 41.5621 31.15 41.9399C30.5861 41.4043 29.7857 41.0894 28.9692 41.0894C28.576 41.0894 28.2009 41.1613 27.8536 41.3031C26.7318 41.7625 25.9869 42.8549 25.9523 44.0606C25.3662 44.1134 24.7764 44.1118 24.1905 44.056C24.1794 42.8344 23.4421 41.7228 22.308 41.2484C21.9556 41.1005 21.573 41.0253 21.1707 41.0253C20.3525 41.0253 19.5515 41.3418 18.9886 41.879C18.5375 41.5005 18.1227 41.0807 17.7497 40.6251C18.5845 39.7527 18.8397 38.4554 18.3795 37.3334C17.9156 36.2056 16.8068 35.4445 15.6135 35.4312C15.5585 34.8352 15.5598 34.2354 15.6173 33.6397C16.8743 33.5812 17.9644 32.8589 18.4233 31.7658C18.8991 30.631 18.6441 29.3213 17.7952 28.4446C18.1782 27.987 18.6036 27.5665 19.0657 27.189C19.6289 27.7244 20.4297 28.0391 21.248 28.0391C21.6411 28.0391 22.0152 27.9676 22.361 27.8266C23.4819 27.3672 24.2271 26.2749 24.2632 25.0684C24.8495 25.0154 25.4394 25.0169 26.0254 25.0727C26.0364 26.2925 26.7722 27.4041 27.907 27.8815C28.2597 28.0286 28.6422 28.1032 29.0439 28.1032C29.8633 28.1031 30.6641 27.7873 31.2265 27.2501C31.678 27.6282 32.0932 28.0478 32.4664 28.5033C31.6327 29.3745 31.3773 30.6713 31.8356 31.794C32.2971 32.9198 33.3758 33.6575 34.6019 33.6953C34.6571 34.2895 34.6562 34.8876 34.5993 35.4816Z" fill="#67B683"/>
<path d="M25.1241 30.3563C22.7919 30.3563 20.8945 32.2538 20.8945 34.5861C20.8945 36.9184 22.7919 38.8157 25.1241 38.8157C27.4564 38.8157 29.3538 36.9183 29.3538 34.5861C29.3538 32.2538 27.4564 30.3563 25.1241 30.3563ZM25.1241 37.2421C23.6596 37.2421 22.4683 36.0506 22.4683 34.5862C22.4683 33.1216 23.6596 31.9301 25.1241 31.9301C26.5885 31.9301 27.78 33.1217 27.78 34.5862C27.78 36.0506 26.5885 37.2421 25.1241 37.2421ZM42.8471 23.9072C42.417 23.9072 41.9965 23.9912 41.5971 24.1568C39.9309 24.8478 39.1375 26.7656 39.8284 28.4321C40.3369 29.6581 41.5245 30.4505 42.8538 30.4505C43.2837 30.4505 43.7041 30.3665 44.1034 30.201C45.7698 29.51 46.5633 27.5921 45.8723 25.9258C45.3639 24.6995 44.1765 23.9072 42.8471 23.9072ZM43.5811 28.9411C43.3507 29.0372 43.1035 29.0866 42.8539 29.0866C42.0779 29.0866 41.3849 28.6246 41.0884 27.9096C40.6856 26.9379 41.1481 25.8197 42.1197 25.4166C42.3502 25.3205 42.5974 25.271 42.8472 25.271C43.6231 25.271 44.3161 25.733 44.6126 26.4482C45.0154 27.4198 44.5527 28.5382 43.5811 28.9411Z" fill="#67B683"/>
<path d="M50.2479 28.1702C49.8329 28.0222 49.5552 27.6296 49.5572 27.1928C49.5587 26.7906 49.8196 26.4012 50.1929 26.2428L50.2601 26.2171C50.8052 26.0279 51.1181 25.4259 50.9588 24.8636C50.7831 24.2455 50.5374 23.6496 50.2264 23.0874C50.0379 22.7465 49.6546 22.5347 49.226 22.5347C49.0644 22.5347 48.9036 22.5661 48.761 22.6253C48.6287 22.6805 48.4868 22.7091 48.3435 22.7094C48.0659 22.7094 47.8068 22.6023 47.6141 22.4083C47.3107 22.102 47.2301 21.6312 47.4133 21.2375C47.659 20.7116 47.4544 20.0777 46.9482 19.7948C46.3932 19.4834 45.8045 19.2364 45.1934 19.0586C45.0927 19.0292 44.9883 19.0143 44.8834 19.0143C44.6534 19.0146 44.4291 19.086 44.2412 19.2186C44.0532 19.3512 43.9109 19.5387 43.8336 19.7554C43.6985 20.1356 43.2605 20.445 42.8579 20.445C42.4204 20.4427 42.0289 20.162 41.8842 19.748C41.7909 19.4794 41.5983 19.2567 41.3459 19.1255C41.0936 18.9943 40.8006 18.9647 40.5271 19.0426C39.9161 19.2168 39.3268 19.4594 38.7702 19.7658C38.2631 20.0448 38.0537 20.6763 38.2938 21.2039C38.4749 21.6009 38.3913 22.0714 38.0866 22.374C37.9087 22.5502 37.6189 22.6598 37.3302 22.6598C37.1783 22.6598 37.0344 22.6299 36.913 22.5727C36.7652 22.5031 36.6038 22.4671 36.4405 22.4674C36.2429 22.4676 36.0489 22.5203 35.8782 22.62C35.7076 22.7197 35.5664 22.8628 35.4691 23.0348C35.1538 23.5949 34.9039 24.1893 34.7243 24.8064C34.5598 25.3706 34.8642 25.9679 35.4184 26.1666C35.833 26.3147 36.1105 26.7079 36.1088 27.1447C36.1069 27.5585 35.8205 27.9449 35.3784 28.131C34.8312 28.3447 34.5492 28.9063 34.7081 29.4742C34.8839 30.0919 35.1295 30.6875 35.4401 31.2495C35.6276 31.5891 36.0112 31.8001 36.4412 31.8001C36.6061 31.8001 36.77 31.768 36.9154 31.7077L36.931 31.7011C37.0521 31.6476 37.1832 31.6203 37.3156 31.6211C37.5891 31.6211 37.8583 31.7335 38.0532 31.9294C38.3567 32.2347 38.437 32.7054 38.2528 33.1011C38.0084 33.6276 38.2136 34.2606 38.7175 34.5411C39.2721 34.8527 39.8603 35.1002 40.4708 35.2788C40.5726 35.3086 40.6779 35.3237 40.7836 35.3237C41.2525 35.3237 41.674 35.0267 41.8325 34.5835C41.9682 34.2028 42.4043 33.8931 42.8092 33.8931C43.2465 33.8945 43.6379 34.1747 43.7828 34.5887C43.8761 34.8572 44.0685 35.0799 44.3207 35.2111C44.5728 35.3422 44.8656 35.3721 45.139 35.2944C45.7503 35.1205 46.34 34.8779 46.8968 34.5712C47.404 34.2922 47.6134 33.6606 47.3729 33.1322C47.1917 32.7362 47.2751 32.2665 47.5799 31.9639C47.7611 31.7844 48.0436 31.6773 48.3357 31.6773C48.4879 31.6773 48.6325 31.7074 48.7565 31.7655C48.9052 31.8346 49.0632 31.8695 49.2263 31.8695H49.2264C49.6255 31.8695 49.9968 31.6538 50.198 31.3024C50.5129 30.7424 50.7628 30.1481 50.9427 29.5313C51.1073 28.9664 50.8026 28.3688 50.2479 28.1702ZM49.1133 30.4412C48.8627 30.3562 48.5998 30.3131 48.3352 30.3136C47.6821 30.3136 47.0568 30.562 46.6189 30.9957C45.9658 31.6442 45.7482 32.6173 46.0442 33.4798C45.702 33.6546 45.3461 33.8012 44.98 33.918C44.7865 33.504 44.4791 33.1536 44.0939 32.9078C43.7087 32.6619 43.2615 32.5307 42.8045 32.5295C41.9061 32.5295 41.0322 33.0957 40.6404 33.904C40.2748 33.7844 39.9197 33.6348 39.5786 33.457C39.8801 32.5955 39.669 31.6211 39.0199 30.9678C38.5703 30.5163 37.949 30.2574 37.3153 30.2574C37.0433 30.2574 36.7795 30.3032 36.5291 30.3937C36.3502 30.0447 36.2005 29.6815 36.0816 29.3077C36.929 28.8794 37.4684 28.0526 37.4724 27.1505C37.476 26.2166 36.9328 25.3697 36.0992 24.9746C36.2203 24.6033 36.3721 24.2427 36.553 23.8966C36.8032 23.9815 37.0657 24.0246 37.3299 24.024C37.9841 24.0239 38.6097 23.7758 39.0468 23.3426C39.6993 22.6946 39.917 21.7214 39.6218 20.8579C39.9642 20.6831 40.3202 20.5365 40.6863 20.4194C40.8795 20.8327 41.186 21.1827 41.5702 21.4287C41.9544 21.6747 42.4006 21.8066 42.8568 21.8091C43.7584 21.8091 44.634 21.2429 45.0256 20.4341C45.3913 20.5534 45.7466 20.7027 46.0878 20.8805C45.7868 21.7408 45.9976 22.7151 46.6457 23.3691C47.0969 23.8233 47.6998 24.0735 48.3433 24.0735C48.613 24.0736 48.8808 24.0288 49.1358 23.9411C49.3143 24.2885 49.4636 24.65 49.5822 25.0221C48.7505 25.4114 48.1966 26.2688 48.1932 27.1875C48.1892 28.1211 48.7327 28.9678 49.5669 29.3629C49.4458 29.7343 49.2941 30.0949 49.1133 30.4412Z" fill="#67B683"/>
</svg>
