<svg width="65" height="65" viewBox="0 0 65 65" fill="none" xmlns="http://www.w3.org/2000/svg">
<g clip-path="url(#clip0_30_3930)">
<path d="M32.5 65C50.4493 65 65 50.4493 65 32.5C65 14.5507 50.4493 0 32.5 0C14.5507 0 0 14.5507 0 32.5C0 50.4493 14.5507 65 32.5 65Z" fill="#718EBF" fill-opacity="0.15"/>
<g clip-path="url(#clip1_30_3930)">
<path d="M45.422 19.5283H19.578C18.4323 19.5283 17.5 20.4606 17.5 21.6064V39.1399C17.5 40.2857 18.4323 41.218 19.578 41.218H34.648L34.193 43.993C34.1074 44.5154 34.2802 44.9886 34.6553 45.2586C35.0303 45.5286 35.5335 45.5431 36.002 45.2963L39.2533 43.5849C39.344 43.5384 39.594 43.5384 39.6847 43.5849L42.936 45.2963C43.1585 45.4133 43.3888 45.4716 43.6096 45.4716C43.8537 45.4716 44.086 45.4003 44.2829 45.2585C44.6578 44.9885 44.8306 44.5152 44.7451 43.9928L44.2902 41.2179H45.4221C46.5679 41.2179 47.5001 40.2856 47.5001 39.1398V21.6064C47.5 20.4605 46.5677 19.5283 45.422 19.5283ZM39.4691 37.6561C37.4721 37.6561 35.8474 36.0313 35.8474 34.0344C35.8474 32.0375 37.4721 30.4127 39.4691 30.4127C41.466 30.4127 43.0908 32.0375 43.0908 34.0344C43.0908 36.0313 41.466 37.6561 39.4691 37.6561ZM40.5144 42.0088C39.9087 41.6899 39.0294 41.6899 38.4238 42.0088L36.1251 43.2187L36.8559 38.7612C37.6309 39.1914 38.5217 39.4372 39.4692 39.4372C40.4166 39.4372 41.3073 39.1912 42.0825 38.7612L42.3673 40.499C42.368 40.5018 42.3682 40.5049 42.3688 40.5078L42.8133 43.2188L40.5144 42.0088ZM45.7188 39.1399C45.7188 39.3008 45.5829 39.4368 45.422 39.4368H43.9981L43.6729 37.4527C43.6716 37.4449 43.6694 37.4374 43.6679 37.4296C44.4201 36.5012 44.8721 35.3197 44.8721 34.0344C44.8721 31.0552 42.4484 28.6315 39.4692 28.6315C36.49 28.6315 34.0663 31.0552 34.0663 34.0344C34.0663 35.3197 34.5182 36.501 35.2705 37.4296C35.2689 37.4373 35.2668 37.4449 35.2655 37.4526L34.94 39.4384C34.93 39.438 34.9204 39.4368 34.9105 39.4368H19.578C19.4171 39.4368 19.2812 39.3008 19.2812 39.1399V21.6064C19.2812 21.4455 19.4171 21.3095 19.578 21.3095H45.422C45.5829 21.3095 45.7188 21.4455 45.7188 21.6064V39.1399Z" fill="#718EBF"/>
<path d="M42.2725 24.6536H22.0859C21.9689 24.6535 21.8531 24.6766 21.7451 24.7213C21.637 24.7661 21.5388 24.8317 21.4561 24.9144C21.3734 24.9971 21.3078 25.0953 21.2631 25.2033C21.2183 25.3114 21.1953 25.4272 21.1953 25.5441C21.1953 26.0361 21.5939 26.4347 22.0859 26.4347H42.2725C42.7644 26.4347 43.1631 26.0361 43.1631 25.5441C43.1631 25.0522 42.7644 24.6536 42.2725 24.6536ZM30.6355 29.4827H22.0859C21.9689 29.4827 21.8531 29.5057 21.7451 29.5504C21.637 29.5952 21.5388 29.6608 21.4561 29.7435C21.3734 29.8262 21.3078 29.9244 21.2631 30.0324C21.2183 30.1405 21.1953 30.2563 21.1953 30.3733C21.1953 30.8652 21.5939 31.2638 22.0859 31.2638H30.6355C31.1275 31.2638 31.5261 30.8652 31.5261 30.3733C31.5261 29.8813 31.1275 29.4827 30.6355 29.4827Z" fill="#718EBF"/>
</g>
</g>
<defs>
<clipPath id="clip0_30_3930">
<rect width="65" height="65" fill="white"/>
</clipPath>
<clipPath id="clip1_30_3930">
<rect width="30" height="30" fill="white" transform="translate(17.5 17.5)"/>
</clipPath>
</defs>
</svg>
