<svg width="65" height="65" viewBox="0 0 65 65" fill="none" xmlns="http://www.w3.org/2000/svg">
<circle cx="32.5" cy="32.5" r="32.5" fill="#E9E6F7"/>
<path d="M45.4973 41.5879V26.7301L46.849 26.055C47.0128 25.9731 47.1514 25.843 47.2485 25.6797C47.3456 25.5165 47.3971 25.3271 47.3971 25.1336C47.3971 24.9401 47.3456 24.7506 47.2485 24.5874C47.1514 24.4242 47.0128 24.294 46.849 24.2121L32.6005 17.0953C32.4747 17.0325 32.3376 17 32.1989 17C32.0601 17 31.923 17.0325 31.7972 17.0953L17.5487 24.2121C17.3848 24.2939 17.2461 24.424 17.1489 24.5872C17.0517 24.7504 17 24.9399 17 25.1335C17 25.327 17.0515 25.5165 17.1487 25.6798C17.2458 25.843 17.3845 25.9732 17.5484 26.055L22.6997 28.6279V39.3672C22.6997 39.6366 22.7997 39.8955 22.978 40.086C23.1056 40.2229 26.175 43.4339 32.1987 43.4339C38.2223 43.4339 41.2918 40.2229 41.4194 40.086C41.5076 39.9916 41.5776 39.8795 41.6254 39.7562C41.6732 39.6329 41.6977 39.5007 41.6977 39.3672V28.6279L43.5975 27.679V41.5879C42.4944 42.0088 41.6977 43.1269 41.6977 44.4506C41.6977 46.1325 42.976 47.5006 44.5474 47.5006C46.1189 47.5006 47.3971 46.1325 47.3971 44.4506C47.3971 43.1269 46.6005 42.0088 45.4973 41.5879ZM32.1987 19.1389L44.201 25.1336L32.1987 31.1283L20.1964 25.1336L32.1987 19.1389ZM39.7979 38.9005C38.988 39.5841 36.4356 41.4005 32.1987 41.4005C27.9583 41.4005 25.4056 39.581 24.5995 38.9012V29.5768L31.7969 33.1718C31.9227 33.2345 32.0599 33.267 32.1987 33.267C32.3375 33.267 32.4747 33.2345 32.6005 33.1718L39.7979 29.5768V38.9005ZM44.5474 45.4673C44.0237 45.4673 43.5975 45.0111 43.5975 44.4506C43.5975 43.8901 44.0237 43.4339 44.5474 43.4339C45.0711 43.4339 45.4973 43.8901 45.4973 44.4506C45.4973 45.0111 45.0711 45.4673 44.5474 45.4673Z" fill="#857FB5"/>
</svg>
