<svg width="18" height="22" viewBox="0 0 18 22" fill="none" xmlns="http://www.w3.org/2000/svg">
<path d="M16.0204 0H12.0696C11.1481 0 10.3984 0.749636 10.3984 1.67097V5.62201C10.3984 6.54339 11.1481 7.29302 12.0696 7.29302H16.0204C16.9418 7.29302 17.6915 6.54339 17.6915 5.62201V1.67097C17.6916 0.749636 16.9419 0 16.0204 0ZM16.4125 5.62205C16.4125 5.83805 16.2366 6.01388 16.0204 6.01388H12.0696C11.8534 6.01388 11.6777 5.83805 11.6777 5.62205V1.67093C11.6777 1.45493 11.8534 1.27905 12.0696 1.27905H16.0204C16.2366 1.27905 16.4125 1.45493 16.4125 1.67093V5.62205Z" fill="#BDBDBD"/>
<path d="M12.9595 8.88972C12.6526 8.88972 12.3633 8.96583 12.1093 9.10026C11.7821 8.60994 11.2239 8.2865 10.5916 8.2865C10.2764 8.28609 9.96657 8.36788 9.69269 8.52381C9.36042 8.07263 8.82563 7.77934 8.22356 7.77934C8.034 7.77934 7.85113 7.80833 7.6791 7.86226V7.29302H7.83101C8.75251 7.29302 9.50215 6.54339 9.50215 5.62184V1.67097C9.50215 0.749636 8.75251 0 7.83101 0H3.88014C2.95876 0 2.20912 0.749636 2.20912 1.67097V5.62201C2.20912 6.54339 2.95876 7.29302 3.88014 7.29302H4.03218V11.2549C3.93202 11.1547 3.82064 11.0663 3.70025 10.9916C3.30736 10.7476 2.84667 10.6626 2.39502 10.7496C1.90918 10.7691 1.4733 10.9811 1.1902 11.338C0.89272 11.7129 0.789455 12.2155 0.906535 12.7172L1.74711 16.3141C2.22643 19.3152 4.56752 21.5604 4.66729 21.6549C4.78606 21.7673 4.94336 21.8299 5.10687 21.8299H12.3001C12.5154 21.8299 12.7162 21.7215 12.8346 21.5416C14.1086 19.6036 14.7822 17.3536 14.7824 15.0345L14.783 10.7133V10.7131C14.783 9.70766 13.965 8.88972 12.9595 8.88972H12.9595ZM5.37557 20.5508C4.86009 20.0025 3.34117 18.2321 3.0069 16.0926C3.00445 16.0769 3.00139 16.0613 2.99773 16.0458L2.15199 12.4262C2.12385 12.3053 2.13801 12.2011 2.19215 12.1329C2.24609 12.0648 2.3387 12.0292 2.4623 12.0174C2.52442 12.0115 2.55022 12.0041 2.60786 12.0007C2.75291 11.9919 2.90163 12.0013 3.02523 12.0781C3.14883 12.1549 3.23492 12.2751 3.26805 12.4167L3.99756 15.5388C4.02732 15.6661 4.09534 15.7812 4.19246 15.8687C4.28959 15.9561 4.41116 16.0117 4.54083 16.028L4.59212 16.0343C4.68211 16.0456 4.77347 16.0376 4.86014 16.0109C4.94681 15.9842 5.0268 15.9393 5.0948 15.8793C5.1628 15.8193 5.21725 15.7455 5.25455 15.6628C5.29184 15.5802 5.31112 15.4905 5.3111 15.3998V5.23543C5.3111 4.93514 5.55528 4.69096 5.85557 4.69096C6.15569 4.69096 6.40004 4.93514 6.40004 5.23543V11.2327C6.40004 11.5858 6.6863 11.8722 7.03959 11.8722C7.39279 11.8722 7.67914 11.5858 7.67914 11.2327V9.60286C7.67914 9.30257 7.92327 9.05839 8.22356 9.05839C8.52368 9.05839 8.76803 9.30257 8.76803 9.60286V11.3055C8.76803 11.6587 9.05429 11.945 9.40758 11.945C9.76078 11.945 10.0471 11.6587 10.0471 11.3055V10.11C10.0471 9.80986 10.2914 9.56551 10.5916 9.56551C10.8918 9.56551 11.136 9.80986 11.136 10.11V11.7522C11.136 12.1052 11.4223 12.3917 11.7756 12.3917C12.1289 12.3917 12.4151 12.1052 12.4151 11.7522V10.7133C12.4151 10.413 12.6594 10.1686 12.9595 10.1686C13.2598 10.1686 13.504 10.413 13.504 10.7131L13.5033 15.0344C13.5032 16.9892 12.9665 18.889 11.9486 20.5508H5.37557ZM3.48822 5.62206V1.67093C3.48822 1.45493 3.6641 1.27905 3.88014 1.27905H7.83101C8.04718 1.27905 8.22305 1.45493 8.22305 1.67093V5.62197C8.22305 5.83801 8.04718 6.01389 7.83101 6.01389H7.6791V5.23526C7.6791 4.2298 6.86103 3.41169 5.85553 3.41169C4.85012 3.41169 4.03201 4.2298 4.03201 5.23526V6.01389H3.88014C3.6641 6.01389 3.48822 5.83801 3.48822 5.62197V5.62206Z" fill="#BDBDBD"/>
</svg>
