<svg width="14" height="8" viewBox="0 0 14 8" fill="none" xmlns="http://www.w3.org/2000/svg">
<path d="M7.03194 7.99998C6.89981 8.00074 6.76883 7.97553 6.64651 7.92579C6.52419 7.87605 6.41293 7.80277 6.31912 7.71013L0.295261 1.71321C0.106209 1.525 0 1.26974 0 1.00358C0 0.737411 0.106209 0.482148 0.295261 0.293941C0.484314 0.105734 0.740724 0 1.00808 0C1.27545 0 1.53186 0.105734 1.72091 0.293941L7.03194 5.59122L12.343 0.303936C12.535 0.140194 12.7821 0.054631 13.0348 0.0643471C13.2875 0.0740633 13.5271 0.178343 13.7059 0.356346C13.8847 0.534349 13.9895 0.772965 13.9993 1.02451C14.009 1.27606 13.9231 1.52201 13.7586 1.71321L7.73473 7.71013C7.54773 7.89478 7.29533 7.99888 7.03194 7.99998Z" fill="#ACACAC"/>
</svg>
