<svg width="20" height="20" viewBox="0 0 20 20" fill="none" xmlns="http://www.w3.org/2000/svg">
<path d="M9.38242 2.48315H7.84909C4.01576 2.48315 2.48242 4.01649 2.48242 7.84982L2.48242 12.4498C2.48242 16.2832 4.01576 17.8165 7.84909 17.8165H12.4491C16.2824 17.8165 17.8158 16.2832 17.8158 12.4498V10.9165" stroke="white" stroke-width="1.725" stroke-linecap="round" stroke-linejoin="round"/>
<path d="M13.2467 3.26514L7.20532 9.30647C6.97532 9.53647 6.74532 9.9888 6.69932 10.3185L6.36965 12.6261C6.24699 13.4618 6.83732 14.0445 7.67299 13.9295L9.98065 13.5998C10.3027 13.5538 10.755 13.3238 10.9927 13.0938L17.034 7.05247C18.0767 6.0098 18.5673 4.79847 17.034 3.26514C15.5007 1.7318 14.2893 2.22247 13.2467 3.26514Z" stroke="white" stroke-width="1.725" stroke-miterlimit="10" stroke-linecap="round" stroke-linejoin="round"/>
<path d="M12.3789 4.13159C12.8926 5.96393 14.3262 7.39759 16.1662 7.91893" stroke="white" stroke-width="1.725" stroke-miterlimit="10" stroke-linecap="round" stroke-linejoin="round"/>
</svg>
