<svg width="26" height="26" viewBox="0 0 26 26" fill="none" xmlns="http://www.w3.org/2000/svg">
<path d="M11.916 2.16663L9.74935 2.16663C4.33268 2.16663 2.16602 4.33329 2.16602 9.74996L2.16602 16.25C2.16602 21.6666 4.33268 23.8333 9.74935 23.8333L16.2494 23.8333C21.666 23.8333 23.8327 21.6666 23.8327 16.25V14.0833" stroke="#0575E6" stroke-width="1.5" stroke-linecap="round" stroke-linejoin="round"/>
<path d="M17.377 3.2717L8.84036 11.8084C8.51536 12.1334 8.19036 12.7725 8.12536 13.2384L7.65952 16.4992C7.48619 17.68 8.32036 18.5034 9.50119 18.3409L12.762 17.875C13.217 17.81 13.8562 17.485 14.192 17.16L22.7287 8.62336C24.202 7.15003 24.8954 5.43836 22.7287 3.2717C20.562 1.10503 18.8504 1.79836 17.377 3.2717Z" stroke="#0575E6" stroke-width="1.5" stroke-miterlimit="10" stroke-linecap="round" stroke-linejoin="round"/>
<path d="M16.1523 4.49585C16.8782 7.08502 18.904 9.11085 21.504 9.84752" stroke="#0575E6" stroke-width="1.5" stroke-miterlimit="10" stroke-linecap="round" stroke-linejoin="round"/>
</svg>
