<svg width="20" height="20" viewBox="0 0 20 20" fill="none" xmlns="http://www.w3.org/2000/svg">
<path d="M17.6516 9.99884C17.6514 8.21573 17.0671 6.48378 15.9913 5.07804C14.9156 3.67229 13.4101 2.67333 11.7139 2.23978C10.0178 1.80623 8.22826 1.96295 6.62945 2.68505C5.03064 3.40715 3.71424 4.65323 2.88928 6.22543C2.06431 7.79764 1.77808 9.60582 2.07603 11.3629C2.37399 13.1199 3.23904 14.7251 4.53384 15.9235C5.82863 17.1219 7.47894 17.8448 9.22269 17.9775C10.9665 18.1102 12.7037 17.645 14.1586 16.6558L15.2471 18.3198C13.4286 19.5564 11.257 20.1381 9.07728 19.9723C6.89755 19.8066 4.8346 18.903 3.21602 17.405C1.59744 15.9071 0.516024 13.9007 0.143492 11.7044C-0.22904 9.50804 0.12867 7.24777 1.15982 5.28247C2.19097 3.31716 3.83644 1.75949 5.83495 0.856796C7.83345 -0.0458946 10.0704 -0.241851 12.1906 0.300044C14.3108 0.84194 16.1927 2.09062 17.5374 3.8478C18.8822 5.60498 19.6127 7.76992 19.6129 9.99884V11.4988C19.6143 12.2487 19.3794 12.9792 18.9429 13.5827C18.5065 14.1862 17.8915 14.6308 17.1885 14.851C16.4856 15.0712 15.7319 15.0553 15.0385 14.8058C14.345 14.5562 13.7485 14.0862 13.3368 13.4648C12.6819 14.1585 11.8446 14.6446 10.9254 14.8648C10.0061 15.0849 9.04412 15.0297 8.15491 14.7058C7.2657 14.3819 6.48712 13.8031 5.91271 13.0388C5.33831 12.2746 4.99251 11.3575 4.91688 10.3978C4.84124 9.43797 5.03897 8.47633 5.48632 7.62837C5.93367 6.78042 6.61161 6.08222 7.43868 5.61766C8.26575 5.1531 9.20677 4.94194 10.1487 5.00956C11.0906 5.07718 11.9933 5.4207 12.7484 5.99884H14.7097V11.4988C14.7097 11.8967 14.8647 12.2782 15.1405 12.5595C15.4164 12.8408 15.7905 12.9988 16.1807 12.9988C16.5708 12.9988 16.9449 12.8408 17.2208 12.5595C17.4966 12.2782 17.6516 11.8967 17.6516 11.4988V9.99884ZM9.80647 6.99884C9.22461 6.99884 8.65581 7.17479 8.17201 7.50444C7.68822 7.83408 7.31114 8.30262 7.08847 8.85079C6.8658 9.39897 6.80754 10.0022 6.92106 10.5841C7.03457 11.1661 7.31477 11.7006 7.7262 12.1202C8.13764 12.5397 8.66184 12.8254 9.23252 12.9412C9.8032 13.057 10.3947 12.9975 10.9323 12.7705C11.4699 12.5434 11.9293 12.1589 12.2526 11.6656C12.5759 11.1722 12.7484 10.5922 12.7484 9.99884C12.7484 9.20319 12.4384 8.44013 11.8867 7.87752C11.335 7.31491 10.5867 6.99884 9.80647 6.99884Z" fill="#9D9C9D"/>
</svg>
