<svg width="182" height="182" viewBox="0 0 182 182" fill="none" xmlns="http://www.w3.org/2000/svg">
<g filter="url(#filter0_d_85_9183)">
<circle cx="90.9404" cy="86.9942" r="79.0712" fill="white"/>
<circle cx="90.9404" cy="86.9942" r="78.577" stroke="#E0E0E0" stroke-opacity="0.42" stroke-width="0.988391"/>
</g>
<path d="M79.1575 76.4638C79.0521 75.9761 78.8676 75.6137 78.604 75.3765C78.3404 75.1261 77.9648 75.0009 77.4772 75.0009C76.7261 75.0009 76.1857 75.3304 75.8563 75.9893C75.5268 76.6351 75.3555 77.663 75.3423 79.0731C75.6322 78.6119 76.0474 78.2494 76.5877 77.9859C77.1412 77.7223 77.7474 77.5905 78.4063 77.5905C79.6978 77.5905 80.7323 77.9991 81.5099 78.8161C82.3006 79.6332 82.6959 80.7731 82.6959 82.236C82.6959 83.198 82.4983 84.0414 82.1029 84.7662C81.7207 85.4911 81.154 86.0577 80.4029 86.4663C79.6649 86.8748 78.7885 87.0791 77.7738 87.0791C75.7443 87.0791 74.3342 86.4465 73.5434 85.1814C72.7527 83.903 72.3574 82.0712 72.3574 79.6859C72.3574 77.182 72.7725 75.3238 73.6027 74.1114C74.4462 72.8858 75.7904 72.273 77.6354 72.273C78.6238 72.273 79.454 72.4707 80.1261 72.866C80.8114 73.2482 81.3254 73.7556 81.668 74.3881C82.0238 75.0207 82.2347 75.7126 82.3006 76.4638H79.1575ZM77.5958 80.2592C77.0292 80.2592 76.5547 80.4305 76.1726 80.7731C75.8036 81.1026 75.6191 81.577 75.6191 82.1964C75.6191 82.829 75.7904 83.3232 76.133 83.679C76.4888 84.0348 76.9896 84.2127 77.6354 84.2127C78.2152 84.2127 78.6699 84.0414 78.9994 83.6988C79.342 83.343 79.5133 82.8619 79.5133 82.2557C79.5133 81.6363 79.3486 81.1487 79.0191 80.7929C78.6897 80.4371 78.2152 80.2592 77.5958 80.2592ZM84.4892 84.2918C84.9373 83.936 85.1416 83.7713 85.102 83.7976C86.3935 82.7302 87.4083 81.8538 88.1463 81.1685C88.8975 80.4832 89.53 79.765 90.044 79.0138C90.558 78.2626 90.8149 77.5312 90.8149 76.8196C90.8149 76.2793 90.6897 75.8575 90.4394 75.5544C90.189 75.2513 89.8134 75.0998 89.3126 75.0998C88.8118 75.0998 88.4165 75.2909 88.1265 75.673C87.8498 76.042 87.7114 76.5692 87.7114 77.2545H84.4497C84.4761 76.1343 84.7133 75.1986 85.1614 74.4474C85.6226 73.6963 86.2222 73.1428 86.9602 72.7869C87.7114 72.4311 88.5416 72.2532 89.451 72.2532C91.0192 72.2532 92.1987 72.6552 92.9894 73.459C93.7933 74.2629 94.1952 75.3106 94.1952 76.6021C94.1952 78.0122 93.7142 79.3235 92.7522 80.5359C91.7902 81.7352 90.5646 82.9081 89.0754 84.0546H94.4127V86.8023H84.4892V84.2918ZM106.062 75.5149H99.8941V78.2429C100.158 77.9529 100.527 77.7157 101.001 77.5312C101.476 77.3467 101.989 77.2545 102.543 77.2545C103.531 77.2545 104.348 77.4785 104.994 77.9266C105.653 78.3746 106.134 78.9545 106.437 79.6661C106.74 80.3778 106.892 81.1487 106.892 81.979C106.892 83.5209 106.457 84.7465 105.587 85.6558C104.717 86.5519 103.492 87 101.91 87C100.856 87 99.9402 86.8221 99.1627 86.4663C98.3851 86.0973 97.7855 85.5899 97.3638 84.9441C96.9421 84.2984 96.7115 83.5538 96.6719 82.7104H99.9732C100.052 83.1189 100.243 83.4616 100.546 83.7383C100.85 84.0019 101.265 84.1337 101.792 84.1337C102.411 84.1337 102.872 83.936 103.176 83.5406C103.479 83.1453 103.63 82.6181 103.63 81.9592C103.63 81.3135 103.472 80.8193 103.156 80.4766C102.839 80.134 102.378 79.9627 101.772 79.9627C101.324 79.9627 100.955 80.0747 100.665 80.2987C100.375 80.5096 100.184 80.7929 100.092 81.1487H96.8301V72.5497H106.062V75.5149Z" fill="#263238"/>
<path d="M78.9902 96.1608C78.9902 96.9634 78.7135 97.6322 78.16 98.1672C77.6157 98.6931 76.7808 98.956 75.6554 98.956H73.8012V102.983H72.542V93.338H75.6554C76.7439 93.338 77.5696 93.6009 78.1323 94.1267C78.7043 94.6525 78.9902 95.3305 78.9902 96.1608ZM75.6554 97.9182C76.3565 97.9182 76.8731 97.7659 77.2052 97.4615C77.5373 97.1571 77.7033 96.7235 77.7033 96.1608C77.7033 94.9708 77.0207 94.3758 75.6554 94.3758H73.8012V97.9182H75.6554ZM83.8624 103.107C83.1521 103.107 82.5063 102.946 81.9252 102.623C81.3532 102.3 80.9012 101.843 80.5691 101.253C80.2462 100.653 80.0848 99.9615 80.0848 99.1774C80.0848 98.4025 80.2508 97.7198 80.5829 97.1294C80.9243 96.5298 81.3855 96.0732 81.9667 95.7595C82.5479 95.4366 83.1982 95.2752 83.9178 95.2752C84.6373 95.2752 85.2877 95.4366 85.8689 95.7595C86.45 96.0732 86.9067 96.5252 87.2388 97.1156C87.5801 97.706 87.7507 98.3932 87.7507 99.1774C87.7507 99.9615 87.5755 100.653 87.2249 101.253C86.8836 101.843 86.4177 102.3 85.8273 102.623C85.2369 102.946 84.582 103.107 83.8624 103.107ZM83.8624 102C84.3144 102 84.7388 101.894 85.1355 101.682C85.5321 101.47 85.8504 101.152 86.0903 100.727C86.3393 100.303 86.4639 99.7862 86.4639 99.1774C86.4639 98.5685 86.3439 98.0519 86.1041 97.6276C85.8642 97.2032 85.5506 96.8896 85.1631 96.6866C84.7757 96.4744 84.356 96.3684 83.9039 96.3684C83.4427 96.3684 83.0183 96.4744 82.6309 96.6866C82.2527 96.8896 81.9482 97.2032 81.7176 97.6276C81.487 98.0519 81.3717 98.5685 81.3717 99.1774C81.3717 99.7954 81.4824 100.317 81.7038 100.741C81.9344 101.165 82.2388 101.484 82.617 101.696C82.9953 101.899 83.4104 102 83.8624 102ZM90.0567 94.1682C89.8169 94.1682 89.6139 94.0852 89.4479 93.9191C89.2818 93.7531 89.1988 93.5501 89.1988 93.3103C89.1988 93.0704 89.2818 92.8675 89.4479 92.7014C89.6139 92.5354 89.8169 92.4524 90.0567 92.4524C90.2874 92.4524 90.4811 92.5354 90.6379 92.7014C90.804 92.8675 90.887 93.0704 90.887 93.3103C90.887 93.5501 90.804 93.7531 90.6379 93.9191C90.4811 94.0852 90.2874 94.1682 90.0567 94.1682ZM90.6656 95.3997V102.983H89.4064V95.3997H90.6656ZM96.5063 95.2614C97.4288 95.2614 98.176 95.5427 98.748 96.1054C99.3199 96.6589 99.6059 97.4615 99.6059 98.5132V102.983H98.3605V98.6931C98.3605 97.9366 98.1714 97.36 97.7932 96.9634C97.415 96.5575 96.8984 96.3545 96.2434 96.3545C95.5792 96.3545 95.0488 96.5621 94.6521 96.9772C94.2646 97.3923 94.0709 97.9966 94.0709 98.7899V102.983H92.8117V95.3997H94.0709V96.4791C94.32 96.0916 94.6567 95.7918 95.081 95.5796C95.5146 95.3674 95.9897 95.2614 96.5063 95.2614ZM103.199 96.4375V100.907C103.199 101.276 103.277 101.539 103.434 101.696C103.591 101.843 103.863 101.917 104.25 101.917H105.178V102.983H104.043C103.342 102.983 102.816 102.821 102.465 102.498C102.115 102.175 101.94 101.645 101.94 100.907V96.4375H100.957V95.3997H101.94V93.4902H103.199V95.3997H105.178V96.4375H103.199ZM109.388 103.107C108.807 103.107 108.285 103.01 107.824 102.817C107.363 102.614 106.998 102.337 106.731 101.986C106.463 101.627 106.316 101.216 106.288 100.755H107.589C107.626 101.133 107.801 101.442 108.115 101.682C108.438 101.922 108.857 102.042 109.374 102.042C109.854 102.042 110.232 101.936 110.509 101.723C110.785 101.511 110.924 101.244 110.924 100.921C110.924 100.589 110.776 100.344 110.481 100.187C110.186 100.021 109.729 99.86 109.111 99.7032C108.548 99.5556 108.087 99.408 107.727 99.2604C107.377 99.1036 107.072 98.8776 106.814 98.5824C106.565 98.2779 106.44 97.8813 106.44 97.3923C106.44 97.0049 106.556 96.6497 106.786 96.3268C107.017 96.004 107.344 95.7503 107.769 95.5658C108.193 95.3721 108.677 95.2752 109.222 95.2752C110.061 95.2752 110.739 95.4874 111.256 95.9117C111.772 96.3361 112.049 96.9172 112.086 97.6552H110.827C110.799 97.2586 110.638 96.9403 110.342 96.7005C110.056 96.4606 109.669 96.3407 109.18 96.3407C108.728 96.3407 108.368 96.4375 108.101 96.6313C107.833 96.825 107.7 97.0787 107.7 97.3923C107.7 97.6414 107.778 97.849 107.935 98.015C108.101 98.1718 108.304 98.301 108.544 98.4025C108.793 98.4947 109.134 98.6008 109.568 98.7207C110.112 98.8683 110.555 99.0159 110.896 99.1635C111.237 99.3019 111.528 99.5141 111.768 99.8C112.017 100.086 112.146 100.46 112.155 100.921C112.155 101.336 112.04 101.71 111.809 102.042C111.579 102.374 111.251 102.637 110.827 102.83C110.412 103.015 109.932 103.107 109.388 103.107Z" fill="#656565"/>
<path d="M34.2561 101.571C31.8783 92.6965 31.6341 83.3856 33.5434 74.399C35.4527 65.4124 39.4614 57.0051 45.2418 49.8642C51.0222 42.7234 58.4103 37.0517 66.8022 33.3126C75.1941 29.5736 84.3517 27.8733 93.5265 28.3509C102.701 28.8284 111.633 31.4701 119.591 36.0601C127.55 40.6502 134.309 47.0582 139.317 54.7605C144.325 62.4629 147.439 71.2409 148.405 80.3772C149.371 89.5135 148.162 98.7487 144.875 107.328" stroke="#1476B7" stroke-width="15" stroke-linecap="round"/>
<path d="M32.3372 124.992C32.3372 123.852 32.5283 122.962 32.9104 122.323C33.2992 121.677 33.9647 121.354 34.907 121.354C35.8493 121.354 36.5115 121.677 36.8937 122.323C37.2824 122.962 37.4768 123.852 37.4768 124.992C37.4768 126.145 37.2824 127.048 36.8937 127.7C36.5115 128.346 35.8493 128.668 34.907 128.668C33.9647 128.668 33.2992 128.346 32.9104 127.7C32.5283 127.048 32.3372 126.145 32.3372 124.992ZM36.3698 124.992C36.3698 124.458 36.3336 124.007 36.2611 123.638C36.1952 123.269 36.0568 122.969 35.846 122.738C35.6351 122.501 35.3221 122.382 34.907 122.382C34.4919 122.382 34.1789 122.501 33.968 122.738C33.7572 122.969 33.6155 123.269 33.543 123.638C33.4771 124.007 33.4442 124.458 33.4442 124.992C33.4442 125.545 33.4771 126.01 33.543 126.385C33.6089 126.761 33.7473 127.064 33.9581 127.295C34.1756 127.525 34.4919 127.641 34.907 127.641C35.3221 127.641 35.6351 127.525 35.846 127.295C36.0634 127.064 36.2051 126.761 36.271 126.385C36.3369 126.01 36.3698 125.545 36.3698 124.992ZM39.272 128.757C39.0677 128.757 38.8964 128.688 38.758 128.55C38.6196 128.411 38.5504 128.24 38.5504 128.036C38.5504 127.832 38.6196 127.66 38.758 127.522C38.8964 127.384 39.0677 127.314 39.272 127.314C39.4696 127.314 39.6377 127.384 39.776 127.522C39.9144 127.66 39.9836 127.832 39.9836 128.036C39.9836 128.24 39.9144 128.411 39.776 128.55C39.6377 128.688 39.4696 128.757 39.272 128.757ZM41.0532 124.992C41.0532 123.852 41.2442 122.962 41.6264 122.323C42.0152 121.677 42.6807 121.354 43.623 121.354C44.5652 121.354 45.2275 121.677 45.6096 122.323C45.9984 122.962 46.1928 123.852 46.1928 124.992C46.1928 126.145 45.9984 127.048 45.6096 127.7C45.2275 128.346 44.5652 128.668 43.623 128.668C42.6807 128.668 42.0152 128.346 41.6264 127.7C41.2442 127.048 41.0532 126.145 41.0532 124.992ZM45.0858 124.992C45.0858 124.458 45.0496 124.007 44.9771 123.638C44.9112 123.269 44.7728 122.969 44.5619 122.738C44.3511 122.501 44.0381 122.382 43.623 122.382C43.2078 122.382 42.8949 122.501 42.684 122.738C42.4731 122.969 42.3315 123.269 42.259 123.638C42.1931 124.007 42.1602 124.458 42.1602 124.992C42.1602 125.545 42.1931 126.01 42.259 126.385C42.3249 126.761 42.4633 127.064 42.6741 127.295C42.8916 127.525 43.2078 127.641 43.623 127.641C44.0381 127.641 44.3511 127.525 44.5619 127.295C44.7794 127.064 44.9211 126.761 44.987 126.385C45.0528 126.01 45.0858 125.545 45.0858 124.992Z" fill="#858585"/>
<path d="M127.076 123.499V122.471H129.131V129.677H127.995V123.499H127.076ZM130.679 125.98C130.679 124.84 130.87 123.95 131.253 123.311C131.641 122.666 132.307 122.343 133.249 122.343C134.191 122.343 134.854 122.666 135.236 123.311C135.625 123.95 135.819 124.84 135.819 125.98C135.819 127.133 135.625 128.036 135.236 128.688C134.854 129.334 134.191 129.657 133.249 129.657C132.307 129.657 131.641 129.334 131.253 128.688C130.87 128.036 130.679 127.133 130.679 125.98ZM134.712 125.98C134.712 125.446 134.676 124.995 134.603 124.626C134.537 124.257 134.399 123.957 134.188 123.726C133.977 123.489 133.664 123.371 133.249 123.371C132.834 123.371 132.521 123.489 132.31 123.726C132.099 123.957 131.958 124.257 131.885 124.626C131.819 124.995 131.786 125.446 131.786 125.98C131.786 126.533 131.819 126.998 131.885 127.374C131.951 127.749 132.09 128.052 132.3 128.283C132.518 128.514 132.834 128.629 133.249 128.629C133.664 128.629 133.977 128.514 134.188 128.283C134.406 128.052 134.547 127.749 134.613 127.374C134.679 126.998 134.712 126.533 134.712 125.98ZM137.011 125.98C137.011 124.84 137.202 123.95 137.585 123.311C137.973 122.666 138.639 122.343 139.581 122.343C140.523 122.343 141.186 122.666 141.568 123.311C141.957 123.95 142.151 124.84 142.151 125.98C142.151 127.133 141.957 128.036 141.568 128.688C141.186 129.334 140.523 129.657 139.581 129.657C138.639 129.657 137.973 129.334 137.585 128.688C137.202 128.036 137.011 127.133 137.011 125.98ZM141.044 125.98C141.044 125.446 141.008 124.995 140.935 124.626C140.869 124.257 140.731 123.957 140.52 123.726C140.309 123.489 139.996 123.371 139.581 123.371C139.166 123.371 138.853 123.489 138.642 123.726C138.431 123.957 138.29 124.257 138.217 124.626C138.151 124.995 138.118 125.446 138.118 125.98C138.118 126.533 138.151 126.998 138.217 127.374C138.283 127.749 138.421 128.052 138.632 128.283C138.85 128.514 139.166 128.629 139.581 128.629C139.996 128.629 140.309 128.514 140.52 128.283C140.738 128.052 140.879 127.749 140.945 127.374C141.011 126.998 141.044 126.533 141.044 125.98ZM143.343 125.98C143.343 124.84 143.534 123.95 143.916 123.311C144.305 122.666 144.971 122.343 145.913 122.343C146.855 122.343 147.517 122.666 147.9 123.311C148.288 123.95 148.483 124.84 148.483 125.98C148.483 127.133 148.288 128.036 147.9 128.688C147.517 129.334 146.855 129.657 145.913 129.657C144.971 129.657 144.305 129.334 143.916 128.688C143.534 128.036 143.343 127.133 143.343 125.98ZM147.376 125.98C147.376 125.446 147.34 124.995 147.267 124.626C147.201 124.257 147.063 123.957 146.852 123.726C146.641 123.489 146.328 123.371 145.913 123.371C145.498 123.371 145.185 123.489 144.974 123.726C144.763 123.957 144.621 124.257 144.549 124.626C144.483 124.995 144.45 125.446 144.45 125.98C144.45 126.533 144.483 126.998 144.549 127.374C144.615 127.749 144.753 128.052 144.964 128.283C145.182 128.514 145.498 128.629 145.913 128.629C146.328 128.629 146.641 128.514 146.852 128.283C147.069 128.052 147.211 127.749 147.277 127.374C147.343 126.998 147.376 126.533 147.376 125.98Z" fill="#858585"/>
<defs>
<filter id="filter0_d_85_9183" x="0.00845432" y="0.0158494" width="181.864" height="181.864" filterUnits="userSpaceOnUse" color-interpolation-filters="sRGB">
<feFlood flood-opacity="0" result="BackgroundImageFix"/>
<feColorMatrix in="SourceAlpha" type="matrix" values="0 0 0 0 0 0 0 0 0 0 0 0 0 0 0 0 0 0 127 0" result="hardAlpha"/>
<feOffset dy="3.95356"/>
<feGaussianBlur stdDeviation="5.93034"/>
<feComposite in2="hardAlpha" operator="out"/>
<feColorMatrix type="matrix" values="0 0 0 0 0 0 0 0 0 0 0 0 0 0 0 0 0 0 0.1 0"/>
<feBlend mode="normal" in2="BackgroundImageFix" result="effect1_dropShadow_85_9183"/>
<feBlend mode="normal" in="SourceGraphic" in2="effect1_dropShadow_85_9183" result="shape"/>
</filter>
</defs>
</svg>
