<svg width="77" height="24" viewBox="0 0 77 24" fill="none" xmlns="http://www.w3.org/2000/svg">
<path d="M38.368 6.832V18H36.128V13.248H31.344V18H29.104V6.832H31.344V11.424H36.128V6.832H38.368ZM44.5088 18.144C43.6554 18.144 42.8874 17.9573 42.2048 17.584C41.5221 17.2 40.9834 16.6613 40.5888 15.968C40.2048 15.2747 40.0128 14.4747 40.0128 13.568C40.0128 12.6613 40.2101 11.8613 40.6048 11.168C41.0101 10.4747 41.5594 9.94133 42.2528 9.568C42.9461 9.184 43.7194 8.992 44.5728 8.992C45.4261 8.992 46.1994 9.184 46.8928 9.568C47.5861 9.94133 48.1301 10.4747 48.5248 11.168C48.9301 11.8613 49.1328 12.6613 49.1328 13.568C49.1328 14.4747 48.9248 15.2747 48.5087 15.968C48.1034 16.6613 47.5488 17.2 46.8448 17.584C46.1514 17.9573 45.3728 18.144 44.5088 18.144ZM44.5088 16.192C44.9141 16.192 45.2928 16.096 45.6448 15.904C46.0074 15.7013 46.2954 15.4027 46.5088 15.008C46.7221 14.6133 46.8288 14.1333 46.8288 13.568C46.8288 12.7253 46.6048 12.08 46.1568 11.632C45.7194 11.1733 45.1808 10.944 44.5408 10.944C43.9008 10.944 43.3621 11.1733 42.9248 11.632C42.4981 12.08 42.2848 12.7253 42.2848 13.568C42.2848 14.4107 42.4928 15.0613 42.9088 15.52C43.3354 15.968 43.8688 16.192 44.5088 16.192ZM61.7839 9.008C62.8719 9.008 63.7465 9.344 64.4079 10.016C65.0799 10.6773 65.4159 11.6053 65.4159 12.8V18H63.1759V13.104C63.1759 12.4107 62.9999 11.8827 62.6479 11.52C62.2959 11.1467 61.8159 10.96 61.2079 10.96C60.5999 10.96 60.1145 11.1467 59.7519 11.52C59.3999 11.8827 59.2239 12.4107 59.2239 13.104V18H56.9839V13.104C56.9839 12.4107 56.8079 11.8827 56.4559 11.52C56.1039 11.1467 55.6239 10.96 55.0159 10.96C54.3972 10.96 53.9065 11.1467 53.5439 11.52C53.1919 11.8827 53.0159 12.4107 53.0159 13.104V18H50.7759V9.136H53.0159V10.208C53.3039 9.83467 53.6719 9.54133 54.1199 9.328C54.5785 9.11467 55.0799 9.008 55.6239 9.008C56.3172 9.008 56.9359 9.15733 57.4799 9.456C58.0239 9.744 58.4452 10.16 58.7439 10.704C59.0319 10.192 59.4479 9.78133 59.9919 9.472C60.5465 9.16267 61.1439 9.008 61.7839 9.008ZM75.7815 13.376C75.7815 13.696 75.7602 13.984 75.7175 14.24H69.2375C69.2908 14.88 69.5148 15.3813 69.9095 15.744C70.3042 16.1067 70.7895 16.288 71.3655 16.288C72.1975 16.288 72.7895 15.9307 73.1415 15.216H75.5575C75.3015 16.0693 74.8108 16.7733 74.0855 17.328C73.3602 17.872 72.4695 18.144 71.4135 18.144C70.5602 18.144 69.7922 17.9573 69.1095 17.584C68.4375 17.2 67.9095 16.6613 67.5255 15.968C67.1522 15.2747 66.9655 14.4747 66.9655 13.568C66.9655 12.6507 67.1522 11.8453 67.5255 11.152C67.8988 10.4587 68.4215 9.92533 69.0935 9.552C69.7655 9.17867 70.5388 8.992 71.4135 8.992C72.2562 8.992 73.0082 9.17333 73.6695 9.536C74.3415 9.89867 74.8588 10.416 75.2215 11.088C75.5948 11.7493 75.7815 12.512 75.7815 13.376ZM73.4615 12.736C73.4508 12.16 73.2428 11.7013 72.8375 11.36C72.4322 11.008 71.9362 10.832 71.3495 10.832C70.7948 10.832 70.3255 11.0027 69.9415 11.344C69.5682 11.6747 69.3388 12.1387 69.2535 12.736H73.4615Z" fill="#1476B7"/>
<path fill-rule="evenodd" clip-rule="evenodd" d="M17.839 7.65899C18.509 8.17799 18.92 8.94899 18.99 9.78799L19 9.98899V18.098C19 20.188 17.349 21.888 15.28 21.998H13.29C12.339 21.979 11.57 21.239 11.5 20.309L11.49 20.168V17.309C11.49 16.998 11.259 16.739 10.95 16.688L10.86 16.678H8.189C7.87 16.688 7.61 16.918 7.57 17.218L7.56 17.309V20.159C7.56 20.218 7.549 20.288 7.54 20.338L7.53 20.359L7.519 20.428C7.4 21.279 6.7 21.928 5.83 21.989L5.7 21.998H3.91C1.82 21.998 0.11 20.359 0 18.298V9.98899C0.009 9.13799 0.38 8.34799 1 7.79799L7.23 2.78799C8.5 1.77899 10.28 1.73899 11.589 2.66799L11.75 2.78799L17.839 7.65899ZM17.599 18.258L17.61 18.098V9.99799C17.599 9.56899 17.42 9.16799 17.11 8.86899L16.98 8.75799L10.88 3.87799C10.12 3.26799 9.04 3.23899 8.24 3.76799L8.089 3.87799L2.009 8.77899C1.66 9.03799 1.45 9.42799 1.4 9.83799L1.389 9.99799V18.098C1.389 19.428 2.429 20.518 3.75 20.598H5.7C5.92 20.598 6.11 20.449 6.139 20.239L6.16 20.059L6.17 20.008V17.309C6.17 16.239 6.99 15.369 8.04 15.288H10.86C11.929 15.288 12.799 16.109 12.88 17.159V20.168C12.88 20.378 13.03 20.559 13.23 20.598H15.089C16.429 20.598 17.519 19.569 17.599 18.258Z" fill="#1476B7"/>
</svg>
