<svg width="300" height="152" viewBox="0 0 300 152" fill="none" xmlns="http://www.w3.org/2000/svg">
<rect width="300" height="150" rx="20" fill="#FFD143"/>
<path opacity="0.5" fill-rule="evenodd" clip-rule="evenodd" d="M80.6189 0C79.5984 6.9096 73.345 26.3399 47.5833 35.1535C22.5887 43.7047 6.1229 40.7638 -5.79686e-05 38L-6.70506e-05 20C-6.70511e-05 19.9941 -5.94221e-05 19.9882 -5.94226e-05 19.9823C0.00947643 8.94477 8.96014 6.78666e-06 20 5.7411e-06L80.6189 0Z" fill="#FFC000"/>
<path opacity="0.5" fill-rule="evenodd" clip-rule="evenodd" d="M164.308 150H280C291.037 150 299.986 141.059 300 130.025C300 130.017 300 130.008 300 130L300 70C299.231 81.6667 285.969 105 239.077 105C192.185 105 169.692 135 164.308 150Z" fill="#FFC000"/>
<path d="M25.49 41.3C24.05 41.3 22.8167 40.9867 21.79 40.36C20.7633 39.7267 19.9733 38.8467 19.42 37.72C18.8733 36.5933 18.6 35.2867 18.6 33.8C18.6 32.3133 18.8733 31.0067 19.42 29.88C19.9733 28.7533 20.7633 27.8767 21.79 27.25C22.8167 26.6167 24.05 26.3 25.49 26.3C27.15 26.3 28.5333 26.7167 29.64 27.55C30.7467 28.3767 31.5233 29.4933 31.97 30.9L29.54 31.57C29.26 30.63 28.7833 29.8967 28.11 29.37C27.4367 28.8367 26.5633 28.57 25.49 28.57C24.5233 28.57 23.7167 28.7867 23.07 29.22C22.43 29.6533 21.9467 30.2633 21.62 31.05C21.3 31.83 21.1367 32.7467 21.13 33.8C21.13 34.8533 21.29 35.7733 21.61 36.56C21.9367 37.34 22.4233 37.9467 23.07 38.38C23.7167 38.8133 24.5233 39.03 25.49 39.03C26.5633 39.03 27.4367 38.7633 28.11 38.23C28.7833 37.6967 29.26 36.9633 29.54 36.03L31.97 36.7C31.5233 38.1067 30.7467 39.2267 29.64 40.06C28.5333 40.8867 27.15 41.3 25.49 41.3ZM37.015 41L32.475 26.6H34.955L38.755 38.66L42.605 26.6H45.085L40.545 41H37.015ZM50.2275 26.6H52.6475L48.8075 41H46.3875L50.2275 26.6ZM61.3298 41.3C59.8898 41.3 58.6565 40.9867 57.6298 40.36C56.6032 39.7267 55.8132 38.8467 55.2598 37.72C54.7132 36.5933 54.4398 35.2867 54.4398 33.8C54.4398 32.3133 54.7132 31.0067 55.2598 29.88C55.8132 28.7533 56.6032 27.8767 57.6298 27.25C58.6565 26.6167 59.8898 26.3 61.3298 26.3C62.9898 26.3 64.3732 26.7167 65.4798 27.55C66.5865 28.3767 67.3632 29.4933 67.8098 30.9L65.3798 31.57C65.0998 30.63 64.6232 29.8967 63.9498 29.37C63.2765 28.8367 62.4032 28.57 61.3298 28.57C60.3632 28.57 59.5565 28.7867 58.9098 29.22C58.2698 29.6533 57.7865 30.2633 57.4598 31.05C57.1398 31.83 56.9765 32.7467 56.9698 33.8C56.9698 34.8533 57.1298 35.7733 57.4498 36.56C57.7765 37.34 58.2632 37.9467 58.9098 38.38C59.5565 38.8133 60.3632 39.03 61.3298 39.03C62.4032 39.03 63.2765 38.7633 63.9498 38.23C64.6232 37.6967 65.0998 36.9633 65.3798 36.03L67.8098 36.7C67.3632 38.1067 66.5865 39.2267 65.4798 40.06C64.3732 40.8867 62.9898 41.3 61.3298 41.3ZM74.7755 41.3C73.6955 41.3 72.7521 41.0567 71.9455 40.57C71.1388 40.0833 70.5121 39.4133 70.0655 38.56C69.6255 37.7 69.4055 36.7133 69.4055 35.6C69.4055 34.4667 69.6321 33.4733 70.0855 32.62C70.5388 31.7667 71.1688 31.1 71.9755 30.62C72.7821 30.14 73.7155 29.9 74.7755 29.9C75.8621 29.9 76.8088 30.1433 77.6155 30.63C78.4221 31.1167 79.0488 31.79 79.4955 32.65C79.9421 33.5033 80.1655 34.4867 80.1655 35.6C80.1655 36.72 79.9388 37.71 79.4855 38.57C79.0388 39.4233 78.4121 40.0933 77.6055 40.58C76.7988 41.06 75.8555 41.3 74.7755 41.3ZM74.7755 39.04C75.7355 39.04 76.4488 38.72 76.9155 38.08C77.3821 37.44 77.6155 36.6133 77.6155 35.6C77.6155 34.5533 77.3788 33.72 76.9055 33.1C76.4321 32.4733 75.7221 32.16 74.7755 32.16C74.1288 32.16 73.5955 32.3067 73.1755 32.6C72.7621 32.8867 72.4555 33.29 72.2555 33.81C72.0555 34.3233 71.9555 34.92 71.9555 35.6C71.9555 36.6467 72.1921 37.4833 72.6655 38.11C73.1455 38.73 73.8488 39.04 74.7755 39.04ZM84.8981 41L80.9781 30.2H83.3881L86.1081 38.03L88.8181 30.2H91.2381L87.3181 41H84.8981ZM97.5522 41.3C96.4589 41.3 95.4989 41.0633 94.6722 40.59C93.8455 40.1167 93.1989 39.46 92.7322 38.62C92.2722 37.78 92.0422 36.8133 92.0422 35.72C92.0422 34.54 92.2689 33.5167 92.7222 32.65C93.1755 31.7767 93.8055 31.1 94.6122 30.62C95.4189 30.14 96.3522 29.9 97.4122 29.9C98.5322 29.9 99.4822 30.1633 100.262 30.69C101.049 31.21 101.632 31.9467 102.012 32.9C102.392 33.8533 102.536 34.9767 102.442 36.27H100.052V35.39C100.046 34.2167 99.8389 33.36 99.4322 32.82C99.0255 32.28 98.3855 32.01 97.5122 32.01C96.5255 32.01 95.7922 32.3167 95.3122 32.93C94.8322 33.5367 94.5922 34.4267 94.5922 35.6C94.5922 36.6933 94.8322 37.54 95.3122 38.14C95.7922 38.74 96.4922 39.04 97.4122 39.04C98.0055 39.04 98.5155 38.91 98.9422 38.65C99.3755 38.3833 99.7089 38 99.9422 37.5L102.322 38.22C101.909 39.1933 101.269 39.95 100.402 40.49C99.5422 41.03 98.5922 41.3 97.5522 41.3ZM93.8322 36.27V34.45H101.262V36.27H93.8322ZM104.673 41V30.2H106.803V32.83L106.543 32.49C106.677 32.13 106.853 31.8033 107.073 31.51C107.3 31.21 107.57 30.9633 107.883 30.77C108.15 30.59 108.443 30.45 108.763 30.35C109.09 30.2433 109.423 30.18 109.763 30.16C110.103 30.1333 110.433 30.1467 110.753 30.2V32.45C110.433 32.3567 110.063 32.3267 109.643 32.36C109.23 32.3933 108.857 32.51 108.523 32.71C108.19 32.89 107.917 33.12 107.703 33.4C107.497 33.68 107.343 34 107.243 34.36C107.143 34.7133 107.093 35.0967 107.093 35.51V41H104.673ZM116.866 41V26.6H119.276V38.74H125.636V41H116.866ZM132.24 41.3C131.146 41.3 130.186 41.0633 129.36 40.59C128.533 40.1167 127.886 39.46 127.42 38.62C126.96 37.78 126.73 36.8133 126.73 35.72C126.73 34.54 126.956 33.5167 127.41 32.65C127.863 31.7767 128.493 31.1 129.3 30.62C130.106 30.14 131.04 29.9 132.1 29.9C133.22 29.9 134.17 30.1633 134.95 30.69C135.736 31.21 136.32 31.9467 136.7 32.9C137.08 33.8533 137.223 34.9767 137.13 36.27H134.74V35.39C134.733 34.2167 134.526 33.36 134.12 32.82C133.713 32.28 133.073 32.01 132.2 32.01C131.213 32.01 130.48 32.3167 130 32.93C129.52 33.5367 129.28 34.4267 129.28 35.6C129.28 36.6933 129.52 37.54 130 38.14C130.48 38.74 131.18 39.04 132.1 39.04C132.693 39.04 133.203 38.91 133.63 38.65C134.063 38.3833 134.396 38 134.63 37.5L137.01 38.22C136.596 39.1933 135.956 39.95 135.09 40.49C134.23 41.03 133.28 41.3 132.24 41.3ZM128.52 36.27V34.45H135.95V36.27H128.52ZM145.691 41C144.978 41.1333 144.278 41.19 143.591 41.17C142.911 41.1567 142.301 41.0333 141.761 40.8C141.221 40.56 140.811 40.1833 140.531 39.67C140.284 39.2033 140.154 38.7267 140.141 38.24C140.128 37.7533 140.121 37.2033 140.121 36.59V27.2H142.521V36.45C142.521 36.8833 142.524 37.2633 142.531 37.59C142.544 37.9167 142.614 38.1833 142.741 38.39C142.981 38.79 143.364 39.0133 143.891 39.06C144.418 39.1067 145.018 39.08 145.691 38.98V41ZM138.161 32.09V30.2H145.691V32.09H138.161ZM153.151 41C152.438 41.1333 151.738 41.19 151.051 41.17C150.371 41.1567 149.761 41.0333 149.221 40.8C148.681 40.56 148.271 40.1833 147.991 39.67C147.744 39.2033 147.614 38.7267 147.601 38.24C147.588 37.7533 147.581 37.2033 147.581 36.59V27.2H149.981V36.45C149.981 36.8833 149.984 37.2633 149.991 37.59C150.004 37.9167 150.074 38.1833 150.201 38.39C150.441 38.79 150.824 39.0133 151.351 39.06C151.878 39.1067 152.478 39.08 153.151 38.98V41ZM145.621 32.09V30.2H153.151V32.09H145.621ZM160.404 41.3C159.31 41.3 158.35 41.0633 157.524 40.59C156.697 40.1167 156.05 39.46 155.584 38.62C155.124 37.78 154.894 36.8133 154.894 35.72C154.894 34.54 155.12 33.5167 155.574 32.65C156.027 31.7767 156.657 31.1 157.464 30.62C158.27 30.14 159.204 29.9 160.264 29.9C161.384 29.9 162.334 30.1633 163.114 30.69C163.9 31.21 164.484 31.9467 164.864 32.9C165.244 33.8533 165.387 34.9767 165.294 36.27H162.904V35.39C162.897 34.2167 162.69 33.36 162.284 32.82C161.877 32.28 161.237 32.01 160.364 32.01C159.377 32.01 158.644 32.3167 158.164 32.93C157.684 33.5367 157.444 34.4267 157.444 35.6C157.444 36.6933 157.684 37.54 158.164 38.14C158.644 38.74 159.344 39.04 160.264 39.04C160.857 39.04 161.367 38.91 161.794 38.65C162.227 38.3833 162.56 38 162.794 37.5L165.174 38.22C164.76 39.1933 164.12 39.95 163.254 40.49C162.394 41.03 161.444 41.3 160.404 41.3ZM156.684 36.27V34.45H164.114V36.27H156.684ZM167.525 41V30.2H169.655V32.83L169.395 32.49C169.528 32.13 169.705 31.8033 169.925 31.51C170.152 31.21 170.422 30.9633 170.735 30.77C171.002 30.59 171.295 30.45 171.615 30.35C171.942 30.2433 172.275 30.18 172.615 30.16C172.955 30.1333 173.285 30.1467 173.605 30.2V32.45C173.285 32.3567 172.915 32.3267 172.495 32.36C172.082 32.3933 171.708 32.51 171.375 32.71C171.042 32.89 170.768 33.12 170.555 33.4C170.348 33.68 170.195 34 170.095 34.36C169.995 34.7133 169.945 35.0967 169.945 35.51V41H167.525Z" fill="white"/>
<path d="M21.624 51.66C22.512 51.66 23.288 51.832 23.952 52.176C24.624 52.512 25.14 53 25.5 53.64C25.868 54.272 26.052 55.012 26.052 55.86C26.052 56.708 25.868 57.444 25.5 58.068C25.14 58.692 24.624 59.172 23.952 59.508C23.288 59.836 22.512 60 21.624 60H18.9V51.66H21.624ZM21.624 58.884C22.6 58.884 23.348 58.62 23.868 58.092C24.388 57.564 24.648 56.82 24.648 55.86C24.648 54.892 24.388 54.136 23.868 53.592C23.348 53.048 22.6 52.776 21.624 52.776H20.268V58.884H21.624ZM28.1038 52.512C27.8558 52.512 27.6478 52.428 27.4798 52.26C27.3118 52.092 27.2278 51.884 27.2278 51.636C27.2278 51.388 27.3118 51.18 27.4798 51.012C27.6478 50.844 27.8558 50.76 28.1038 50.76C28.3438 50.76 28.5478 50.844 28.7158 51.012C28.8838 51.18 28.9678 51.388 28.9678 51.636C28.9678 51.884 28.8838 52.092 28.7158 52.26C28.5478 52.428 28.3438 52.512 28.1038 52.512ZM28.7758 53.388V60H27.4078V53.388H28.7758ZM33.3439 54.504H32.1199V60H30.7399V54.504H29.9599V53.388H30.7399V52.92C30.7399 52.16 30.9399 51.608 31.3399 51.264C31.7479 50.912 32.3839 50.736 33.2479 50.736V51.876C32.8319 51.876 32.5399 51.956 32.3719 52.116C32.2039 52.268 32.1199 52.536 32.1199 52.92V53.388H33.3439V54.504ZM37.3283 54.504H36.1043V60H34.7243V54.504H33.9443V53.388H34.7243V52.92C34.7243 52.16 34.9243 51.608 35.3243 51.264C35.7323 50.912 36.3683 50.736 37.2323 50.736V51.876C36.8163 51.876 36.5243 51.956 36.3563 52.116C36.1883 52.268 36.1043 52.536 36.1043 52.92V53.388H37.3283V54.504ZM44.6006 56.532C44.6006 56.78 44.5846 57.004 44.5526 57.204H39.5006C39.5406 57.732 39.7366 58.156 40.0886 58.476C40.4406 58.796 40.8726 58.956 41.3846 58.956C42.1206 58.956 42.6406 58.648 42.9446 58.032H44.4206C44.2206 58.64 43.8566 59.14 43.3286 59.532C42.8086 59.916 42.1606 60.108 41.3846 60.108C40.7526 60.108 40.1846 59.968 39.6806 59.688C39.1846 59.4 38.7926 59 38.5046 58.488C38.2246 57.968 38.0846 57.368 38.0846 56.688C38.0846 56.008 38.2206 55.412 38.4926 54.9C38.7726 54.38 39.1606 53.98 39.6566 53.7C40.1606 53.42 40.7366 53.28 41.3846 53.28C42.0086 53.28 42.5646 53.416 43.0526 53.688C43.5406 53.96 43.9206 54.344 44.1926 54.84C44.4646 55.328 44.6006 55.892 44.6006 56.532ZM43.1726 56.1C43.1646 55.596 42.9846 55.192 42.6326 54.888C42.2806 54.584 41.8446 54.432 41.3246 54.432C40.8526 54.432 40.4486 54.584 40.1126 54.888C39.7766 55.184 39.5766 55.588 39.5126 56.1H43.1726ZM47.3149 54.348C47.5149 54.012 47.7789 53.752 48.1069 53.568C48.4429 53.376 48.8389 53.28 49.2949 53.28V54.696H48.9469C48.4109 54.696 48.0029 54.832 47.7229 55.104C47.4509 55.376 47.3149 55.848 47.3149 56.52V60H45.9469V53.388H47.3149V54.348ZM56.6123 56.532C56.6123 56.78 56.5963 57.004 56.5643 57.204H51.5123C51.5523 57.732 51.7483 58.156 52.1003 58.476C52.4523 58.796 52.8843 58.956 53.3963 58.956C54.1323 58.956 54.6523 58.648 54.9563 58.032H56.4323C56.2323 58.64 55.8683 59.14 55.3403 59.532C54.8203 59.916 54.1723 60.108 53.3963 60.108C52.7643 60.108 52.1963 59.968 51.6923 59.688C51.1963 59.4 50.8043 59 50.5163 58.488C50.2363 57.968 50.0963 57.368 50.0963 56.688C50.0963 56.008 50.2323 55.412 50.5043 54.9C50.7843 54.38 51.1723 53.98 51.6683 53.7C52.1723 53.42 52.7483 53.28 53.3963 53.28C54.0203 53.28 54.5763 53.416 55.0643 53.688C55.5523 53.96 55.9323 54.344 56.2043 54.84C56.4763 55.328 56.6123 55.892 56.6123 56.532ZM55.1843 56.1C55.1763 55.596 54.9963 55.192 54.6443 54.888C54.2923 54.584 53.8563 54.432 53.3363 54.432C52.8643 54.432 52.4603 54.584 52.1243 54.888C51.7883 55.184 51.5883 55.588 51.5243 56.1H55.1843ZM61.2946 53.28C61.8146 53.28 62.2786 53.388 62.6866 53.604C63.1026 53.82 63.4266 54.14 63.6586 54.564C63.8906 54.988 64.0066 55.5 64.0066 56.1V60H62.6506V56.304C62.6506 55.712 62.5026 55.26 62.2066 54.948C61.9106 54.628 61.5066 54.468 60.9946 54.468C60.4826 54.468 60.0746 54.628 59.7706 54.948C59.4746 55.26 59.3266 55.712 59.3266 56.304V60H57.9586V53.388H59.3266V54.144C59.5506 53.872 59.8346 53.66 60.1786 53.508C60.5306 53.356 60.9026 53.28 61.2946 53.28ZM67.3476 54.504V58.164C67.3476 58.412 67.4036 58.592 67.5156 58.704C67.6356 58.808 67.8356 58.86 68.1156 58.86H68.9556V60H67.8756C67.2596 60 66.7876 59.856 66.4596 59.568C66.1316 59.28 65.9676 58.812 65.9676 58.164V54.504H65.1876V53.388H65.9676V51.744H67.3476V53.388H68.9556V54.504H67.3476ZM74.9296 54.504V58.164C74.9296 58.412 74.9856 58.592 75.0976 58.704C75.2176 58.808 75.4176 58.86 75.6976 58.86H76.5376V60H75.4576C74.8416 60 74.3696 59.856 74.0416 59.568C73.7136 59.28 73.5496 58.812 73.5496 58.164V54.504H72.7696V53.388H73.5496V51.744H74.9296V53.388H76.5376V54.504H74.9296ZM83.8584 56.532C83.8584 56.78 83.8424 57.004 83.8104 57.204H78.7584C78.7984 57.732 78.9944 58.156 79.3464 58.476C79.6984 58.796 80.1304 58.956 80.6424 58.956C81.3784 58.956 81.8984 58.648 82.2024 58.032H83.6784C83.4784 58.64 83.1144 59.14 82.5864 59.532C82.0664 59.916 81.4184 60.108 80.6424 60.108C80.0104 60.108 79.4424 59.968 78.9384 59.688C78.4424 59.4 78.0504 59 77.7624 58.488C77.4824 57.968 77.3424 57.368 77.3424 56.688C77.3424 56.008 77.4784 55.412 77.7504 54.9C78.0304 54.38 78.4184 53.98 78.9144 53.7C79.4184 53.42 79.9944 53.28 80.6424 53.28C81.2664 53.28 81.8224 53.416 82.3104 53.688C82.7984 53.96 83.1784 54.344 83.4504 54.84C83.7224 55.328 83.8584 55.892 83.8584 56.532ZM82.4304 56.1C82.4224 55.596 82.2424 55.192 81.8904 54.888C81.5384 54.584 81.1024 54.432 80.5824 54.432C80.1104 54.432 79.7064 54.584 79.3704 54.888C79.0344 55.184 78.8344 55.588 78.7704 56.1H82.4304ZM88.0367 56.652L90.1727 60H88.6247L87.1967 57.756L85.8527 60H84.4247L86.5607 56.748L84.4247 53.388H85.9727L87.4007 55.632L88.7447 53.388H90.1727L88.0367 56.652ZM92.789 54.504V58.164C92.789 58.412 92.845 58.592 92.957 58.704C93.077 58.808 93.277 58.86 93.557 58.86H94.397V60H93.317C92.701 60 92.229 59.856 91.901 59.568C91.573 59.28 91.409 58.812 91.409 58.164V54.504H90.629V53.388H91.409V51.744H92.789V53.388H94.397V54.504H92.789ZM101.547 54.504H100.323V60H98.943V54.504H98.163V53.388H98.943V52.92C98.943 52.16 99.143 51.608 99.543 51.264C99.951 50.912 100.587 50.736 101.451 50.736V51.876C101.035 51.876 100.743 51.956 100.575 52.116C100.407 52.268 100.323 52.536 100.323 52.92V53.388H101.547V54.504ZM105.627 60.108C105.003 60.108 104.439 59.968 103.935 59.688C103.431 59.4 103.035 59 102.747 58.488C102.459 57.968 102.315 57.368 102.315 56.688C102.315 56.016 102.463 55.42 102.759 54.9C103.055 54.38 103.459 53.98 103.971 53.7C104.483 53.42 105.055 53.28 105.687 53.28C106.319 53.28 106.891 53.42 107.403 53.7C107.915 53.98 108.319 54.38 108.615 54.9C108.911 55.42 109.059 56.016 109.059 56.688C109.059 57.36 108.907 57.956 108.603 58.476C108.299 58.996 107.883 59.4 107.355 59.688C106.835 59.968 106.259 60.108 105.627 60.108ZM105.627 58.92C105.979 58.92 106.307 58.836 106.611 58.668C106.923 58.5 107.175 58.248 107.367 57.912C107.559 57.576 107.655 57.168 107.655 56.688C107.655 56.208 107.563 55.804 107.379 55.476C107.195 55.14 106.951 54.888 106.647 54.72C106.343 54.552 106.015 54.468 105.663 54.468C105.311 54.468 104.983 54.552 104.679 54.72C104.383 54.888 104.147 55.14 103.971 55.476C103.795 55.804 103.707 56.208 103.707 56.688C103.707 57.4 103.887 57.952 104.247 58.344C104.615 58.728 105.075 58.92 105.627 58.92ZM111.78 54.348C111.98 54.012 112.244 53.752 112.572 53.568C112.908 53.376 113.304 53.28 113.76 53.28V54.696H113.412C112.876 54.696 112.468 54.832 112.188 55.104C111.916 55.376 111.78 55.848 111.78 56.52V60H110.412V53.388H111.78V54.348ZM123.021 53.28C123.541 53.28 124.005 53.388 124.413 53.604C124.829 53.82 125.153 54.14 125.385 54.564C125.625 54.988 125.745 55.5 125.745 56.1V60H124.389V56.304C124.389 55.712 124.241 55.26 123.945 54.948C123.649 54.628 123.245 54.468 122.733 54.468C122.221 54.468 121.813 54.628 121.509 54.948C121.213 55.26 121.065 55.712 121.065 56.304V60H119.709V56.304C119.709 55.712 119.561 55.26 119.265 54.948C118.969 54.628 118.565 54.468 118.053 54.468C117.541 54.468 117.133 54.628 116.829 54.948C116.533 55.26 116.385 55.712 116.385 56.304V60H115.017V53.388H116.385V54.144C116.609 53.872 116.893 53.66 117.237 53.508C117.581 53.356 117.949 53.28 118.341 53.28C118.869 53.28 119.341 53.392 119.757 53.616C120.173 53.84 120.493 54.164 120.717 54.588C120.917 54.188 121.229 53.872 121.653 53.64C122.077 53.4 122.533 53.28 123.021 53.28ZM127.03 56.664C127.03 56 127.166 55.412 127.438 54.9C127.718 54.388 128.094 53.992 128.566 53.712C129.046 53.424 129.574 53.28 130.15 53.28C130.67 53.28 131.122 53.384 131.506 53.592C131.898 53.792 132.21 54.044 132.442 54.348V53.388H133.822V60H132.442V59.016C132.21 59.328 131.894 59.588 131.494 59.796C131.094 60.004 130.638 60.108 130.126 60.108C129.558 60.108 129.038 59.964 128.566 59.676C128.094 59.38 127.718 58.972 127.438 58.452C127.166 57.924 127.03 57.328 127.03 56.664ZM132.442 56.688C132.442 56.232 132.346 55.836 132.154 55.5C131.97 55.164 131.726 54.908 131.422 54.732C131.118 54.556 130.79 54.468 130.438 54.468C130.086 54.468 129.758 54.556 129.454 54.732C129.15 54.9 128.902 55.152 128.71 55.488C128.526 55.816 128.434 56.208 128.434 56.664C128.434 57.12 128.526 57.52 128.71 57.864C128.902 58.208 129.15 58.472 129.454 58.656C129.766 58.832 130.094 58.92 130.438 58.92C130.79 58.92 131.118 58.832 131.422 58.656C131.726 58.48 131.97 58.224 132.154 57.888C132.346 57.544 132.442 57.144 132.442 56.688ZM137.215 54.504V58.164C137.215 58.412 137.271 58.592 137.383 58.704C137.503 58.808 137.703 58.86 137.983 58.86H138.823V60H137.743C137.127 60 136.655 59.856 136.327 59.568C135.999 59.28 135.835 58.812 135.835 58.164V54.504H135.055V53.388H135.835V51.744H137.215V53.388H138.823V54.504H137.215ZM141.68 54.504V58.164C141.68 58.412 141.736 58.592 141.848 58.704C141.968 58.808 142.168 58.86 142.448 58.86H143.288V60H142.208C141.592 60 141.12 59.856 140.792 59.568C140.464 59.28 140.3 58.812 140.3 58.164V54.504H139.52V53.388H140.3V51.744H141.68V53.388H143.288V54.504H141.68ZM145.244 52.512C144.996 52.512 144.788 52.428 144.62 52.26C144.452 52.092 144.368 51.884 144.368 51.636C144.368 51.388 144.452 51.18 144.62 51.012C144.788 50.844 144.996 50.76 145.244 50.76C145.484 50.76 145.688 50.844 145.856 51.012C146.024 51.18 146.108 51.388 146.108 51.636C146.108 51.884 146.024 52.092 145.856 52.26C145.688 52.428 145.484 52.512 145.244 52.512ZM145.916 53.388V60H144.548V53.388H145.916ZM151.049 53.28C151.569 53.28 152.033 53.388 152.441 53.604C152.857 53.82 153.181 54.14 153.413 54.564C153.645 54.988 153.761 55.5 153.761 56.1V60H152.405V56.304C152.405 55.712 152.257 55.26 151.961 54.948C151.665 54.628 151.261 54.468 150.749 54.468C150.237 54.468 149.829 54.628 149.525 54.948C149.229 55.26 149.081 55.712 149.081 56.304V60H147.713V53.388H149.081V54.144C149.305 53.872 149.589 53.66 149.933 53.508C150.285 53.356 150.657 53.28 151.049 53.28ZM158.169 53.28C158.681 53.28 159.133 53.384 159.525 53.592C159.925 53.792 160.237 54.044 160.461 54.348V53.388H161.841V60.108C161.841 60.716 161.713 61.256 161.457 61.728C161.201 62.208 160.829 62.584 160.341 62.856C159.861 63.128 159.285 63.264 158.613 63.264C157.717 63.264 156.973 63.052 156.381 62.628C155.789 62.212 155.453 61.644 155.373 60.924H156.729C156.833 61.268 157.053 61.544 157.389 61.752C157.733 61.968 158.141 62.076 158.613 62.076C159.165 62.076 159.609 61.908 159.945 61.572C160.289 61.236 160.461 60.748 160.461 60.108V59.004C160.229 59.316 159.913 59.58 159.513 59.796C159.121 60.004 158.673 60.108 158.169 60.108C157.593 60.108 157.065 59.964 156.585 59.676C156.113 59.38 155.737 58.972 155.457 58.452C155.185 57.924 155.049 57.328 155.049 56.664C155.049 56 155.185 55.412 155.457 54.9C155.737 54.388 156.113 53.992 156.585 53.712C157.065 53.424 157.593 53.28 158.169 53.28ZM160.461 56.688C160.461 56.232 160.365 55.836 160.173 55.5C159.989 55.164 159.745 54.908 159.441 54.732C159.137 54.556 158.809 54.468 158.457 54.468C158.105 54.468 157.777 54.556 157.473 54.732C157.169 54.9 156.921 55.152 156.729 55.488C156.545 55.816 156.453 56.208 156.453 56.664C156.453 57.12 156.545 57.52 156.729 57.864C156.921 58.208 157.169 58.472 157.473 58.656C157.785 58.832 158.113 58.92 158.457 58.92C158.809 58.92 159.137 58.832 159.441 58.656C159.745 58.48 159.989 58.224 160.173 57.888C160.365 57.544 160.461 57.144 160.461 56.688Z" fill="white"/>
<path d="M218.148 81.7341L225.633 87.2747L170.325 150.222H183.915L233.883 93.3764L241.063 98.6876L242.72 84.5864L244.376 70.4851L218.148 81.7341Z" fill="#1476B7"/>
<path d="M131.236 150.222H144.841L158.714 134.438L165.897 139.753L167.554 125.652L169.211 111.551L142.979 122.799L150.467 128.337L131.236 150.222Z" fill="#1476B7"/>
<path d="M234.539 150.222H248.14L265.884 130.041L273.064 135.352L274.72 121.251L276.377 107.15L250.149 118.399L257.633 123.94L234.539 150.222Z" fill="#1476B7"/>
<path d="M250.299 63.5384L259.975 70.6965L226.219 109.252L193.72 98.1923L141.777 150.222H160.436L197.279 113.324L230.364 124.581L270.637 78.5831L279.921 85.4534L282.062 67.2249L284.202 49L250.299 63.5384Z" fill="white"/>
<path d="M225.013 109.252H226.219L193.72 98.1924L193.412 98.502L225.013 109.252Z" fill="#D4D4FC"/>
<path d="M196.073 113.324L159.23 150.222H160.436L197.279 113.324H196.073Z" fill="#D4D4FC"/>
<path d="M269.432 78.583L229.437 124.267L230.364 124.581L270.637 78.583H269.432Z" fill="#D4D4FC"/>
<path d="M282.934 49.5428L280.856 67.2249L278.811 84.6302L279.921 85.4534L282.062 67.2249L284.202 49L282.934 49.5428Z" fill="#D4D4FC"/>
<path d="M245.549 87.7009C245.549 87.5297 245.535 87.3585 245.513 87.1946L229.969 104.95L229.793 115.714H230.265L230.214 123.145L231.281 123.51L246.202 106.469L245.549 87.7009Z" fill="#CCCCCE"/>
</svg>
