<svg width="300" height="115" viewBox="0 0 300 115" fill="none" xmlns="http://www.w3.org/2000/svg">
<mask id="mask0_429_9320" style="mask-type:alpha" maskUnits="userSpaceOnUse" x="0" y="0" width="300" height="115">
<rect width="300" height="115" rx="20" fill="#D9D9D9"/>
</mask>
<g mask="url(#mask0_429_9320)">
<rect y="-17" width="300" height="150" rx="20" fill="#73BDC0"/>
<path opacity="0.1" fill-rule="evenodd" clip-rule="evenodd" d="M80.619 -17C79.5985 -10.0904 73.3451 9.33987 47.5834 18.1535C22.5888 26.7047 6.12302 23.7638 6.41017e-05 21L7.02785e-05 3.00001C6.93871e-05 -8.04569 8.95439 -17 20.0001 -17L80.619 -17Z" fill="#006838"/>
<path opacity="0.1" fill-rule="evenodd" clip-rule="evenodd" d="M164.308 133H280C291.037 133 299.986 124.059 300 113.025C300 113.017 300 113.008 300 113L300 53C299.231 64.6667 285.969 88 239.077 88C192.185 88 169.692 118 164.308 133Z" fill="#006838"/>
<g clip-path="url(#clip0_429_9320)">
<path d="M269 66.5C269 66.6326 269 66.7653 269 66.8909C268.993 67.2819 268.979 67.6798 268.965 68.0637C268.337 80.4131 260.372 90.8218 249.342 95.0104C249.223 95.0523 249.111 95.1012 248.993 95.1431C248.643 95.2687 248.287 95.3944 247.931 95.5061C247.813 95.548 247.694 95.5829 247.575 95.6178C246.856 95.8412 246.13 96.0366 245.397 96.2042C245.153 96.26 244.902 96.3159 244.657 96.3647C244.036 96.4904 243.408 96.6021 242.779 96.6859C242.654 96.7068 242.528 96.7208 242.396 96.7347C242.144 96.7696 241.886 96.7976 241.628 96.8255C241.502 96.8394 241.369 96.8534 241.244 96.8604C240.985 96.8813 240.727 96.9023 240.469 96.9162C239.82 96.9581 239.17 96.9791 238.507 96.9791C237.851 96.9791 237.195 96.9581 236.545 96.9162C236.287 96.9023 236.029 96.8813 235.771 96.8604C235.645 96.8464 235.512 96.8394 235.387 96.8255C235.128 96.7976 234.877 96.7696 234.619 96.7347C234.493 96.7208 234.367 96.6998 234.235 96.6859C233.599 96.5951 232.971 96.4904 232.357 96.3647C232.106 96.3159 231.861 96.26 231.617 96.2042C230.877 96.0366 230.151 95.8342 229.432 95.6178C229.313 95.5829 229.194 95.541 229.076 95.5061C228.72 95.3874 228.364 95.2687 228.015 95.1431C227.896 95.1012 227.784 95.0593 227.666 95.0104C216.636 90.8148 208.67 80.4062 208.042 68.0637C208.028 67.7426 208.014 67.4145 208.007 67.0864C208.007 67.0236 208.007 66.9538 208.007 66.8909C208.007 66.8421 208.007 66.7932 208.007 66.7443C208.007 66.6606 208.007 66.5768 208.007 66.493C208.007 66.13 208.014 65.767 208.028 65.411C208.035 65.2993 208.035 65.1876 208.042 65.0689C208.042 65.02 208.049 64.9712 208.049 64.9223C208.063 64.664 208.077 64.4057 208.098 64.1474C208.105 64.0217 208.119 63.8891 208.133 63.7634C208.154 63.5052 208.182 63.2469 208.21 62.9955C208.237 62.7372 208.272 62.4859 208.307 62.2346C208.363 61.8576 208.419 61.4737 208.489 61.1037C209.082 57.7807 210.213 54.6463 211.791 51.784C211.84 51.6863 211.895 51.5956 211.951 51.4978C212.573 50.3948 213.264 49.3337 214.018 48.3285C214.06 48.2726 214.101 48.2168 214.143 48.1609C214.855 47.2185 215.616 46.3179 216.426 45.4662C216.433 45.4593 216.44 45.4523 216.44 45.4523C217.529 44.3074 218.709 43.2463 219.966 42.2829C220.545 41.8361 221.145 41.4103 221.76 41.0054C222.374 40.6005 223.002 40.2165 223.645 39.8605C223.861 39.7418 224.077 39.6231 224.294 39.5114C224.51 39.3997 224.734 39.2811 224.95 39.1764C225.097 39.1065 225.243 39.0298 225.39 38.9599C225.655 38.8343 225.92 38.7086 226.186 38.59C226.255 38.562 226.325 38.5271 226.395 38.4992C226.591 38.4154 226.779 38.3317 226.974 38.2549C227.205 38.1641 227.435 38.0734 227.666 37.9826C227.784 37.9407 227.896 37.8919 228.015 37.85C228.161 37.7941 228.308 37.7453 228.454 37.6894C228.657 37.6196 228.866 37.5498 229.069 37.48C229.187 37.4381 229.306 37.4032 229.425 37.3683C229.662 37.2915 229.906 37.2217 230.144 37.1519C230.744 36.9773 231.359 36.8307 231.973 36.6911C232.217 36.6353 232.469 36.5864 232.72 36.5375C232.971 36.4887 233.222 36.4468 233.474 36.4049C233.851 36.3421 234.228 36.2862 234.612 36.2374C234.863 36.2024 235.121 36.1745 235.38 36.1466C235.505 36.1326 235.638 36.1187 235.764 36.1117C236.022 36.0908 236.28 36.0698 236.538 36.0558C237.188 36.0209 237.844 36 238.5 36C239.156 36 239.813 36.0209 240.462 36.0628C240.72 36.0768 240.978 36.0977 241.237 36.1187C241.362 36.1326 241.495 36.1396 241.621 36.1536C241.879 36.1815 242.13 36.2094 242.389 36.2443C242.772 36.2932 243.149 36.3491 243.526 36.4119C243.778 36.4538 244.029 36.4957 244.28 36.5445C244.532 36.5934 244.776 36.6423 245.027 36.6981C245.642 36.8307 246.256 36.9843 246.856 37.1588C247.101 37.2287 247.338 37.2985 247.575 37.3753C247.694 37.4102 247.813 37.452 247.931 37.487C248.141 37.5568 248.343 37.6266 248.553 37.6964C248.699 37.7453 248.846 37.8011 248.993 37.8569C249.111 37.8988 249.223 37.9407 249.342 37.9896C249.572 38.0803 249.802 38.1711 250.033 38.2618C250.228 38.3386 250.424 38.4224 250.612 38.5062C250.682 38.5341 250.752 38.569 250.822 38.5969C251.087 38.7156 251.359 38.8343 251.617 38.9669C251.764 39.0367 251.911 39.1065 252.057 39.1833C252.281 39.295 252.497 39.4067 252.713 39.5184C252.93 39.6301 253.146 39.7488 253.363 39.8675C254.005 40.2305 254.633 40.6075 255.248 41.0124C255.862 41.4173 256.462 41.8431 257.042 42.2899C258.298 43.2533 259.478 44.3144 260.567 45.4593C260.574 45.4662 260.581 45.4732 260.581 45.4732C261.391 46.3249 262.159 47.2255 262.864 48.1679C262.906 48.2237 262.948 48.2796 262.989 48.3354C263.743 49.3477 264.428 50.4018 265.056 51.5048C265.112 51.5956 265.161 51.6933 265.216 51.791C266.794 54.6463 267.925 57.7877 268.518 61.1107C268.588 61.4876 268.644 61.8646 268.7 62.2416C268.735 62.4929 268.77 62.7512 268.798 63.0025C268.826 63.2608 268.853 63.5121 268.874 63.7704C268.888 63.8961 268.895 64.0287 268.909 64.1544C268.93 64.4127 268.944 64.671 268.958 64.9293C268.986 65.4528 269 65.9694 269 66.5Z" fill="#D8226D"/>
<path d="M238.5 91.876C252.515 91.876 263.876 80.5148 263.876 66.5001C263.876 52.4853 252.515 41.1241 238.5 41.1241C224.485 41.1241 213.124 52.4853 213.124 66.5001C213.124 80.5148 224.485 91.876 238.5 91.876Z" fill="white"/>
<path d="M238.5 86.5913C249.596 86.5913 258.591 77.5961 258.591 66.5C258.591 55.4039 249.596 46.4087 238.5 46.4087C227.404 46.4087 218.409 55.4039 218.409 66.5C218.409 77.5961 227.404 86.5913 238.5 86.5913Z" fill="#D8226D"/>
<path d="M238.5 81.7395C246.917 81.7395 253.74 74.9166 253.74 66.5C253.74 58.0835 246.917 51.2605 238.5 51.2605C230.083 51.2605 223.26 58.0835 223.26 66.5C223.26 74.9166 230.083 81.7395 238.5 81.7395Z" fill="white"/>
<path d="M238.5 77.2159C244.372 77.2159 249.132 72.4558 249.132 66.5838C249.132 60.7119 244.372 55.9518 238.5 55.9518C232.628 55.9518 227.868 60.7119 227.868 66.5838C227.868 72.4558 232.628 77.2159 238.5 77.2159Z" fill="#D8226D"/>
<path d="M238.5 71.3519C241.318 71.3519 243.603 69.0671 243.603 66.2487C243.603 63.4304 241.318 61.1456 238.5 61.1456C235.682 61.1456 233.397 63.4304 233.397 66.2487C233.397 69.0671 235.682 71.3519 238.5 71.3519Z" fill="white"/>
<path d="M241.304 67.0714H239.142V69.2866H238.008V67.0714H235.846V66.044H238.008V63.8287H239.142V66.044H241.304V67.0714Z" fill="#D8226D"/>
</g>
<path fill-rule="evenodd" clip-rule="evenodd" d="M230.435 107.995V98.7244H246.569V107.995H230.435ZM230.435 119.364V110.094H246.569V119.364H230.435ZM230.435 130.73V121.459H246.569V130.73H230.435ZM230.435 142.099V132.828H246.569V142.099H230.435ZM230.435 153.468V144.197H246.569V153.468H230.435ZM230.435 164.834V155.563H246.569V164.834H230.435ZM230.435 176.203V166.932H246.569V176.203H230.435ZM230.435 188.207L230.435 188.207V178.301H246.569V189.035H247.841L248.67 188.207V74.5264H247.397L247.397 74.5264H247.394V74.5297L246.569 75.3541V85.26H230.435V74.5264H230.435V74.5264H229.162L228.333 75.3541V189.035H229.606L230.435 188.207ZM230.435 87.3553H246.569V96.6258H230.435V87.3553Z" fill="white"/>
</g>
<defs>
<clipPath id="clip0_429_9320">
<rect width="61" height="61" fill="white" transform="translate(208 36)"/>
</clipPath>
</defs>
</svg>
