<svg width="300" height="150" viewBox="0 0 300 150" fill="none" xmlns="http://www.w3.org/2000/svg">
<rect width="300" height="150" rx="20" fill="#ADBEC4"/>
<path fill-rule="evenodd" clip-rule="evenodd" d="M80.6191 0C79.5986 6.9096 73.3452 26.3399 47.5836 35.1535C22.5889 43.7047 6.12314 40.7638 0.000186172 38L0.00017709 20C0.00017709 19.9941 0.000184718 19.9882 0.000184718 19.9823C0.00972057 8.94477 8.96039 6.78666e-06 20.0002 5.7411e-06L80.6191 0Z" fill="#CAD5E0"/>
<path opacity="0.4" fill-rule="evenodd" clip-rule="evenodd" d="M164.308 150H280C291.037 150 299.986 141.059 300 130.025C300 130.017 300 130.008 300 130L300 70C299.231 81.6667 285.969 105 239.077 105C192.185 105 169.692 135 164.308 150Z" fill="white"/>
<path d="M19.4 41V26.6H21.57L26.55 36.8L31.53 26.6H33.7V41H31.45V31.77L27.03 41H26.07L21.66 31.77V41H19.4ZM37.9294 45.8L40.0094 40.09L40.0494 41.77L35.3394 30.2H37.8494L41.1894 38.76H40.5494L43.7994 30.2H46.2094L40.1894 45.8H37.9294ZM57.6447 41.3C56.7114 41.3 55.8347 41.1367 55.0147 40.81C54.2014 40.4767 53.4847 39.99 52.8647 39.35C52.2514 38.71 51.7714 37.9267 51.4247 37C51.078 36.0667 50.9047 35 50.9047 33.8C50.9047 32.2267 51.198 30.8833 51.7847 29.77C52.3714 28.65 53.1747 27.7933 54.1947 27.2C55.2147 26.6 56.3647 26.3 57.6447 26.3C59.418 26.3 60.8214 26.7133 61.8547 27.54C62.8947 28.36 63.598 29.5133 63.9647 31L61.5047 31.39C61.2314 30.5367 60.7847 29.8567 60.1647 29.35C59.5447 28.8367 58.7547 28.58 57.7947 28.58C56.828 28.5667 56.0247 28.7767 55.3847 29.21C54.7447 29.6433 54.2614 30.2533 53.9347 31.04C53.6147 31.8267 53.4547 32.7467 53.4547 33.8C53.4547 34.8533 53.6147 35.77 53.9347 36.55C54.2547 37.3233 54.7347 37.9267 55.3747 38.36C56.0214 38.7933 56.828 39.0167 57.7947 39.03C58.5214 39.0367 59.158 38.9067 59.7047 38.64C60.2514 38.3667 60.698 37.9567 61.0447 37.41C61.3914 36.8567 61.6247 36.1667 61.7447 35.34H59.2047V33.45H64.3047C64.318 33.5567 64.328 33.7133 64.3347 33.92C64.3414 34.1267 64.3447 34.25 64.3447 34.29C64.3447 35.65 64.0747 36.86 63.5347 37.92C63.0014 38.9733 62.2347 39.8 61.2347 40.4C60.2347 41 59.038 41.3 57.6447 41.3ZM71.1231 41.3C70.0431 41.3 69.0998 41.0567 68.2931 40.57C67.4865 40.0833 66.8598 39.4133 66.4131 38.56C65.9731 37.7 65.7531 36.7133 65.7531 35.6C65.7531 34.4667 65.9798 33.4733 66.4331 32.62C66.8865 31.7667 67.5165 31.1 68.3231 30.62C69.1298 30.14 70.0631 29.9 71.1231 29.9C72.2098 29.9 73.1565 30.1433 73.9631 30.63C74.7698 31.1167 75.3965 31.79 75.8431 32.65C76.2898 33.5033 76.5131 34.4867 76.5131 35.6C76.5131 36.72 76.2865 37.71 75.8331 38.57C75.3865 39.4233 74.7598 40.0933 73.9531 40.58C73.1465 41.06 72.2031 41.3 71.1231 41.3ZM71.1231 39.04C72.0831 39.04 72.7965 38.72 73.2631 38.08C73.7298 37.44 73.9631 36.6133 73.9631 35.6C73.9631 34.5533 73.7265 33.72 73.2531 33.1C72.7798 32.4733 72.0698 32.16 71.1231 32.16C70.4765 32.16 69.9431 32.3067 69.5231 32.6C69.1098 32.8867 68.8031 33.29 68.6031 33.81C68.4031 34.3233 68.3031 34.92 68.3031 35.6C68.3031 36.6467 68.5398 37.4833 69.0131 38.11C69.4931 38.73 70.1965 39.04 71.1231 39.04ZM81.7364 41.3C80.9564 41.3 80.2964 41.1533 79.7564 40.86C79.2164 40.56 78.8064 40.1633 78.5264 39.67C78.2531 39.1767 78.1164 38.6333 78.1164 38.04C78.1164 37.52 78.2031 37.0533 78.3764 36.64C78.5497 36.22 78.8164 35.86 79.1764 35.56C79.5364 35.2533 80.0031 35.0033 80.5764 34.81C81.0097 34.67 81.5164 34.5433 82.0964 34.43C82.6831 34.3167 83.3164 34.2133 83.9964 34.12C84.6831 34.02 85.3997 33.9133 86.1464 33.8L85.2864 34.29C85.2931 33.5433 85.1264 32.9933 84.7864 32.64C84.4464 32.2867 83.8731 32.11 83.0664 32.11C82.5797 32.11 82.1097 32.2233 81.6564 32.45C81.2031 32.6767 80.8864 33.0667 80.7064 33.62L78.5064 32.93C78.7731 32.0167 79.2797 31.2833 80.0264 30.73C80.7797 30.1767 81.7931 29.9 83.0664 29.9C84.0264 29.9 84.8697 30.0567 85.5964 30.37C86.3297 30.6833 86.8731 31.1967 87.2264 31.91C87.4197 32.29 87.5364 32.68 87.5764 33.08C87.6164 33.4733 87.6364 33.9033 87.6364 34.37V41H85.5264V38.66L85.8764 39.04C85.3897 39.82 84.8197 40.3933 84.1664 40.76C83.5197 41.12 82.7097 41.3 81.7364 41.3ZM82.2164 39.38C82.7631 39.38 83.2297 39.2833 83.6164 39.09C84.0031 38.8967 84.3097 38.66 84.5364 38.38C84.7697 38.1 84.9264 37.8367 85.0064 37.59C85.1331 37.2833 85.2031 36.9333 85.2164 36.54C85.2364 36.14 85.2464 35.8167 85.2464 35.57L85.9864 35.79C85.2597 35.9033 84.6364 36.0033 84.1164 36.09C83.5964 36.1767 83.1497 36.26 82.7764 36.34C82.4031 36.4133 82.0731 36.4967 81.7864 36.59C81.5064 36.69 81.2697 36.8067 81.0764 36.94C80.8831 37.0733 80.7331 37.2267 80.6264 37.4C80.5264 37.5733 80.4764 37.7767 80.4764 38.01C80.4764 38.2767 80.5431 38.5133 80.6764 38.72C80.8097 38.92 81.0031 39.08 81.2564 39.2C81.5164 39.32 81.8364 39.38 82.2164 39.38ZM90.4398 41V26.3H92.8498V41H90.4398ZM100.015 41.3C98.682 41.3 97.5986 41 96.7653 40.4C95.932 39.8 95.4253 38.9567 95.2453 37.87L97.7053 37.49C97.832 38.0233 98.112 38.4433 98.5453 38.75C98.9786 39.0567 99.5253 39.21 100.185 39.21C100.765 39.21 101.212 39.0967 101.525 38.87C101.845 38.6367 102.005 38.32 102.005 37.92C102.005 37.6733 101.945 37.4767 101.825 37.33C101.712 37.1767 101.459 37.03 101.065 36.89C100.672 36.75 100.069 36.5733 99.2553 36.36C98.3486 36.12 97.6286 35.8633 97.0953 35.59C96.562 35.31 96.1786 34.98 95.9453 34.6C95.712 34.22 95.5953 33.76 95.5953 33.22C95.5953 32.5467 95.772 31.96 96.1253 31.46C96.4786 30.96 96.972 30.5767 97.6053 30.31C98.2386 30.0367 98.9853 29.9 99.8453 29.9C100.685 29.9 101.429 30.03 102.075 30.29C102.729 30.55 103.255 30.92 103.655 31.4C104.055 31.88 104.302 32.4433 104.395 33.09L101.935 33.53C101.875 33.07 101.665 32.7067 101.305 32.44C100.952 32.1733 100.479 32.0233 99.8853 31.99C99.3186 31.9567 98.862 32.0433 98.5153 32.25C98.1686 32.45 97.9953 32.7333 97.9953 33.1C97.9953 33.3067 98.0653 33.4833 98.2053 33.63C98.3453 33.7767 98.6253 33.9233 99.0453 34.07C99.472 34.2167 100.105 34.3967 100.945 34.61C101.805 34.83 102.492 35.0833 103.005 35.37C103.525 35.65 103.899 35.9867 104.125 36.38C104.359 36.7733 104.475 37.25 104.475 37.81C104.475 38.8967 104.079 39.75 103.285 40.37C102.499 40.99 101.409 41.3 100.015 41.3Z" fill="white"/>
<path d="M20.268 51.66V60H18.9V51.66H20.268ZM25.4001 53.28C25.9201 53.28 26.3841 53.388 26.7921 53.604C27.2081 53.82 27.5321 54.14 27.7641 54.564C27.9961 54.988 28.1121 55.5 28.1121 56.1V60H26.7561V56.304C26.7561 55.712 26.6081 55.26 26.3121 54.948C26.0161 54.628 25.6121 54.468 25.1001 54.468C24.5881 54.468 24.1801 54.628 23.8761 54.948C23.5801 55.26 23.4321 55.712 23.4321 56.304V60H22.0641V53.388H23.4321V54.144C23.6561 53.872 23.9401 53.66 24.2841 53.508C24.6361 53.356 25.0081 53.28 25.4001 53.28ZM29.401 56.688C29.401 56.008 29.537 55.412 29.809 54.9C30.089 54.38 30.473 53.98 30.961 53.7C31.449 53.42 32.009 53.28 32.641 53.28C33.441 53.28 34.101 53.472 34.621 53.856C35.149 54.232 35.505 54.772 35.689 55.476H34.213C34.093 55.148 33.901 54.892 33.637 54.708C33.373 54.524 33.041 54.432 32.641 54.432C32.081 54.432 31.633 54.632 31.297 55.032C30.969 55.424 30.805 55.976 30.805 56.688C30.805 57.4 30.969 57.956 31.297 58.356C31.633 58.756 32.081 58.956 32.641 58.956C33.433 58.956 33.957 58.608 34.213 57.912H35.689C35.497 58.584 35.137 59.12 34.609 59.52C34.081 59.912 33.425 60.108 32.641 60.108C32.009 60.108 31.449 59.968 30.961 59.688C30.473 59.4 30.089 59 29.809 58.488C29.537 57.968 29.401 57.368 29.401 56.688ZM38.4203 54.348C38.6203 54.012 38.8843 53.752 39.2123 53.568C39.5483 53.376 39.9443 53.28 40.4003 53.28V54.696H40.0523C39.5163 54.696 39.1083 54.832 38.8283 55.104C38.5563 55.376 38.4203 55.848 38.4203 56.52V60H37.0523V53.388H38.4203V54.348ZM47.7178 56.532C47.7178 56.78 47.7018 57.004 47.6698 57.204H42.6178C42.6578 57.732 42.8538 58.156 43.2058 58.476C43.5578 58.796 43.9898 58.956 44.5018 58.956C45.2378 58.956 45.7578 58.648 46.0618 58.032H47.5378C47.3378 58.64 46.9738 59.14 46.4458 59.532C45.9258 59.916 45.2778 60.108 44.5018 60.108C43.8698 60.108 43.3018 59.968 42.7978 59.688C42.3018 59.4 41.9098 59 41.6218 58.488C41.3418 57.968 41.2018 57.368 41.2018 56.688C41.2018 56.008 41.3378 55.412 41.6098 54.9C41.8898 54.38 42.2778 53.98 42.7738 53.7C43.2778 53.42 43.8538 53.28 44.5018 53.28C45.1258 53.28 45.6818 53.416 46.1698 53.688C46.6578 53.96 47.0378 54.344 47.3098 54.84C47.5818 55.328 47.7178 55.892 47.7178 56.532ZM46.2898 56.1C46.2818 55.596 46.1018 55.192 45.7498 54.888C45.3978 54.584 44.9618 54.432 44.4418 54.432C43.9698 54.432 43.5658 54.584 43.2298 54.888C42.8938 55.184 42.6938 55.588 42.6298 56.1H46.2898ZM48.6081 56.664C48.6081 56 48.7441 55.412 49.0161 54.9C49.2961 54.388 49.6721 53.992 50.1441 53.712C50.6241 53.424 51.1521 53.28 51.7281 53.28C52.2481 53.28 52.7001 53.384 53.0841 53.592C53.4761 53.792 53.7881 54.044 54.0201 54.348V53.388H55.4001V60H54.0201V59.016C53.7881 59.328 53.4721 59.588 53.0721 59.796C52.6721 60.004 52.2161 60.108 51.7041 60.108C51.1361 60.108 50.6161 59.964 50.1441 59.676C49.6721 59.38 49.2961 58.972 49.0161 58.452C48.7441 57.924 48.6081 57.328 48.6081 56.664ZM54.0201 56.688C54.0201 56.232 53.9241 55.836 53.7321 55.5C53.5481 55.164 53.3041 54.908 53.0001 54.732C52.6961 54.556 52.3681 54.468 52.0161 54.468C51.6641 54.468 51.3361 54.556 51.0321 54.732C50.7281 54.9 50.4801 55.152 50.2881 55.488C50.1041 55.816 50.0121 56.208 50.0121 56.664C50.0121 57.12 50.1041 57.52 50.2881 57.864C50.4801 58.208 50.7281 58.472 51.0321 58.656C51.3441 58.832 51.6721 58.92 52.0161 58.92C52.3681 58.92 52.6961 58.832 53.0001 58.656C53.3041 58.48 53.5481 58.224 53.7321 57.888C53.9241 57.544 54.0201 57.144 54.0201 56.688ZM59.5969 60.108C59.0769 60.108 58.6089 60.016 58.1929 59.832C57.7849 59.64 57.4609 59.384 57.2209 59.064C56.9809 58.736 56.8529 58.372 56.8369 57.972H58.2529C58.2769 58.252 58.4089 58.488 58.6489 58.68C58.8969 58.864 59.2049 58.956 59.5729 58.956C59.9569 58.956 60.2529 58.884 60.4609 58.74C60.6769 58.588 60.7849 58.396 60.7849 58.164C60.7849 57.916 60.6649 57.732 60.4249 57.612C60.1929 57.492 59.8209 57.36 59.3089 57.216C58.8129 57.08 58.4089 56.948 58.0969 56.82C57.7849 56.692 57.5129 56.496 57.2809 56.232C57.0569 55.968 56.9449 55.62 56.9449 55.188C56.9449 54.836 57.0489 54.516 57.2569 54.228C57.4649 53.932 57.7609 53.7 58.1449 53.532C58.5369 53.364 58.9849 53.28 59.4889 53.28C60.2409 53.28 60.8449 53.472 61.3009 53.856C61.7649 54.232 62.0129 54.748 62.0449 55.404H60.6769C60.6529 55.108 60.5329 54.872 60.3169 54.696C60.1009 54.52 59.8089 54.432 59.4409 54.432C59.0809 54.432 58.8049 54.5 58.6129 54.636C58.4209 54.772 58.3249 54.952 58.3249 55.176C58.3249 55.352 58.3889 55.5 58.5169 55.62C58.6449 55.74 58.8009 55.836 58.9849 55.908C59.1689 55.972 59.4409 56.056 59.8009 56.16C60.2809 56.288 60.6729 56.42 60.9769 56.556C61.2889 56.684 61.5569 56.876 61.7809 57.132C62.0049 57.388 62.1209 57.728 62.1289 58.152C62.1289 58.528 62.0249 58.864 61.8169 59.16C61.6089 59.456 61.3129 59.688 60.9289 59.856C60.5529 60.024 60.1089 60.108 59.5969 60.108ZM69.667 56.532C69.667 56.78 69.651 57.004 69.619 57.204H64.567C64.607 57.732 64.803 58.156 65.155 58.476C65.507 58.796 65.939 58.956 66.451 58.956C67.187 58.956 67.707 58.648 68.011 58.032H69.487C69.287 58.64 68.923 59.14 68.395 59.532C67.875 59.916 67.227 60.108 66.451 60.108C65.819 60.108 65.251 59.968 64.747 59.688C64.251 59.4 63.859 59 63.571 58.488C63.291 57.968 63.151 57.368 63.151 56.688C63.151 56.008 63.287 55.412 63.559 54.9C63.839 54.38 64.227 53.98 64.723 53.7C65.227 53.42 65.803 53.28 66.451 53.28C67.075 53.28 67.631 53.416 68.119 53.688C68.607 53.96 68.987 54.344 69.259 54.84C69.531 55.328 69.667 55.892 69.667 56.532ZM68.239 56.1C68.231 55.596 68.051 55.192 67.699 54.888C67.347 54.584 66.911 54.432 66.391 54.432C65.919 54.432 65.515 54.584 65.179 54.888C64.843 55.184 64.643 55.588 64.579 56.1H68.239ZM73.4133 60.108C72.8933 60.108 72.4253 60.016 72.0093 59.832C71.6013 59.64 71.2773 59.384 71.0373 59.064C70.7973 58.736 70.6693 58.372 70.6533 57.972H72.0693C72.0933 58.252 72.2253 58.488 72.4653 58.68C72.7133 58.864 73.0213 58.956 73.3893 58.956C73.7733 58.956 74.0693 58.884 74.2773 58.74C74.4933 58.588 74.6013 58.396 74.6013 58.164C74.6013 57.916 74.4813 57.732 74.2413 57.612C74.0093 57.492 73.6373 57.36 73.1253 57.216C72.6293 57.08 72.2253 56.948 71.9133 56.82C71.6013 56.692 71.3293 56.496 71.0973 56.232C70.8733 55.968 70.7613 55.62 70.7613 55.188C70.7613 54.836 70.8653 54.516 71.0733 54.228C71.2813 53.932 71.5773 53.7 71.9613 53.532C72.3533 53.364 72.8013 53.28 73.3053 53.28C74.0573 53.28 74.6613 53.472 75.1173 53.856C75.5813 54.232 75.8293 54.748 75.8613 55.404H74.4933C74.4693 55.108 74.3493 54.872 74.1333 54.696C73.9173 54.52 73.6253 54.432 73.2573 54.432C72.8973 54.432 72.6213 54.5 72.4293 54.636C72.2373 54.772 72.1413 54.952 72.1413 55.176C72.1413 55.352 72.2053 55.5 72.3333 55.62C72.4613 55.74 72.6173 55.836 72.8013 55.908C72.9853 55.972 73.2573 56.056 73.6173 56.16C74.0973 56.288 74.4893 56.42 74.7933 56.556C75.1053 56.684 75.3733 56.876 75.5973 57.132C75.8213 57.388 75.9373 57.728 75.9453 58.152C75.9453 58.528 75.8413 58.864 75.6333 59.16C75.4253 59.456 75.1293 59.688 74.7453 59.856C74.3693 60.024 73.9253 60.108 73.4133 60.108ZM80.0846 56.688C80.0846 56.008 80.2206 55.412 80.4926 54.9C80.7726 54.38 81.1566 53.98 81.6446 53.7C82.1326 53.42 82.6926 53.28 83.3246 53.28C84.1246 53.28 84.7846 53.472 85.3046 53.856C85.8326 54.232 86.1886 54.772 86.3726 55.476H84.8966C84.7766 55.148 84.5846 54.892 84.3206 54.708C84.0566 54.524 83.7246 54.432 83.3246 54.432C82.7646 54.432 82.3166 54.632 81.9806 55.032C81.6526 55.424 81.4886 55.976 81.4886 56.688C81.4886 57.4 81.6526 57.956 81.9806 58.356C82.3166 58.756 82.7646 58.956 83.3246 58.956C84.1166 58.956 84.6406 58.608 84.8966 57.912H86.3726C86.1806 58.584 85.8206 59.12 85.2926 59.52C84.7646 59.912 84.1086 60.108 83.3246 60.108C82.6926 60.108 82.1326 59.968 81.6446 59.688C81.1566 59.4 80.7726 59 80.4926 58.488C80.2206 57.968 80.0846 57.368 80.0846 56.688ZM91.1559 53.28C91.6599 53.28 92.1079 53.388 92.4999 53.604C92.8999 53.82 93.2119 54.14 93.4359 54.564C93.6679 54.988 93.7839 55.5 93.7839 56.1V60H92.4279V56.304C92.4279 55.712 92.2799 55.26 91.9839 54.948C91.6879 54.628 91.2839 54.468 90.7719 54.468C90.2599 54.468 89.8519 54.628 89.5479 54.948C89.2519 55.26 89.1039 55.712 89.1039 56.304V60H87.7359V51.12H89.1039V54.156C89.3359 53.876 89.6279 53.66 89.9799 53.508C90.3399 53.356 90.7319 53.28 91.1559 53.28ZM95.0729 56.664C95.0729 56 95.2089 55.412 95.4809 54.9C95.7609 54.388 96.1369 53.992 96.6089 53.712C97.0889 53.424 97.6169 53.28 98.1929 53.28C98.7129 53.28 99.1649 53.384 99.5489 53.592C99.9409 53.792 100.253 54.044 100.485 54.348V53.388H101.865V60H100.485V59.016C100.253 59.328 99.9369 59.588 99.5369 59.796C99.1369 60.004 98.6809 60.108 98.1689 60.108C97.6009 60.108 97.0809 59.964 96.6089 59.676C96.1369 59.38 95.7609 58.972 95.4809 58.452C95.2089 57.924 95.0729 57.328 95.0729 56.664ZM100.485 56.688C100.485 56.232 100.389 55.836 100.197 55.5C100.013 55.164 99.7689 54.908 99.4649 54.732C99.1609 54.556 98.8329 54.468 98.4809 54.468C98.1289 54.468 97.8009 54.556 97.4969 54.732C97.1929 54.9 96.9449 55.152 96.7529 55.488C96.5689 55.816 96.4769 56.208 96.4769 56.664C96.4769 57.12 96.5689 57.52 96.7529 57.864C96.9449 58.208 97.1929 58.472 97.4969 58.656C97.8089 58.832 98.1369 58.92 98.4809 58.92C98.8329 58.92 99.1609 58.832 99.4649 58.656C99.7689 58.48 100.013 58.224 100.197 57.888C100.389 57.544 100.485 57.144 100.485 56.688ZM106.998 53.28C107.518 53.28 107.982 53.388 108.39 53.604C108.806 53.82 109.13 54.14 109.362 54.564C109.594 54.988 109.71 55.5 109.71 56.1V60H108.354V56.304C108.354 55.712 108.206 55.26 107.91 54.948C107.614 54.628 107.21 54.468 106.698 54.468C106.186 54.468 105.778 54.628 105.474 54.948C105.178 55.26 105.03 55.712 105.03 56.304V60H103.662V53.388H105.03V54.144C105.254 53.872 105.538 53.66 105.882 53.508C106.234 53.356 106.606 53.28 106.998 53.28ZM110.999 56.688C110.999 56.008 111.135 55.412 111.407 54.9C111.687 54.38 112.071 53.98 112.559 53.7C113.047 53.42 113.607 53.28 114.239 53.28C115.039 53.28 115.699 53.472 116.219 53.856C116.747 54.232 117.103 54.772 117.287 55.476H115.811C115.691 55.148 115.499 54.892 115.235 54.708C114.971 54.524 114.639 54.432 114.239 54.432C113.679 54.432 113.231 54.632 112.895 55.032C112.567 55.424 112.403 55.976 112.403 56.688C112.403 57.4 112.567 57.956 112.895 58.356C113.231 58.756 113.679 58.956 114.239 58.956C115.031 58.956 115.555 58.608 115.811 57.912H117.287C117.095 58.584 116.735 59.12 116.207 59.52C115.679 59.912 115.023 60.108 114.239 60.108C113.607 60.108 113.047 59.968 112.559 59.688C112.071 59.4 111.687 59 111.407 58.488C111.135 57.968 110.999 57.368 110.999 56.688ZM124.71 56.532C124.71 56.78 124.694 57.004 124.662 57.204H119.61C119.65 57.732 119.846 58.156 120.198 58.476C120.55 58.796 120.982 58.956 121.494 58.956C122.23 58.956 122.75 58.648 123.054 58.032H124.53C124.33 58.64 123.966 59.14 123.438 59.532C122.918 59.916 122.27 60.108 121.494 60.108C120.862 60.108 120.294 59.968 119.79 59.688C119.294 59.4 118.902 59 118.614 58.488C118.334 57.968 118.194 57.368 118.194 56.688C118.194 56.008 118.33 55.412 118.602 54.9C118.882 54.38 119.27 53.98 119.766 53.7C120.27 53.42 120.846 53.28 121.494 53.28C122.118 53.28 122.674 53.416 123.162 53.688C123.65 53.96 124.03 54.344 124.302 54.84C124.574 55.328 124.71 55.892 124.71 56.532ZM123.282 56.1C123.274 55.596 123.094 55.192 122.742 54.888C122.39 54.584 121.954 54.432 121.434 54.432C120.962 54.432 120.558 54.584 120.222 54.888C119.886 55.184 119.686 55.588 119.622 56.1H123.282ZM132.041 60.108C131.417 60.108 130.853 59.968 130.349 59.688C129.845 59.4 129.449 59 129.161 58.488C128.873 57.968 128.729 57.368 128.729 56.688C128.729 56.016 128.877 55.42 129.173 54.9C129.469 54.38 129.873 53.98 130.385 53.7C130.897 53.42 131.469 53.28 132.101 53.28C132.733 53.28 133.305 53.42 133.817 53.7C134.329 53.98 134.733 54.38 135.029 54.9C135.325 55.42 135.473 56.016 135.473 56.688C135.473 57.36 135.321 57.956 135.017 58.476C134.713 58.996 134.297 59.4 133.769 59.688C133.249 59.968 132.673 60.108 132.041 60.108ZM132.041 58.92C132.393 58.92 132.721 58.836 133.025 58.668C133.337 58.5 133.589 58.248 133.781 57.912C133.973 57.576 134.069 57.168 134.069 56.688C134.069 56.208 133.977 55.804 133.793 55.476C133.609 55.14 133.365 54.888 133.061 54.72C132.757 54.552 132.429 54.468 132.077 54.468C131.725 54.468 131.397 54.552 131.093 54.72C130.797 54.888 130.561 55.14 130.385 55.476C130.209 55.804 130.121 56.208 130.121 56.688C130.121 57.4 130.301 57.952 130.661 58.344C131.029 58.728 131.489 58.92 132.041 58.92ZM139.598 54.504H138.374V60H136.994V54.504H136.214V53.388H136.994V52.92C136.994 52.16 137.194 51.608 137.594 51.264C138.002 50.912 138.638 50.736 139.502 50.736V51.876C139.086 51.876 138.794 51.956 138.626 52.116C138.458 52.268 138.374 52.536 138.374 52.92V53.388H139.598V54.504ZM146.327 60.108C145.807 60.108 145.339 60.016 144.923 59.832C144.515 59.64 144.191 59.384 143.951 59.064C143.711 58.736 143.583 58.372 143.567 57.972H144.983C145.007 58.252 145.139 58.488 145.379 58.68C145.627 58.864 145.935 58.956 146.303 58.956C146.687 58.956 146.983 58.884 147.191 58.74C147.407 58.588 147.515 58.396 147.515 58.164C147.515 57.916 147.395 57.732 147.155 57.612C146.923 57.492 146.551 57.36 146.039 57.216C145.543 57.08 145.139 56.948 144.827 56.82C144.515 56.692 144.243 56.496 144.011 56.232C143.787 55.968 143.675 55.62 143.675 55.188C143.675 54.836 143.779 54.516 143.987 54.228C144.195 53.932 144.491 53.7 144.875 53.532C145.267 53.364 145.715 53.28 146.219 53.28C146.971 53.28 147.575 53.472 148.031 53.856C148.495 54.232 148.743 54.748 148.775 55.404H147.407C147.383 55.108 147.263 54.872 147.047 54.696C146.831 54.52 146.539 54.432 146.171 54.432C145.811 54.432 145.535 54.5 145.343 54.636C145.151 54.772 145.055 54.952 145.055 55.176C145.055 55.352 145.119 55.5 145.247 55.62C145.375 55.74 145.531 55.836 145.715 55.908C145.899 55.972 146.171 56.056 146.531 56.16C147.011 56.288 147.403 56.42 147.707 56.556C148.019 56.684 148.287 56.876 148.511 57.132C148.735 57.388 148.851 57.728 148.859 58.152C148.859 58.528 148.755 58.864 148.547 59.16C148.339 59.456 148.043 59.688 147.659 59.856C147.283 60.024 146.839 60.108 146.327 60.108ZM156.326 53.388V60H154.958V59.22C154.742 59.492 154.458 59.708 154.106 59.868C153.762 60.02 153.394 60.096 153.002 60.096C152.482 60.096 152.014 59.988 151.598 59.772C151.19 59.556 150.866 59.236 150.626 58.812C150.394 58.388 150.278 57.876 150.278 57.276V53.388H151.634V57.072C151.634 57.664 151.782 58.12 152.078 58.44C152.374 58.752 152.778 58.908 153.29 58.908C153.802 58.908 154.206 58.752 154.502 58.44C154.806 58.12 154.958 57.664 154.958 57.072V53.388H156.326ZM157.674 56.688C157.674 56.008 157.81 55.412 158.082 54.9C158.362 54.38 158.746 53.98 159.234 53.7C159.722 53.42 160.282 53.28 160.914 53.28C161.714 53.28 162.374 53.472 162.894 53.856C163.422 54.232 163.778 54.772 163.962 55.476H162.486C162.366 55.148 162.174 54.892 161.91 54.708C161.646 54.524 161.314 54.432 160.914 54.432C160.354 54.432 159.906 54.632 159.57 55.032C159.242 55.424 159.078 55.976 159.078 56.688C159.078 57.4 159.242 57.956 159.57 58.356C159.906 58.756 160.354 58.956 160.914 58.956C161.706 58.956 162.23 58.608 162.486 57.912H163.962C163.77 58.584 163.41 59.12 162.882 59.52C162.354 59.912 161.698 60.108 160.914 60.108C160.282 60.108 159.722 59.968 159.234 59.688C158.746 59.4 158.362 59 158.082 58.488C157.81 57.968 157.674 57.368 157.674 56.688ZM164.87 56.688C164.87 56.008 165.006 55.412 165.278 54.9C165.558 54.38 165.942 53.98 166.43 53.7C166.918 53.42 167.478 53.28 168.11 53.28C168.91 53.28 169.57 53.472 170.09 53.856C170.618 54.232 170.974 54.772 171.158 55.476H169.682C169.562 55.148 169.37 54.892 169.106 54.708C168.842 54.524 168.51 54.432 168.11 54.432C167.55 54.432 167.102 54.632 166.766 55.032C166.438 55.424 166.274 55.976 166.274 56.688C166.274 57.4 166.438 57.956 166.766 58.356C167.102 58.756 167.55 58.956 168.11 58.956C168.902 58.956 169.426 58.608 169.682 57.912H171.158C170.966 58.584 170.606 59.12 170.078 59.52C169.55 59.912 168.894 60.108 168.11 60.108C167.478 60.108 166.918 59.968 166.43 59.688C165.942 59.4 165.558 59 165.278 58.488C165.006 57.968 164.87 57.368 164.87 56.688ZM178.581 56.532C178.581 56.78 178.565 57.004 178.533 57.204H173.481C173.521 57.732 173.717 58.156 174.069 58.476C174.421 58.796 174.853 58.956 175.365 58.956C176.101 58.956 176.621 58.648 176.925 58.032H178.401C178.201 58.64 177.837 59.14 177.309 59.532C176.789 59.916 176.141 60.108 175.365 60.108C174.733 60.108 174.165 59.968 173.661 59.688C173.165 59.4 172.773 59 172.485 58.488C172.205 57.968 172.065 57.368 172.065 56.688C172.065 56.008 172.201 55.412 172.473 54.9C172.753 54.38 173.141 53.98 173.637 53.7C174.141 53.42 174.717 53.28 175.365 53.28C175.989 53.28 176.545 53.416 177.033 53.688C177.521 53.96 177.901 54.344 178.173 54.84C178.445 55.328 178.581 55.892 178.581 56.532ZM177.153 56.1C177.145 55.596 176.965 55.192 176.613 54.888C176.261 54.584 175.825 54.432 175.305 54.432C174.833 54.432 174.429 54.584 174.093 54.888C173.757 55.184 173.557 55.588 173.493 56.1H177.153ZM182.327 60.108C181.807 60.108 181.339 60.016 180.923 59.832C180.515 59.64 180.191 59.384 179.951 59.064C179.711 58.736 179.583 58.372 179.567 57.972H180.983C181.007 58.252 181.139 58.488 181.379 58.68C181.627 58.864 181.935 58.956 182.303 58.956C182.687 58.956 182.983 58.884 183.191 58.74C183.407 58.588 183.515 58.396 183.515 58.164C183.515 57.916 183.395 57.732 183.155 57.612C182.923 57.492 182.551 57.36 182.039 57.216C181.543 57.08 181.139 56.948 180.827 56.82C180.515 56.692 180.243 56.496 180.011 56.232C179.787 55.968 179.675 55.62 179.675 55.188C179.675 54.836 179.779 54.516 179.987 54.228C180.195 53.932 180.491 53.7 180.875 53.532C181.267 53.364 181.715 53.28 182.219 53.28C182.971 53.28 183.575 53.472 184.031 53.856C184.495 54.232 184.743 54.748 184.775 55.404H183.407C183.383 55.108 183.263 54.872 183.047 54.696C182.831 54.52 182.539 54.432 182.171 54.432C181.811 54.432 181.535 54.5 181.343 54.636C181.151 54.772 181.055 54.952 181.055 55.176C181.055 55.352 181.119 55.5 181.247 55.62C181.375 55.74 181.531 55.836 181.715 55.908C181.899 55.972 182.171 56.056 182.531 56.16C183.011 56.288 183.403 56.42 183.707 56.556C184.019 56.684 184.287 56.876 184.511 57.132C184.735 57.388 184.851 57.728 184.859 58.152C184.859 58.528 184.755 58.864 184.547 59.16C184.339 59.456 184.043 59.688 183.659 59.856C183.283 60.024 182.839 60.108 182.327 60.108ZM188.738 60.108C188.218 60.108 187.75 60.016 187.334 59.832C186.926 59.64 186.602 59.384 186.362 59.064C186.122 58.736 185.994 58.372 185.978 57.972H187.394C187.418 58.252 187.55 58.488 187.79 58.68C188.038 58.864 188.346 58.956 188.714 58.956C189.098 58.956 189.394 58.884 189.602 58.74C189.818 58.588 189.926 58.396 189.926 58.164C189.926 57.916 189.806 57.732 189.566 57.612C189.334 57.492 188.962 57.36 188.45 57.216C187.954 57.08 187.55 56.948 187.238 56.82C186.926 56.692 186.654 56.496 186.422 56.232C186.198 55.968 186.086 55.62 186.086 55.188C186.086 54.836 186.19 54.516 186.398 54.228C186.606 53.932 186.902 53.7 187.286 53.532C187.678 53.364 188.126 53.28 188.63 53.28C189.382 53.28 189.986 53.472 190.442 53.856C190.906 54.232 191.154 54.748 191.186 55.404H189.818C189.794 55.108 189.674 54.872 189.458 54.696C189.242 54.52 188.95 54.432 188.582 54.432C188.222 54.432 187.946 54.5 187.754 54.636C187.562 54.772 187.466 54.952 187.466 55.176C187.466 55.352 187.53 55.5 187.658 55.62C187.786 55.74 187.942 55.836 188.126 55.908C188.31 55.972 188.582 56.056 188.942 56.16C189.422 56.288 189.814 56.42 190.118 56.556C190.43 56.684 190.698 56.876 190.922 57.132C191.146 57.388 191.262 57.728 191.27 58.152C191.27 58.528 191.166 58.864 190.958 59.16C190.75 59.456 190.454 59.688 190.07 59.856C189.694 60.024 189.25 60.108 188.738 60.108Z" fill="white"/>
<path d="M207.135 108.112H188.627C188.169 108.112 187.798 107.741 187.798 107.283V105.536C187.798 105.078 188.169 104.707 188.627 104.707H207.135C207.593 104.707 207.964 105.078 207.964 105.536V107.283C207.963 107.741 207.592 108.112 207.135 108.112Z" stroke="#DEE5F8" stroke-width="5" stroke-miterlimit="10"/>
<path d="M218.162 108.076H210.628C210.055 108.076 209.591 107.612 209.591 107.039V105.709C209.591 105.135 210.055 104.671 210.628 104.671H218.162C218.735 104.671 219.199 105.135 219.199 105.709V107.039C219.199 107.612 218.735 108.076 218.162 108.076Z" stroke="#DEE5F8" stroke-width="3.75" stroke-miterlimit="10"/>
<path d="M213.561 62.0957H206.027C205.454 62.0957 204.99 61.6312 204.99 61.0581V59.7281C204.99 59.1549 205.454 58.6904 206.027 58.6904H213.561C214.134 58.6904 214.598 59.1549 214.598 59.7281V61.0581C214.598 61.6312 214.133 62.0957 213.561 62.0957Z" stroke="#DEE5F8" stroke-width="5" stroke-miterlimit="10"/>
<path d="M224.926 62.0957H217.392C216.819 62.0957 216.355 61.6312 216.355 61.0581V59.7281C216.355 59.1549 216.819 58.6904 217.392 58.6904H224.926C225.499 58.6904 225.963 59.1549 225.963 59.7281V61.0581C225.963 61.6312 225.499 62.0957 224.926 62.0957Z" stroke="#DEE5F8" stroke-width="5" stroke-miterlimit="10"/>
<path d="M253.788 92.7217H246.255C245.681 92.7217 245.217 92.2572 245.217 91.6841V90.354C245.217 89.7809 245.681 89.3164 246.255 89.3164H253.788C254.361 89.3164 254.825 89.7809 254.825 90.354V91.6841C254.825 92.2572 254.361 92.7217 253.788 92.7217Z" stroke="#DEE5F8" stroke-width="5" stroke-miterlimit="10"/>
<path d="M289.857 46.9033V47.8841C290.187 47.8841 290.557 47.9735 290.805 48.6369C291.076 49.3654 291.09 50.5141 290.841 51.8734C290.561 53.4031 289.959 55.1685 289.1 56.9772C287.329 60.7067 284.577 64.4311 281.247 67.6301L280.754 56.7333L283.661 52.708H286.112C287.045 52.708 287.803 51.9495 287.803 51.0171V48.7221C287.817 48.6995 287.878 48.621 288.066 48.5116C288.958 47.9936 289.533 47.885 289.858 47.885L289.857 46.9033ZM289.856 46.9033C289.228 46.9033 288.466 47.1431 287.571 47.6627C287.161 47.9008 286.82 48.2367 286.82 48.7104V51.0163C286.82 51.4081 286.502 51.7264 286.11 51.7264H283.157L279.756 56.4358L280.36 69.7672C291.784 59.8537 294.47 46.9033 289.856 46.9033Z" fill="#FBC343"/>
<path d="M254.701 46.9033V47.8841C255.027 47.8841 255.601 47.9928 256.493 48.5107C256.68 48.6193 256.741 48.6987 256.756 48.7213V51.0163C256.756 51.9486 257.515 52.7072 258.447 52.7072H260.897L263.805 56.7324L263.311 67.6293C259.982 64.4303 257.23 60.7058 255.459 56.9764C254.6 55.1676 253.997 53.4023 253.717 51.8726C253.468 50.5141 253.481 49.3646 253.753 48.6361C254.001 47.9727 254.372 47.8833 254.702 47.8833V46.9033M254.701 46.9033C250.087 46.9033 252.773 59.8537 264.196 69.7663L264.8 56.435L261.399 51.7256H258.446C258.054 51.7256 257.736 51.4072 257.736 51.0154V48.7096C257.736 48.2359 257.395 47.9 256.985 47.6619C256.091 47.1431 255.328 46.9033 254.701 46.9033Z" fill="#FBC343"/>
<path d="M281.893 93.4229H262.664V103.402H281.893V93.4229Z" fill="#6F3428"/>
<path d="M278.95 93.4234H265.608V90.1677C265.608 88.7132 266.786 87.5352 268.24 87.5352H276.317C277.771 87.5352 278.949 88.714 278.949 90.1677V93.4234H278.95Z" fill="#FBC343"/>
<path d="M276.432 87.5341H268.126V85.5073C268.126 84.6017 268.859 83.8682 269.765 83.8682H274.793C275.698 83.8682 276.432 84.6017 276.432 85.5073V87.5341Z" fill="#FBC343"/>
<path d="M274.595 82.8429L274.854 83.868H269.704L269.96 82.8429C270.303 81.4811 270.303 80.1084 269.96 78.7466L269.704 77.7207H274.854L274.595 78.7466C274.483 79.1953 274.407 79.6448 274.37 80.0959C274.29 81.0132 274.366 81.9306 274.595 82.8429Z" fill="#FBC343"/>
<path opacity="0.3" d="M274.854 77.7217L274.595 78.7476C274.483 79.1963 274.407 79.6457 274.37 80.0969C274.088 78.2204 269.704 77.7225 269.704 77.7225H274.854V77.7217Z" fill="#6F3428"/>
<path d="M276.432 74.0566V76.0826C276.432 76.2497 276.407 76.4101 276.361 76.563C276.156 77.233 275.531 77.7218 274.792 77.7218H269.764C268.86 77.7218 268.125 76.9891 268.125 76.0826V74.0566H276.432Z" fill="#FBC343"/>
<path opacity="0.3" d="M276.432 74.0566V76.0826C276.432 76.2497 276.407 76.4101 276.361 76.563C274.143 74.5245 268.509 74.4643 268.125 74.4618V74.0566H276.432Z" fill="#6F3428"/>
<path d="M285.178 49.5732L282.797 59.9704L280.155 71.5097C279.76 73.2374 278.223 74.4613 276.452 74.4613H268.103C266.339 74.4613 264.807 73.2457 264.404 71.5272C264.402 71.5205 264.402 71.5172 264.4 71.5105L259.377 49.574C259.274 49.127 259.558 48.6801 260.009 48.5923C268.188 46.9757 276.367 46.9757 284.545 48.5923C284.997 48.6792 285.281 49.1254 285.178 49.5732Z" fill="#FBC343"/>
<path opacity="0.6" d="M266.806 55.8367C266.989 57.3347 266.689 58.6037 266.137 58.6714C265.585 58.7391 264.99 57.5786 264.807 56.0807C264.624 54.5827 264.924 53.3137 265.476 53.246C266.028 53.1783 266.623 54.3388 266.806 55.8367Z" fill="white"/>
<path opacity="0.1" d="M282.798 59.9697L280.155 71.509C279.761 73.2367 278.224 74.4607 276.453 74.4607H268.104C266.34 74.4607 264.808 73.2451 264.405 71.5266C273.58 70.9476 279.683 65.1312 282.798 59.9697Z" fill="#6F3428"/>
<g opacity="0.3">
<path d="M269.704 83.8676C270.126 83.7614 270.554 83.6988 270.985 83.6537C271.415 83.6069 271.847 83.5877 272.279 83.5802C273.142 83.5776 274.016 83.6361 274.854 83.8676C274.419 83.8792 273.992 83.8784 273.564 83.8809L272.281 83.8934C271.426 83.8976 270.571 83.911 269.704 83.8676Z" fill="#6F3428"/>
</g>
<g opacity="0.3">
<path d="M268.125 87.5337C269.503 87.3466 270.89 87.2747 272.277 87.2522C272.971 87.2455 273.666 87.253 274.36 87.2906C275.053 87.3257 275.75 87.39 276.431 87.5346C275.737 87.5112 275.046 87.5296 274.355 87.5354L272.281 87.5655C270.899 87.578 269.515 87.593 268.125 87.5337Z" fill="#6F3428"/>
</g>
<path d="M268.545 32.9985L269.405 39.1876C269.455 39.546 268.974 39.7114 268.792 39.3981L265.668 33.9869C265.477 33.6552 265.636 33.2316 265.999 33.1071L267.743 32.5081C268.106 32.3836 268.492 32.6192 268.545 32.9985Z" fill="#FBC343"/>
<path d="M277.184 29.2936L273.802 39.9181C273.605 40.5338 272.705 40.4293 272.655 39.7852L271.792 28.6687C271.74 27.9869 272.323 27.4289 273.002 27.5074L276.271 27.8859C276.951 27.9652 277.391 28.6419 277.184 29.2936Z" fill="#FBC343"/>
<path d="M281.132 35.8023L277.098 39.6496C276.864 39.8727 276.494 39.6103 276.627 39.3162L278.918 34.2342C279.059 33.9226 279.449 33.8181 279.728 34.0153L281.07 34.9669C281.349 35.1632 281.38 35.5659 281.132 35.8023Z" fill="#FBC343"/>
<path d="M284.515 103.677V112.546L187.213 149.604H164.359V141.074H187.008L187.033 136.374L187.061 131.662H209.812V122.254H232.461V113.08H255.113V103.669L284.515 103.677Z" fill="white"/>
<path d="M232.216 122.498H209.878C209.628 122.498 209.424 122.293 209.424 122.043C209.424 121.794 209.628 121.589 209.878 121.589H232.216C232.466 121.589 232.671 121.794 232.671 122.043C232.671 122.293 232.466 122.498 232.216 122.498Z" fill="#ACBFEE"/>
<path d="M254.913 113.446H232.575C232.325 113.446 232.12 113.241 232.12 112.992C232.12 112.742 232.325 112.537 232.575 112.537H254.913C255.163 112.537 255.368 112.742 255.368 112.992C255.368 113.241 255.163 113.446 254.913 113.446Z" fill="#ACBFEE"/>
<path d="M284.529 103.915H255.071C254.822 103.915 254.617 103.71 254.617 103.46C254.617 103.211 254.822 103.006 255.071 103.006H284.529C284.779 103.006 284.984 103.211 284.984 103.46C284.984 103.71 284.779 103.915 284.529 103.915Z" fill="#ACBFEE"/>
<path d="M209.548 131.854H187.21C186.96 131.854 186.755 131.65 186.755 131.4C186.755 131.15 186.96 130.945 187.21 130.945H209.548C209.798 130.945 210.003 131.15 210.003 131.4C210.003 131.65 209.798 131.854 209.548 131.854Z" fill="#ACBFEE"/>
<path d="M186.793 141.263H164.454C164.205 141.263 164 141.059 164 140.809C164 140.559 164.205 140.354 164.454 140.354H186.793C187.043 140.354 187.247 140.559 187.247 140.809C187.247 141.059 187.043 141.263 186.793 141.263Z" fill="#ACBFEE"/>
<path d="M211.736 91.2559L211.612 89.8515L213.851 89.6535C225.478 88.6251 235.258 80.7676 238.767 69.6352L241.632 60.5488L242.976 60.9724L240.112 70.0588C236.43 81.7359 226.17 89.9777 213.975 91.0571L211.736 91.2559Z" fill="#DEE5F8"/>
<path d="M242.341 69.1694L241.728 62.4807L237.182 67.7491L236.115 66.8284L242.829 59.0479L243.744 69.0407L242.341 69.1694Z" fill="#DEE5F8"/>
<path d="M190.214 42.4998C190.214 42.7404 190.124 42.9718 189.953 43.189H164.414C164.316 42.9718 164.264 42.7404 164.264 42.4998C164.264 41.2182 165.753 40.1797 167.59 40.1797C168.172 40.1797 168.72 40.285 169.195 40.4688C169.446 38.6492 171.939 37.2197 174.979 37.2197C178.148 37.2197 180.722 38.772 180.784 40.6994C181.778 40.3761 183.048 40.1797 184.431 40.1797C187.625 40.1797 190.214 41.2182 190.214 42.4998Z" fill="#DEE5F8"/>
<path d="M234.729 25.3202C234.729 25.6076 234.62 25.885 234.417 26.1448H203.849C203.732 25.885 203.671 25.6076 203.671 25.3202C203.671 23.7863 205.453 22.5432 207.651 22.5432C208.348 22.5432 209.003 22.6685 209.572 22.889C209.872 20.711 212.857 19 216.495 19C220.288 19 223.369 20.8572 223.443 23.1647C224.633 22.7771 226.153 22.5432 227.808 22.5432C231.63 22.5432 234.729 23.7863 234.729 25.3202Z" fill="#DEE5F8"/>
</svg>
