<svg width="300" height="152" viewBox="0 0 300 152" fill="none" xmlns="http://www.w3.org/2000/svg">
<rect width="300" height="150" rx="20" fill="#FFD143"/>
<path opacity="0.5" fill-rule="evenodd" clip-rule="evenodd" d="M80.6189 0C79.5984 6.9096 73.345 26.3399 47.5833 35.1535C22.5887 43.7047 6.1229 40.7638 -5.79686e-05 38L-6.70506e-05 20C-6.70511e-05 19.9941 -5.94221e-05 19.9882 -5.94226e-05 19.9823C0.00947643 8.94477 8.96014 6.78666e-06 20 5.7411e-06L80.6189 0Z" fill="#FFC000"/>
<path opacity="0.5" fill-rule="evenodd" clip-rule="evenodd" d="M164.308 150H280C291.037 150 299.986 141.059 300 130.025C300 130.017 300 130.008 300 130L300 70C299.231 81.6667 285.969 105 239.077 105C192.185 105 169.692 135 164.308 150Z" fill="#FFC000"/>
<path d="M19.4 41V26.6H21.57L26.55 36.8L31.53 26.6H33.7V41H31.45V31.77L27.03 41H26.07L21.66 31.77V41H19.4ZM37.9294 45.8L40.0094 40.09L40.0494 41.77L35.3394 30.2H37.8494L41.1894 38.76H40.5494L43.7994 30.2H46.2094L40.1894 45.8H37.9294ZM57.7947 41.3C56.3547 41.3 55.1214 40.9867 54.0947 40.36C53.068 39.7267 52.278 38.8467 51.7247 37.72C51.178 36.5933 50.9047 35.2867 50.9047 33.8C50.9047 32.3133 51.178 31.0067 51.7247 29.88C52.278 28.7533 53.068 27.8767 54.0947 27.25C55.1214 26.6167 56.3547 26.3 57.7947 26.3C59.4547 26.3 60.838 26.7167 61.9447 27.55C63.0514 28.3767 63.828 29.4933 64.2747 30.9L61.8447 31.57C61.5647 30.63 61.088 29.8967 60.4147 29.37C59.7414 28.8367 58.868 28.57 57.7947 28.57C56.828 28.57 56.0214 28.7867 55.3747 29.22C54.7347 29.6533 54.2514 30.2633 53.9247 31.05C53.6047 31.83 53.4414 32.7467 53.4347 33.8C53.4347 34.8533 53.5947 35.7733 53.9147 36.56C54.2414 37.34 54.728 37.9467 55.3747 38.38C56.0214 38.8133 56.828 39.03 57.7947 39.03C58.868 39.03 59.7414 38.7633 60.4147 38.23C61.088 37.6967 61.5647 36.9633 61.8447 36.03L64.2747 36.7C63.828 38.1067 63.0514 39.2267 61.9447 40.06C60.838 40.8867 59.4547 41.3 57.7947 41.3ZM69.3197 41L64.7797 26.6H67.2597L71.0597 38.66L74.9097 26.6H77.3897L72.8497 41H69.3197Z" fill="white"/>
<path d="M21.624 51.66C22.512 51.66 23.288 51.832 23.952 52.176C24.624 52.512 25.14 53 25.5 53.64C25.868 54.272 26.052 55.012 26.052 55.86C26.052 56.708 25.868 57.444 25.5 58.068C25.14 58.692 24.624 59.172 23.952 59.508C23.288 59.836 22.512 60 21.624 60H18.9V51.66H21.624ZM21.624 58.884C22.6 58.884 23.348 58.62 23.868 58.092C24.388 57.564 24.648 56.82 24.648 55.86C24.648 54.892 24.388 54.136 23.868 53.592C23.348 53.048 22.6 52.776 21.624 52.776H20.268V58.884H21.624ZM28.1038 52.512C27.8558 52.512 27.6478 52.428 27.4798 52.26C27.3118 52.092 27.2278 51.884 27.2278 51.636C27.2278 51.388 27.3118 51.18 27.4798 51.012C27.6478 50.844 27.8558 50.76 28.1038 50.76C28.3438 50.76 28.5478 50.844 28.7158 51.012C28.8838 51.18 28.9678 51.388 28.9678 51.636C28.9678 51.884 28.8838 52.092 28.7158 52.26C28.5478 52.428 28.3438 52.512 28.1038 52.512ZM28.7758 53.388V60H27.4078V53.388H28.7758ZM33.3439 54.504H32.1199V60H30.7399V54.504H29.9599V53.388H30.7399V52.92C30.7399 52.16 30.9399 51.608 31.3399 51.264C31.7479 50.912 32.3839 50.736 33.2479 50.736V51.876C32.8319 51.876 32.5399 51.956 32.3719 52.116C32.2039 52.268 32.1199 52.536 32.1199 52.92V53.388H33.3439V54.504ZM37.3283 54.504H36.1043V60H34.7243V54.504H33.9443V53.388H34.7243V52.92C34.7243 52.16 34.9243 51.608 35.3243 51.264C35.7323 50.912 36.3683 50.736 37.2323 50.736V51.876C36.8163 51.876 36.5243 51.956 36.3563 52.116C36.1883 52.268 36.1043 52.536 36.1043 52.92V53.388H37.3283V54.504ZM44.6006 56.532C44.6006 56.78 44.5846 57.004 44.5526 57.204H39.5006C39.5406 57.732 39.7366 58.156 40.0886 58.476C40.4406 58.796 40.8726 58.956 41.3846 58.956C42.1206 58.956 42.6406 58.648 42.9446 58.032H44.4206C44.2206 58.64 43.8566 59.14 43.3286 59.532C42.8086 59.916 42.1606 60.108 41.3846 60.108C40.7526 60.108 40.1846 59.968 39.6806 59.688C39.1846 59.4 38.7926 59 38.5046 58.488C38.2246 57.968 38.0846 57.368 38.0846 56.688C38.0846 56.008 38.2206 55.412 38.4926 54.9C38.7726 54.38 39.1606 53.98 39.6566 53.7C40.1606 53.42 40.7366 53.28 41.3846 53.28C42.0086 53.28 42.5646 53.416 43.0526 53.688C43.5406 53.96 43.9206 54.344 44.1926 54.84C44.4646 55.328 44.6006 55.892 44.6006 56.532ZM43.1726 56.1C43.1646 55.596 42.9846 55.192 42.6326 54.888C42.2806 54.584 41.8446 54.432 41.3246 54.432C40.8526 54.432 40.4486 54.584 40.1126 54.888C39.7766 55.184 39.5766 55.588 39.5126 56.1H43.1726ZM47.3149 54.348C47.5149 54.012 47.7789 53.752 48.1069 53.568C48.4429 53.376 48.8389 53.28 49.2949 53.28V54.696H48.9469C48.4109 54.696 48.0029 54.832 47.7229 55.104C47.4509 55.376 47.3149 55.848 47.3149 56.52V60H45.9469V53.388H47.3149V54.348ZM56.6123 56.532C56.6123 56.78 56.5963 57.004 56.5643 57.204H51.5123C51.5523 57.732 51.7483 58.156 52.1003 58.476C52.4523 58.796 52.8843 58.956 53.3963 58.956C54.1323 58.956 54.6523 58.648 54.9563 58.032H56.4323C56.2323 58.64 55.8683 59.14 55.3403 59.532C54.8203 59.916 54.1723 60.108 53.3963 60.108C52.7643 60.108 52.1963 59.968 51.6923 59.688C51.1963 59.4 50.8043 59 50.5163 58.488C50.2363 57.968 50.0963 57.368 50.0963 56.688C50.0963 56.008 50.2323 55.412 50.5043 54.9C50.7843 54.38 51.1723 53.98 51.6683 53.7C52.1723 53.42 52.7483 53.28 53.3963 53.28C54.0203 53.28 54.5763 53.416 55.0643 53.688C55.5523 53.96 55.9323 54.344 56.2043 54.84C56.4763 55.328 56.6123 55.892 56.6123 56.532ZM55.1843 56.1C55.1763 55.596 54.9963 55.192 54.6443 54.888C54.2923 54.584 53.8563 54.432 53.3363 54.432C52.8643 54.432 52.4603 54.584 52.1243 54.888C51.7883 55.184 51.5883 55.588 51.5243 56.1H55.1843ZM61.2946 53.28C61.8146 53.28 62.2786 53.388 62.6866 53.604C63.1026 53.82 63.4266 54.14 63.6586 54.564C63.8906 54.988 64.0066 55.5 64.0066 56.1V60H62.6506V56.304C62.6506 55.712 62.5026 55.26 62.2066 54.948C61.9106 54.628 61.5066 54.468 60.9946 54.468C60.4826 54.468 60.0746 54.628 59.7706 54.948C59.4746 55.26 59.3266 55.712 59.3266 56.304V60H57.9586V53.388H59.3266V54.144C59.5506 53.872 59.8346 53.66 60.1786 53.508C60.5306 53.356 60.9026 53.28 61.2946 53.28ZM67.3476 54.504V58.164C67.3476 58.412 67.4036 58.592 67.5156 58.704C67.6356 58.808 67.8356 58.86 68.1156 58.86H68.9556V60H67.8756C67.2596 60 66.7876 59.856 66.4596 59.568C66.1316 59.28 65.9676 58.812 65.9676 58.164V54.504H65.1876V53.388H65.9676V51.744H67.3476V53.388H68.9556V54.504H67.3476ZM74.9296 54.504V58.164C74.9296 58.412 74.9856 58.592 75.0976 58.704C75.2176 58.808 75.4176 58.86 75.6976 58.86H76.5376V60H75.4576C74.8416 60 74.3696 59.856 74.0416 59.568C73.7136 59.28 73.5496 58.812 73.5496 58.164V54.504H72.7696V53.388H73.5496V51.744H74.9296V53.388H76.5376V54.504H74.9296ZM83.8584 56.532C83.8584 56.78 83.8424 57.004 83.8104 57.204H78.7584C78.7984 57.732 78.9944 58.156 79.3464 58.476C79.6984 58.796 80.1304 58.956 80.6424 58.956C81.3784 58.956 81.8984 58.648 82.2024 58.032H83.6784C83.4784 58.64 83.1144 59.14 82.5864 59.532C82.0664 59.916 81.4184 60.108 80.6424 60.108C80.0104 60.108 79.4424 59.968 78.9384 59.688C78.4424 59.4 78.0504 59 77.7624 58.488C77.4824 57.968 77.3424 57.368 77.3424 56.688C77.3424 56.008 77.4784 55.412 77.7504 54.9C78.0304 54.38 78.4184 53.98 78.9144 53.7C79.4184 53.42 79.9944 53.28 80.6424 53.28C81.2664 53.28 81.8224 53.416 82.3104 53.688C82.7984 53.96 83.1784 54.344 83.4504 54.84C83.7224 55.328 83.8584 55.892 83.8584 56.532ZM82.4304 56.1C82.4224 55.596 82.2424 55.192 81.8904 54.888C81.5384 54.584 81.1024 54.432 80.5824 54.432C80.1104 54.432 79.7064 54.584 79.3704 54.888C79.0344 55.184 78.8344 55.588 78.7704 56.1H82.4304ZM88.0367 56.652L90.1727 60H88.6247L87.1967 57.756L85.8527 60H84.4247L86.5607 56.748L84.4247 53.388H85.9727L87.4007 55.632L88.7447 53.388H90.1727L88.0367 56.652ZM92.789 54.504V58.164C92.789 58.412 92.845 58.592 92.957 58.704C93.077 58.808 93.277 58.86 93.557 58.86H94.397V60H93.317C92.701 60 92.229 59.856 91.901 59.568C91.573 59.28 91.409 58.812 91.409 58.164V54.504H90.629V53.388H91.409V51.744H92.789V53.388H94.397V54.504H92.789ZM101.547 54.504H100.323V60H98.943V54.504H98.163V53.388H98.943V52.92C98.943 52.16 99.143 51.608 99.543 51.264C99.951 50.912 100.587 50.736 101.451 50.736V51.876C101.035 51.876 100.743 51.956 100.575 52.116C100.407 52.268 100.323 52.536 100.323 52.92V53.388H101.547V54.504ZM105.627 60.108C105.003 60.108 104.439 59.968 103.935 59.688C103.431 59.4 103.035 59 102.747 58.488C102.459 57.968 102.315 57.368 102.315 56.688C102.315 56.016 102.463 55.42 102.759 54.9C103.055 54.38 103.459 53.98 103.971 53.7C104.483 53.42 105.055 53.28 105.687 53.28C106.319 53.28 106.891 53.42 107.403 53.7C107.915 53.98 108.319 54.38 108.615 54.9C108.911 55.42 109.059 56.016 109.059 56.688C109.059 57.36 108.907 57.956 108.603 58.476C108.299 58.996 107.883 59.4 107.355 59.688C106.835 59.968 106.259 60.108 105.627 60.108ZM105.627 58.92C105.979 58.92 106.307 58.836 106.611 58.668C106.923 58.5 107.175 58.248 107.367 57.912C107.559 57.576 107.655 57.168 107.655 56.688C107.655 56.208 107.563 55.804 107.379 55.476C107.195 55.14 106.951 54.888 106.647 54.72C106.343 54.552 106.015 54.468 105.663 54.468C105.311 54.468 104.983 54.552 104.679 54.72C104.383 54.888 104.147 55.14 103.971 55.476C103.795 55.804 103.707 56.208 103.707 56.688C103.707 57.4 103.887 57.952 104.247 58.344C104.615 58.728 105.075 58.92 105.627 58.92ZM111.78 54.348C111.98 54.012 112.244 53.752 112.572 53.568C112.908 53.376 113.304 53.28 113.76 53.28V54.696H113.412C112.876 54.696 112.468 54.832 112.188 55.104C111.916 55.376 111.78 55.848 111.78 56.52V60H110.412V53.388H111.78V54.348ZM123.021 53.28C123.541 53.28 124.005 53.388 124.413 53.604C124.829 53.82 125.153 54.14 125.385 54.564C125.625 54.988 125.745 55.5 125.745 56.1V60H124.389V56.304C124.389 55.712 124.241 55.26 123.945 54.948C123.649 54.628 123.245 54.468 122.733 54.468C122.221 54.468 121.813 54.628 121.509 54.948C121.213 55.26 121.065 55.712 121.065 56.304V60H119.709V56.304C119.709 55.712 119.561 55.26 119.265 54.948C118.969 54.628 118.565 54.468 118.053 54.468C117.541 54.468 117.133 54.628 116.829 54.948C116.533 55.26 116.385 55.712 116.385 56.304V60H115.017V53.388H116.385V54.144C116.609 53.872 116.893 53.66 117.237 53.508C117.581 53.356 117.949 53.28 118.341 53.28C118.869 53.28 119.341 53.392 119.757 53.616C120.173 53.84 120.493 54.164 120.717 54.588C120.917 54.188 121.229 53.872 121.653 53.64C122.077 53.4 122.533 53.28 123.021 53.28ZM127.03 56.664C127.03 56 127.166 55.412 127.438 54.9C127.718 54.388 128.094 53.992 128.566 53.712C129.046 53.424 129.574 53.28 130.15 53.28C130.67 53.28 131.122 53.384 131.506 53.592C131.898 53.792 132.21 54.044 132.442 54.348V53.388H133.822V60H132.442V59.016C132.21 59.328 131.894 59.588 131.494 59.796C131.094 60.004 130.638 60.108 130.126 60.108C129.558 60.108 129.038 59.964 128.566 59.676C128.094 59.38 127.718 58.972 127.438 58.452C127.166 57.924 127.03 57.328 127.03 56.664ZM132.442 56.688C132.442 56.232 132.346 55.836 132.154 55.5C131.97 55.164 131.726 54.908 131.422 54.732C131.118 54.556 130.79 54.468 130.438 54.468C130.086 54.468 129.758 54.556 129.454 54.732C129.15 54.9 128.902 55.152 128.71 55.488C128.526 55.816 128.434 56.208 128.434 56.664C128.434 57.12 128.526 57.52 128.71 57.864C128.902 58.208 129.15 58.472 129.454 58.656C129.766 58.832 130.094 58.92 130.438 58.92C130.79 58.92 131.118 58.832 131.422 58.656C131.726 58.48 131.97 58.224 132.154 57.888C132.346 57.544 132.442 57.144 132.442 56.688ZM137.215 54.504V58.164C137.215 58.412 137.271 58.592 137.383 58.704C137.503 58.808 137.703 58.86 137.983 58.86H138.823V60H137.743C137.127 60 136.655 59.856 136.327 59.568C135.999 59.28 135.835 58.812 135.835 58.164V54.504H135.055V53.388H135.835V51.744H137.215V53.388H138.823V54.504H137.215ZM141.68 54.504V58.164C141.68 58.412 141.736 58.592 141.848 58.704C141.968 58.808 142.168 58.86 142.448 58.86H143.288V60H142.208C141.592 60 141.12 59.856 140.792 59.568C140.464 59.28 140.3 58.812 140.3 58.164V54.504H139.52V53.388H140.3V51.744H141.68V53.388H143.288V54.504H141.68ZM145.244 52.512C144.996 52.512 144.788 52.428 144.62 52.26C144.452 52.092 144.368 51.884 144.368 51.636C144.368 51.388 144.452 51.18 144.62 51.012C144.788 50.844 144.996 50.76 145.244 50.76C145.484 50.76 145.688 50.844 145.856 51.012C146.024 51.18 146.108 51.388 146.108 51.636C146.108 51.884 146.024 52.092 145.856 52.26C145.688 52.428 145.484 52.512 145.244 52.512ZM145.916 53.388V60H144.548V53.388H145.916ZM151.049 53.28C151.569 53.28 152.033 53.388 152.441 53.604C152.857 53.82 153.181 54.14 153.413 54.564C153.645 54.988 153.761 55.5 153.761 56.1V60H152.405V56.304C152.405 55.712 152.257 55.26 151.961 54.948C151.665 54.628 151.261 54.468 150.749 54.468C150.237 54.468 149.829 54.628 149.525 54.948C149.229 55.26 149.081 55.712 149.081 56.304V60H147.713V53.388H149.081V54.144C149.305 53.872 149.589 53.66 149.933 53.508C150.285 53.356 150.657 53.28 151.049 53.28ZM158.169 53.28C158.681 53.28 159.133 53.384 159.525 53.592C159.925 53.792 160.237 54.044 160.461 54.348V53.388H161.841V60.108C161.841 60.716 161.713 61.256 161.457 61.728C161.201 62.208 160.829 62.584 160.341 62.856C159.861 63.128 159.285 63.264 158.613 63.264C157.717 63.264 156.973 63.052 156.381 62.628C155.789 62.212 155.453 61.644 155.373 60.924H156.729C156.833 61.268 157.053 61.544 157.389 61.752C157.733 61.968 158.141 62.076 158.613 62.076C159.165 62.076 159.609 61.908 159.945 61.572C160.289 61.236 160.461 60.748 160.461 60.108V59.004C160.229 59.316 159.913 59.58 159.513 59.796C159.121 60.004 158.673 60.108 158.169 60.108C157.593 60.108 157.065 59.964 156.585 59.676C156.113 59.38 155.737 58.972 155.457 58.452C155.185 57.924 155.049 57.328 155.049 56.664C155.049 56 155.185 55.412 155.457 54.9C155.737 54.388 156.113 53.992 156.585 53.712C157.065 53.424 157.593 53.28 158.169 53.28ZM160.461 56.688C160.461 56.232 160.365 55.836 160.173 55.5C159.989 55.164 159.745 54.908 159.441 54.732C159.137 54.556 158.809 54.468 158.457 54.468C158.105 54.468 157.777 54.556 157.473 54.732C157.169 54.9 156.921 55.152 156.729 55.488C156.545 55.816 156.453 56.208 156.453 56.664C156.453 57.12 156.545 57.52 156.729 57.864C156.921 58.208 157.169 58.472 157.473 58.656C157.785 58.832 158.113 58.92 158.457 58.92C158.809 58.92 159.137 58.832 159.441 58.656C159.745 58.48 159.989 58.224 160.173 57.888C160.365 57.544 160.461 57.144 160.461 56.688Z" fill="white"/>
<path d="M218.148 81.7343L225.633 87.275L170.325 150.222H183.915L233.883 93.3767L241.063 98.6879L242.72 84.5866L244.376 70.4854L218.148 81.7343Z" fill="#1476B7"/>
<path d="M131.236 150.223H144.841L158.714 134.438L165.897 139.753L167.554 125.652L169.211 111.551L142.979 122.8L150.467 128.337L131.236 150.223Z" fill="#1476B7"/>
<path d="M234.539 150.223H248.14L265.884 130.042L273.064 135.353L274.72 121.252L276.377 107.15L250.149 118.399L257.633 123.94L234.539 150.223Z" fill="#1476B7"/>
<path d="M250.299 63.5384L259.975 70.6965L226.219 109.252L193.72 98.1923L141.777 150.222H160.436L197.279 113.324L230.364 124.581L270.637 78.5831L279.921 85.4534L282.062 67.2249L284.202 49L250.299 63.5384Z" fill="white"/>
<path d="M225.013 109.252H226.219L193.72 98.1924L193.412 98.502L225.013 109.252Z" fill="#D4D4FC"/>
<path d="M196.073 113.324L159.23 150.222H160.436L197.279 113.324H196.073Z" fill="#D4D4FC"/>
<path d="M269.432 78.583L229.437 124.267L230.364 124.581L270.637 78.583H269.432Z" fill="#D4D4FC"/>
<path d="M282.934 49.5428L280.856 67.2249L278.811 84.6302L279.921 85.4534L282.062 67.2249L284.202 49L282.934 49.5428Z" fill="#D4D4FC"/>
<path d="M245.549 87.7007C245.549 87.5295 245.535 87.3583 245.513 87.1943L229.969 104.949L229.793 115.714H230.265L230.214 123.145L231.281 123.509L246.202 106.468L245.549 87.7007Z" fill="#CCCCCE"/>
</svg>
