<svg width="300" height="116" viewBox="0 0 300 116" fill="none" xmlns="http://www.w3.org/2000/svg">
<rect width="300" height="115" rx="20" fill="#FFD143"/>
<path d="M221.591 58.9634L227.756 63.5273L182.198 115.378H193.393L234.551 68.5533L240.466 72.9282L241.83 61.3129L243.195 49.6975L221.591 58.9634Z" fill="#1476B7"/>
<path d="M150 115.378H161.207L172.634 102.376L178.551 106.754L179.916 95.1388L181.28 83.5234L159.673 92.7893L165.841 97.3502L150 115.378Z" fill="#1476B7"/>
<path d="M235.092 115.378H246.295L260.911 98.7545L266.825 103.129L268.19 91.514L269.554 79.8987L247.95 89.1645L254.115 93.7285L235.092 115.378Z" fill="#1476B7"/>
<path d="M248.074 43.9754L256.044 49.8716L228.239 81.63L201.469 72.5202L158.683 115.378H174.053L204.4 84.9847L231.653 94.2565L264.826 56.3679L272.474 62.027L274.237 47.012L276 32L248.074 43.9754Z" fill="white"/>
<path d="M227.245 81.6301H228.239L201.469 72.5203L201.215 72.7753L227.245 81.6301Z" fill="#D4D4FC"/>
<path d="M203.407 84.9847L173.059 115.378H174.053L204.4 84.9847H203.407Z" fill="#D4D4FC"/>
<path d="M263.833 56.3678L230.889 93.9984L231.653 94.2564L264.827 56.3678H263.833Z" fill="#D4D4FC"/>
<path d="M274.955 32.4471L273.244 47.012L271.559 61.3489L272.474 62.0271L274.237 47.012L276 32L274.955 32.4471Z" fill="#D4D4FC"/>
<path d="M244.161 63.8784C244.161 63.7374 244.149 63.5963 244.131 63.4613L231.327 78.0863L231.182 86.953H231.572L231.529 93.0743L232.408 93.3743L244.699 79.3375L244.161 63.8784Z" fill="#CCCCCE"/>
</svg>
