<svg width="300" height="150" viewBox="0 0 300 150" fill="none" xmlns="http://www.w3.org/2000/svg">
<rect width="300" height="150" rx="20" fill="#ADBEC4"/>
<path fill-rule="evenodd" clip-rule="evenodd" d="M80.6191 0C79.5986 6.9096 73.3452 26.3399 47.5836 35.1535C22.5889 43.7047 6.12314 40.7638 0.000186172 38L0.00017709 20C0.00017709 19.9941 0.000184718 19.9882 0.000184718 19.9823C0.00972057 8.94477 8.96039 6.78666e-06 20.0002 5.7411e-06L80.6191 0Z" fill="#CAD5E0"/>
<path opacity="0.4" fill-rule="evenodd" clip-rule="evenodd" d="M164.308 150H280C291.037 150 299.986 141.059 300 130.025C300 130.017 300 130.008 300 130L300 70C299.231 81.6667 285.969 105 239.077 105C192.185 105 169.692 135 164.308 150Z" fill="white"/>
<path d="M19.4 41V26.6H21.57L26.55 36.8L31.53 26.6H33.7V41H31.45V31.77L27.03 41H26.07L21.66 31.77V41H19.4ZM37.9294 45.8L40.0094 40.09L40.0494 41.77L35.3394 30.2H37.8494L41.1894 38.76H40.5494L43.7994 30.2H46.2094L40.1894 45.8H37.9294ZM57.6447 41.3C56.7114 41.3 55.8347 41.1367 55.0147 40.81C54.2014 40.4767 53.4847 39.99 52.8647 39.35C52.2514 38.71 51.7714 37.9267 51.4247 37C51.078 36.0667 50.9047 35 50.9047 33.8C50.9047 32.2267 51.198 30.8833 51.7847 29.77C52.3714 28.65 53.1747 27.7933 54.1947 27.2C55.2147 26.6 56.3647 26.3 57.6447 26.3C59.418 26.3 60.8214 26.7133 61.8547 27.54C62.8947 28.36 63.598 29.5133 63.9647 31L61.5047 31.39C61.2314 30.5367 60.7847 29.8567 60.1647 29.35C59.5447 28.8367 58.7547 28.58 57.7947 28.58C56.828 28.5667 56.0247 28.7767 55.3847 29.21C54.7447 29.6433 54.2614 30.2533 53.9347 31.04C53.6147 31.8267 53.4547 32.7467 53.4547 33.8C53.4547 34.8533 53.6147 35.77 53.9347 36.55C54.2547 37.3233 54.7347 37.9267 55.3747 38.36C56.0214 38.7933 56.828 39.0167 57.7947 39.03C58.5214 39.0367 59.158 38.9067 59.7047 38.64C60.2514 38.3667 60.698 37.9567 61.0447 37.41C61.3914 36.8567 61.6247 36.1667 61.7447 35.34H59.2047V33.45H64.3047C64.318 33.5567 64.328 33.7133 64.3347 33.92C64.3414 34.1267 64.3447 34.25 64.3447 34.29C64.3447 35.65 64.0747 36.86 63.5347 37.92C63.0014 38.9733 62.2347 39.8 61.2347 40.4C60.2347 41 59.038 41.3 57.6447 41.3ZM71.1231 41.3C70.0431 41.3 69.0998 41.0567 68.2931 40.57C67.4865 40.0833 66.8598 39.4133 66.4131 38.56C65.9731 37.7 65.7531 36.7133 65.7531 35.6C65.7531 34.4667 65.9798 33.4733 66.4331 32.62C66.8865 31.7667 67.5165 31.1 68.3231 30.62C69.1298 30.14 70.0631 29.9 71.1231 29.9C72.2098 29.9 73.1565 30.1433 73.9631 30.63C74.7698 31.1167 75.3965 31.79 75.8431 32.65C76.2898 33.5033 76.5131 34.4867 76.5131 35.6C76.5131 36.72 76.2865 37.71 75.8331 38.57C75.3865 39.4233 74.7598 40.0933 73.9531 40.58C73.1465 41.06 72.2031 41.3 71.1231 41.3ZM71.1231 39.04C72.0831 39.04 72.7965 38.72 73.2631 38.08C73.7298 37.44 73.9631 36.6133 73.9631 35.6C73.9631 34.5533 73.7265 33.72 73.2531 33.1C72.7798 32.4733 72.0698 32.16 71.1231 32.16C70.4765 32.16 69.9431 32.3067 69.5231 32.6C69.1098 32.8867 68.8031 33.29 68.6031 33.81C68.4031 34.3233 68.3031 34.92 68.3031 35.6C68.3031 36.6467 68.5398 37.4833 69.0131 38.11C69.4931 38.73 70.1965 39.04 71.1231 39.04ZM81.7364 41.3C80.9564 41.3 80.2964 41.1533 79.7564 40.86C79.2164 40.56 78.8064 40.1633 78.5264 39.67C78.2531 39.1767 78.1164 38.6333 78.1164 38.04C78.1164 37.52 78.2031 37.0533 78.3764 36.64C78.5497 36.22 78.8164 35.86 79.1764 35.56C79.5364 35.2533 80.0031 35.0033 80.5764 34.81C81.0097 34.67 81.5164 34.5433 82.0964 34.43C82.6831 34.3167 83.3164 34.2133 83.9964 34.12C84.6831 34.02 85.3997 33.9133 86.1464 33.8L85.2864 34.29C85.2931 33.5433 85.1264 32.9933 84.7864 32.64C84.4464 32.2867 83.8731 32.11 83.0664 32.11C82.5797 32.11 82.1097 32.2233 81.6564 32.45C81.2031 32.6767 80.8864 33.0667 80.7064 33.62L78.5064 32.93C78.7731 32.0167 79.2797 31.2833 80.0264 30.73C80.7797 30.1767 81.7931 29.9 83.0664 29.9C84.0264 29.9 84.8697 30.0567 85.5964 30.37C86.3297 30.6833 86.8731 31.1967 87.2264 31.91C87.4197 32.29 87.5364 32.68 87.5764 33.08C87.6164 33.4733 87.6364 33.9033 87.6364 34.37V41H85.5264V38.66L85.8764 39.04C85.3897 39.82 84.8197 40.3933 84.1664 40.76C83.5197 41.12 82.7097 41.3 81.7364 41.3ZM82.2164 39.38C82.7631 39.38 83.2297 39.2833 83.6164 39.09C84.0031 38.8967 84.3097 38.66 84.5364 38.38C84.7697 38.1 84.9264 37.8367 85.0064 37.59C85.1331 37.2833 85.2031 36.9333 85.2164 36.54C85.2364 36.14 85.2464 35.8167 85.2464 35.57L85.9864 35.79C85.2597 35.9033 84.6364 36.0033 84.1164 36.09C83.5964 36.1767 83.1497 36.26 82.7764 36.34C82.4031 36.4133 82.0731 36.4967 81.7864 36.59C81.5064 36.69 81.2697 36.8067 81.0764 36.94C80.8831 37.0733 80.7331 37.2267 80.6264 37.4C80.5264 37.5733 80.4764 37.7767 80.4764 38.01C80.4764 38.2767 80.5431 38.5133 80.6764 38.72C80.8097 38.92 81.0031 39.08 81.2564 39.2C81.5164 39.32 81.8364 39.38 82.2164 39.38ZM90.4398 41V26.3H92.8498V41H90.4398ZM100.015 41.3C98.682 41.3 97.5986 41 96.7653 40.4C95.932 39.8 95.4253 38.9567 95.2453 37.87L97.7053 37.49C97.832 38.0233 98.112 38.4433 98.5453 38.75C98.9786 39.0567 99.5253 39.21 100.185 39.21C100.765 39.21 101.212 39.0967 101.525 38.87C101.845 38.6367 102.005 38.32 102.005 37.92C102.005 37.6733 101.945 37.4767 101.825 37.33C101.712 37.1767 101.459 37.03 101.065 36.89C100.672 36.75 100.069 36.5733 99.2553 36.36C98.3486 36.12 97.6286 35.8633 97.0953 35.59C96.562 35.31 96.1786 34.98 95.9453 34.6C95.712 34.22 95.5953 33.76 95.5953 33.22C95.5953 32.5467 95.772 31.96 96.1253 31.46C96.4786 30.96 96.972 30.5767 97.6053 30.31C98.2386 30.0367 98.9853 29.9 99.8453 29.9C100.685 29.9 101.429 30.03 102.075 30.29C102.729 30.55 103.255 30.92 103.655 31.4C104.055 31.88 104.302 32.4433 104.395 33.09L101.935 33.53C101.875 33.07 101.665 32.7067 101.305 32.44C100.952 32.1733 100.479 32.0233 99.8853 31.99C99.3186 31.9567 98.862 32.0433 98.5153 32.25C98.1686 32.45 97.9953 32.7333 97.9953 33.1C97.9953 33.3067 98.0653 33.4833 98.2053 33.63C98.3453 33.7767 98.6253 33.9233 99.0453 34.07C99.472 34.2167 100.105 34.3967 100.945 34.61C101.805 34.83 102.492 35.0833 103.005 35.37C103.525 35.65 103.899 35.9867 104.125 36.38C104.359 36.7733 104.475 37.25 104.475 37.81C104.475 38.8967 104.079 39.75 103.285 40.37C102.499 40.99 101.409 41.3 100.015 41.3Z" fill="white"/>
<path d="M25.752 60H24.384L20.268 53.772V60H18.9V51.648H20.268L24.384 57.864V51.648H25.752V60ZM33.5364 53.388V60H32.1684V59.22C31.9524 59.492 31.6684 59.708 31.3164 59.868C30.9724 60.02 30.6044 60.096 30.2124 60.096C29.6924 60.096 29.2244 59.988 28.8084 59.772C28.4004 59.556 28.0764 59.236 27.8364 58.812C27.6044 58.388 27.4884 57.876 27.4884 57.276V53.388H28.8444V57.072C28.8444 57.664 28.9924 58.12 29.2884 58.44C29.5844 58.752 29.9884 58.908 30.5004 58.908C31.0124 58.908 31.4164 58.752 31.7124 58.44C32.0164 58.12 32.1684 57.664 32.1684 57.072V53.388H33.5364ZM43.3454 53.28C43.8654 53.28 44.3294 53.388 44.7374 53.604C45.1534 53.82 45.4774 54.14 45.7094 54.564C45.9494 54.988 46.0694 55.5 46.0694 56.1V60H44.7134V56.304C44.7134 55.712 44.5654 55.26 44.2694 54.948C43.9734 54.628 43.5694 54.468 43.0574 54.468C42.5454 54.468 42.1374 54.628 41.8334 54.948C41.5374 55.26 41.3894 55.712 41.3894 56.304V60H40.0334V56.304C40.0334 55.712 39.8854 55.26 39.5894 54.948C39.2934 54.628 38.8894 54.468 38.3774 54.468C37.8654 54.468 37.4574 54.628 37.1534 54.948C36.8574 55.26 36.7094 55.712 36.7094 56.304V60H35.3414V53.388H36.7094V54.144C36.9334 53.872 37.2174 53.66 37.5614 53.508C37.9054 53.356 38.2734 53.28 38.6654 53.28C39.1934 53.28 39.6654 53.392 40.0814 53.616C40.4974 53.84 40.8174 54.164 41.0414 54.588C41.2414 54.188 41.5534 53.872 41.9774 53.64C42.4014 53.4 42.8574 53.28 43.3454 53.28ZM49.1782 54.372C49.4102 54.052 49.7262 53.792 50.1262 53.592C50.5342 53.384 50.9862 53.28 51.4822 53.28C52.0662 53.28 52.5942 53.42 53.0662 53.7C53.5382 53.98 53.9102 54.38 54.1822 54.9C54.4542 55.412 54.5902 56 54.5902 56.664C54.5902 57.328 54.4542 57.924 54.1822 58.452C53.9102 58.972 53.5342 59.38 53.0542 59.676C52.5822 59.964 52.0582 60.108 51.4822 60.108C50.9702 60.108 50.5142 60.008 50.1142 59.808C49.7222 59.608 49.4102 59.352 49.1782 59.04V60H47.8102V51.12H49.1782V54.372ZM53.1982 56.664C53.1982 56.208 53.1022 55.816 52.9102 55.488C52.7262 55.152 52.4782 54.9 52.1662 54.732C51.8622 54.556 51.5342 54.468 51.1822 54.468C50.8382 54.468 50.5102 54.556 50.1982 54.732C49.8942 54.908 49.6462 55.164 49.4542 55.5C49.2702 55.836 49.1782 56.232 49.1782 56.688C49.1782 57.144 49.2702 57.544 49.4542 57.888C49.6462 58.224 49.8942 58.48 50.1982 58.656C50.5102 58.832 50.8382 58.92 51.1822 58.92C51.5342 58.92 51.8622 58.832 52.1662 58.656C52.4782 58.472 52.7262 58.208 52.9102 57.864C53.1022 57.52 53.1982 57.12 53.1982 56.664ZM62.003 56.532C62.003 56.78 61.987 57.004 61.955 57.204H56.903C56.943 57.732 57.139 58.156 57.491 58.476C57.843 58.796 58.275 58.956 58.787 58.956C59.523 58.956 60.043 58.648 60.347 58.032H61.823C61.623 58.64 61.259 59.14 60.731 59.532C60.211 59.916 59.563 60.108 58.787 60.108C58.155 60.108 57.587 59.968 57.083 59.688C56.587 59.4 56.195 59 55.907 58.488C55.627 57.968 55.487 57.368 55.487 56.688C55.487 56.008 55.623 55.412 55.895 54.9C56.175 54.38 56.563 53.98 57.059 53.7C57.563 53.42 58.139 53.28 58.787 53.28C59.411 53.28 59.967 53.416 60.455 53.688C60.943 53.96 61.323 54.344 61.595 54.84C61.867 55.328 62.003 55.892 62.003 56.532ZM60.575 56.1C60.567 55.596 60.387 55.192 60.035 54.888C59.683 54.584 59.247 54.432 58.727 54.432C58.255 54.432 57.851 54.584 57.515 54.888C57.179 55.184 56.979 55.588 56.915 56.1H60.575ZM64.7172 54.348C64.9172 54.012 65.1812 53.752 65.5092 53.568C65.8452 53.376 66.2412 53.28 66.6972 53.28V54.696H66.3492C65.8132 54.696 65.4052 54.832 65.1252 55.104C64.8532 55.376 64.7172 55.848 64.7172 56.52V60H63.3492V53.388H64.7172V54.348ZM73.9399 60.108C73.3159 60.108 72.7519 59.968 72.2479 59.688C71.7439 59.4 71.3479 59 71.0599 58.488C70.7719 57.968 70.6279 57.368 70.6279 56.688C70.6279 56.016 70.7759 55.42 71.0719 54.9C71.3679 54.38 71.7719 53.98 72.2839 53.7C72.7959 53.42 73.3679 53.28 73.9999 53.28C74.6319 53.28 75.2039 53.42 75.7159 53.7C76.2279 53.98 76.6319 54.38 76.9279 54.9C77.2239 55.42 77.3719 56.016 77.3719 56.688C77.3719 57.36 77.2199 57.956 76.9159 58.476C76.6119 58.996 76.1959 59.4 75.6679 59.688C75.1479 59.968 74.5719 60.108 73.9399 60.108ZM73.9399 58.92C74.2919 58.92 74.6199 58.836 74.9239 58.668C75.2359 58.5 75.4879 58.248 75.6799 57.912C75.8719 57.576 75.9679 57.168 75.9679 56.688C75.9679 56.208 75.8759 55.804 75.6919 55.476C75.5079 55.14 75.2639 54.888 74.9599 54.72C74.6559 54.552 74.3279 54.468 73.9759 54.468C73.6239 54.468 73.2959 54.552 72.9919 54.72C72.6959 54.888 72.4599 55.14 72.2839 55.476C72.1079 55.804 72.0199 56.208 72.0199 56.688C72.0199 57.4 72.1999 57.952 72.5599 58.344C72.9279 58.728 73.3879 58.92 73.9399 58.92ZM81.4962 54.504H80.2722V60H78.8922V54.504H78.1122V53.388H78.8922V52.92C78.8922 52.16 79.0922 51.608 79.4922 51.264C79.9002 50.912 80.5362 50.736 81.4002 50.736V51.876C80.9842 51.876 80.6922 51.956 80.5242 52.116C80.3562 52.268 80.2722 52.536 80.2722 52.92V53.388H81.4962V54.504ZM87.1938 54.36C87.4258 54.056 87.7418 53.8 88.1418 53.592C88.5418 53.384 88.9938 53.28 89.4978 53.28C90.0738 53.28 90.5978 53.424 91.0698 53.712C91.5498 53.992 91.9258 54.388 92.1978 54.9C92.4698 55.412 92.6058 56 92.6058 56.664C92.6058 57.328 92.4698 57.924 92.1978 58.452C91.9258 58.972 91.5498 59.38 91.0698 59.676C90.5978 59.964 90.0738 60.108 89.4978 60.108C88.9938 60.108 88.5458 60.008 88.1538 59.808C87.7618 59.6 87.4418 59.344 87.1938 59.04V63.144H85.8258V53.388H87.1938V54.36ZM91.2138 56.664C91.2138 56.208 91.1178 55.816 90.9258 55.488C90.7418 55.152 90.4938 54.9 90.1818 54.732C89.8778 54.556 89.5498 54.468 89.1978 54.468C88.8538 54.468 88.5258 54.556 88.2138 54.732C87.9098 54.908 87.6618 55.164 87.4698 55.5C87.2858 55.836 87.1938 56.232 87.1938 56.688C87.1938 57.144 87.2858 57.544 87.4698 57.888C87.6618 58.224 87.9098 58.48 88.2138 58.656C88.5258 58.832 88.8538 58.92 89.1978 58.92C89.5498 58.92 89.8778 58.832 90.1818 58.656C90.4938 58.472 90.7418 58.208 90.9258 57.864C91.1178 57.52 91.2138 57.12 91.2138 56.664ZM95.3266 54.348C95.5266 54.012 95.7906 53.752 96.1186 53.568C96.4546 53.376 96.8506 53.28 97.3066 53.28V54.696H96.9586C96.4226 54.696 96.0146 54.832 95.7346 55.104C95.4626 55.376 95.3266 55.848 95.3266 56.52V60H93.9586V53.388H95.3266V54.348ZM104.624 56.532C104.624 56.78 104.608 57.004 104.576 57.204H99.5241C99.5641 57.732 99.7601 58.156 100.112 58.476C100.464 58.796 100.896 58.956 101.408 58.956C102.144 58.956 102.664 58.648 102.968 58.032H104.444C104.244 58.64 103.88 59.14 103.352 59.532C102.832 59.916 102.184 60.108 101.408 60.108C100.776 60.108 100.208 59.968 99.7041 59.688C99.2081 59.4 98.8161 59 98.5281 58.488C98.2481 57.968 98.1081 57.368 98.1081 56.688C98.1081 56.008 98.2441 55.412 98.5161 54.9C98.7961 54.38 99.1841 53.98 99.6801 53.7C100.184 53.42 100.76 53.28 101.408 53.28C102.032 53.28 102.588 53.416 103.076 53.688C103.564 53.96 103.944 54.344 104.216 54.84C104.488 55.328 104.624 55.892 104.624 56.532ZM103.196 56.1C103.188 55.596 103.008 55.192 102.656 54.888C102.304 54.584 101.868 54.432 101.348 54.432C100.876 54.432 100.472 54.584 100.136 54.888C99.8001 55.184 99.6001 55.588 99.5361 56.1H103.196ZM108.37 60.108C107.85 60.108 107.382 60.016 106.966 59.832C106.558 59.64 106.234 59.384 105.994 59.064C105.754 58.736 105.626 58.372 105.61 57.972H107.026C107.05 58.252 107.182 58.488 107.422 58.68C107.67 58.864 107.978 58.956 108.346 58.956C108.73 58.956 109.026 58.884 109.234 58.74C109.45 58.588 109.558 58.396 109.558 58.164C109.558 57.916 109.438 57.732 109.198 57.612C108.966 57.492 108.594 57.36 108.082 57.216C107.586 57.08 107.182 56.948 106.87 56.82C106.558 56.692 106.286 56.496 106.054 56.232C105.83 55.968 105.718 55.62 105.718 55.188C105.718 54.836 105.822 54.516 106.03 54.228C106.238 53.932 106.534 53.7 106.918 53.532C107.31 53.364 107.758 53.28 108.262 53.28C109.014 53.28 109.618 53.472 110.074 53.856C110.538 54.232 110.786 54.748 110.818 55.404H109.45C109.426 55.108 109.306 54.872 109.09 54.696C108.874 54.52 108.582 54.432 108.214 54.432C107.854 54.432 107.578 54.5 107.386 54.636C107.194 54.772 107.098 54.952 107.098 55.176C107.098 55.352 107.162 55.5 107.29 55.62C107.418 55.74 107.574 55.836 107.758 55.908C107.942 55.972 108.214 56.056 108.574 56.16C109.054 56.288 109.446 56.42 109.75 56.556C110.062 56.684 110.33 56.876 110.554 57.132C110.778 57.388 110.894 57.728 110.902 58.152C110.902 58.528 110.798 58.864 110.59 59.16C110.382 59.456 110.086 59.688 109.702 59.856C109.326 60.024 108.882 60.108 108.37 60.108ZM118.44 56.532C118.44 56.78 118.424 57.004 118.392 57.204H113.34C113.38 57.732 113.576 58.156 113.928 58.476C114.28 58.796 114.712 58.956 115.224 58.956C115.96 58.956 116.48 58.648 116.784 58.032H118.26C118.06 58.64 117.696 59.14 117.168 59.532C116.648 59.916 116 60.108 115.224 60.108C114.592 60.108 114.024 59.968 113.52 59.688C113.024 59.4 112.632 59 112.344 58.488C112.064 57.968 111.924 57.368 111.924 56.688C111.924 56.008 112.06 55.412 112.332 54.9C112.612 54.38 113 53.98 113.496 53.7C114 53.42 114.576 53.28 115.224 53.28C115.848 53.28 116.404 53.416 116.892 53.688C117.38 53.96 117.76 54.344 118.032 54.84C118.304 55.328 118.44 55.892 118.44 56.532ZM117.012 56.1C117.004 55.596 116.824 55.192 116.472 54.888C116.12 54.584 115.684 54.432 115.164 54.432C114.692 54.432 114.288 54.584 113.952 54.888C113.616 55.184 113.416 55.588 113.352 56.1H117.012ZM121.383 54.504V58.164C121.383 58.412 121.439 58.592 121.551 58.704C121.671 58.808 121.871 58.86 122.151 58.86H122.991V60H121.911C121.295 60 120.823 59.856 120.495 59.568C120.167 59.28 120.003 58.812 120.003 58.164V54.504H119.223V53.388H120.003V51.744H121.383V53.388H122.991V54.504H121.383ZM126.913 56.664C126.913 56 127.049 55.412 127.321 54.9C127.601 54.388 127.977 53.992 128.449 53.712C128.929 53.424 129.461 53.28 130.045 53.28C130.557 53.28 131.009 53.384 131.401 53.592C131.801 53.8 132.109 54.052 132.325 54.348V53.388H133.705V63.144H132.325V59.04C132.109 59.336 131.797 59.588 131.389 59.796C130.981 60.004 130.517 60.108 129.997 60.108C129.429 60.108 128.909 59.964 128.437 59.676C127.973 59.38 127.601 58.972 127.321 58.452C127.049 57.924 126.913 57.328 126.913 56.664ZM132.325 56.688C132.325 56.232 132.229 55.836 132.037 55.5C131.853 55.164 131.609 54.908 131.305 54.732C131.001 54.556 130.673 54.468 130.321 54.468C129.969 54.468 129.641 54.556 129.337 54.732C129.033 54.9 128.785 55.152 128.593 55.488C128.409 55.816 128.317 56.208 128.317 56.664C128.317 57.12 128.409 57.52 128.593 57.864C128.785 58.208 129.033 58.472 129.337 58.656C129.649 58.832 129.977 58.92 130.321 58.92C130.673 58.92 131.001 58.832 131.305 58.656C131.609 58.48 131.853 58.224 132.037 57.888C132.229 57.544 132.325 57.144 132.325 56.688ZM141.49 53.388V60H140.122V59.22C139.906 59.492 139.622 59.708 139.27 59.868C138.926 60.02 138.558 60.096 138.166 60.096C137.646 60.096 137.178 59.988 136.762 59.772C136.354 59.556 136.03 59.236 135.79 58.812C135.558 58.388 135.442 57.876 135.442 57.276V53.388H136.798V57.072C136.798 57.664 136.946 58.12 137.242 58.44C137.538 58.752 137.942 58.908 138.454 58.908C138.966 58.908 139.37 58.752 139.666 58.44C139.97 58.12 140.122 57.664 140.122 57.072V53.388H141.49ZM149.355 56.532C149.355 56.78 149.339 57.004 149.307 57.204H144.255C144.295 57.732 144.491 58.156 144.843 58.476C145.195 58.796 145.627 58.956 146.139 58.956C146.875 58.956 147.395 58.648 147.699 58.032H149.175C148.975 58.64 148.611 59.14 148.083 59.532C147.563 59.916 146.915 60.108 146.139 60.108C145.507 60.108 144.939 59.968 144.435 59.688C143.939 59.4 143.547 59 143.259 58.488C142.979 57.968 142.839 57.368 142.839 56.688C142.839 56.008 142.975 55.412 143.247 54.9C143.527 54.38 143.915 53.98 144.411 53.7C144.915 53.42 145.491 53.28 146.139 53.28C146.763 53.28 147.319 53.416 147.807 53.688C148.295 53.96 148.675 54.344 148.947 54.84C149.219 55.328 149.355 55.892 149.355 56.532ZM147.927 56.1C147.919 55.596 147.739 55.192 147.387 54.888C147.035 54.584 146.599 54.432 146.079 54.432C145.607 54.432 145.203 54.584 144.867 54.888C144.531 55.184 144.331 55.588 144.267 56.1H147.927ZM153.101 60.108C152.581 60.108 152.113 60.016 151.697 59.832C151.289 59.64 150.965 59.384 150.725 59.064C150.485 58.736 150.357 58.372 150.341 57.972H151.757C151.781 58.252 151.913 58.488 152.153 58.68C152.401 58.864 152.709 58.956 153.077 58.956C153.461 58.956 153.757 58.884 153.965 58.74C154.181 58.588 154.289 58.396 154.289 58.164C154.289 57.916 154.169 57.732 153.929 57.612C153.697 57.492 153.325 57.36 152.813 57.216C152.317 57.08 151.913 56.948 151.601 56.82C151.289 56.692 151.017 56.496 150.785 56.232C150.561 55.968 150.449 55.62 150.449 55.188C150.449 54.836 150.553 54.516 150.761 54.228C150.969 53.932 151.265 53.7 151.649 53.532C152.041 53.364 152.489 53.28 152.993 53.28C153.745 53.28 154.349 53.472 154.805 53.856C155.269 54.232 155.517 54.748 155.549 55.404H154.181C154.157 55.108 154.037 54.872 153.821 54.696C153.605 54.52 153.313 54.432 152.945 54.432C152.585 54.432 152.309 54.5 152.117 54.636C151.925 54.772 151.829 54.952 151.829 55.176C151.829 55.352 151.893 55.5 152.021 55.62C152.149 55.74 152.305 55.836 152.489 55.908C152.673 55.972 152.945 56.056 153.305 56.16C153.785 56.288 154.177 56.42 154.481 56.556C154.793 56.684 155.061 56.876 155.285 57.132C155.509 57.388 155.625 57.728 155.633 58.152C155.633 58.528 155.529 58.864 155.321 59.16C155.113 59.456 154.817 59.688 154.433 59.856C154.057 60.024 153.613 60.108 153.101 60.108ZM158.707 54.504V58.164C158.707 58.412 158.763 58.592 158.875 58.704C158.995 58.808 159.195 58.86 159.475 58.86H160.315V60H159.235C158.619 60 158.147 59.856 157.819 59.568C157.491 59.28 157.327 58.812 157.327 58.164V54.504H156.547V53.388H157.327V51.744H158.707V53.388H160.315V54.504H158.707ZM162.272 52.512C162.024 52.512 161.816 52.428 161.648 52.26C161.48 52.092 161.396 51.884 161.396 51.636C161.396 51.388 161.48 51.18 161.648 51.012C161.816 50.844 162.024 50.76 162.272 50.76C162.512 50.76 162.716 50.844 162.884 51.012C163.052 51.18 163.136 51.388 163.136 51.636C163.136 51.884 163.052 52.092 162.884 52.26C162.716 52.428 162.512 52.512 162.272 52.512ZM162.944 53.388V60H161.576V53.388H162.944ZM167.608 60.108C166.984 60.108 166.42 59.968 165.916 59.688C165.412 59.4 165.016 59 164.728 58.488C164.44 57.968 164.296 57.368 164.296 56.688C164.296 56.016 164.444 55.42 164.74 54.9C165.036 54.38 165.44 53.98 165.952 53.7C166.464 53.42 167.036 53.28 167.668 53.28C168.3 53.28 168.872 53.42 169.384 53.7C169.896 53.98 170.3 54.38 170.596 54.9C170.892 55.42 171.04 56.016 171.04 56.688C171.04 57.36 170.888 57.956 170.584 58.476C170.28 58.996 169.864 59.4 169.336 59.688C168.816 59.968 168.24 60.108 167.608 60.108ZM167.608 58.92C167.96 58.92 168.288 58.836 168.592 58.668C168.904 58.5 169.156 58.248 169.348 57.912C169.54 57.576 169.636 57.168 169.636 56.688C169.636 56.208 169.544 55.804 169.36 55.476C169.176 55.14 168.932 54.888 168.628 54.72C168.324 54.552 167.996 54.468 167.644 54.468C167.292 54.468 166.964 54.552 166.66 54.72C166.364 54.888 166.128 55.14 165.952 55.476C165.776 55.804 165.688 56.208 165.688 56.688C165.688 57.4 165.868 57.952 166.228 58.344C166.596 58.728 167.056 58.92 167.608 58.92ZM175.728 53.28C176.248 53.28 176.712 53.388 177.12 53.604C177.536 53.82 177.86 54.14 178.092 54.564C178.324 54.988 178.44 55.5 178.44 56.1V60H177.084V56.304C177.084 55.712 176.936 55.26 176.64 54.948C176.344 54.628 175.94 54.468 175.428 54.468C174.916 54.468 174.508 54.628 174.204 54.948C173.908 55.26 173.76 55.712 173.76 56.304V60H172.392V53.388H173.76V54.144C173.984 53.872 174.268 53.66 174.612 53.508C174.964 53.356 175.336 53.28 175.728 53.28ZM182.585 60.108C182.065 60.108 181.597 60.016 181.181 59.832C180.773 59.64 180.449 59.384 180.209 59.064C179.969 58.736 179.841 58.372 179.825 57.972H181.241C181.265 58.252 181.397 58.488 181.637 58.68C181.885 58.864 182.193 58.956 182.561 58.956C182.945 58.956 183.241 58.884 183.449 58.74C183.665 58.588 183.773 58.396 183.773 58.164C183.773 57.916 183.653 57.732 183.413 57.612C183.181 57.492 182.809 57.36 182.297 57.216C181.801 57.08 181.397 56.948 181.085 56.82C180.773 56.692 180.501 56.496 180.269 56.232C180.045 55.968 179.933 55.62 179.933 55.188C179.933 54.836 180.037 54.516 180.245 54.228C180.453 53.932 180.749 53.7 181.133 53.532C181.525 53.364 181.973 53.28 182.477 53.28C183.229 53.28 183.833 53.472 184.289 53.856C184.753 54.232 185.001 54.748 185.033 55.404H183.665C183.641 55.108 183.521 54.872 183.305 54.696C183.089 54.52 182.797 54.432 182.429 54.432C182.069 54.432 181.793 54.5 181.601 54.636C181.409 54.772 181.313 54.952 181.313 55.176C181.313 55.352 181.377 55.5 181.505 55.62C181.633 55.74 181.789 55.836 181.973 55.908C182.157 55.972 182.429 56.056 182.789 56.16C183.269 56.288 183.661 56.42 183.965 56.556C184.277 56.684 184.545 56.876 184.769 57.132C184.993 57.388 185.109 57.728 185.117 58.152C185.117 58.528 185.013 58.864 184.805 59.16C184.597 59.456 184.301 59.688 183.917 59.856C183.541 60.024 183.097 60.108 182.585 60.108Z" fill="white"/>
<path d="M207.135 108.112H188.627C188.169 108.112 187.798 107.741 187.798 107.283V105.536C187.798 105.078 188.169 104.707 188.627 104.707H207.135C207.593 104.707 207.964 105.078 207.964 105.536V107.283C207.963 107.741 207.592 108.112 207.135 108.112Z" stroke="#DEE5F8" stroke-width="5" stroke-miterlimit="10"/>
<path d="M218.162 108.077H210.628C210.055 108.077 209.591 107.612 209.591 107.039V105.709C209.591 105.136 210.055 104.672 210.628 104.672H218.162C218.735 104.672 219.199 105.136 219.199 105.709V107.039C219.199 107.612 218.735 108.077 218.162 108.077Z" stroke="#DEE5F8" stroke-width="3.75" stroke-miterlimit="10"/>
<path d="M213.561 62.096H206.027C205.454 62.096 204.99 61.6315 204.99 61.0584V59.7283C204.99 59.1552 205.454 58.6907 206.027 58.6907H213.561C214.134 58.6907 214.598 59.1552 214.598 59.7283V61.0584C214.598 61.6315 214.133 62.096 213.561 62.096Z" stroke="#DEE5F8" stroke-width="5" stroke-miterlimit="10"/>
<path d="M224.926 62.096H217.392C216.819 62.096 216.355 61.6315 216.355 61.0584V59.7283C216.355 59.1552 216.819 58.6907 217.392 58.6907H224.926C225.499 58.6907 225.963 59.1552 225.963 59.7283V61.0584C225.963 61.6315 225.499 62.096 224.926 62.096Z" stroke="#DEE5F8" stroke-width="5" stroke-miterlimit="10"/>
<path d="M253.788 92.722H246.255C245.681 92.722 245.217 92.2574 245.217 91.6843V90.3543C245.217 89.7812 245.681 89.3167 246.255 89.3167H253.788C254.361 89.3167 254.825 89.7812 254.825 90.3543V91.6843C254.825 92.2574 254.361 92.722 253.788 92.722Z" stroke="#DEE5F8" stroke-width="5" stroke-miterlimit="10"/>
<path d="M289.857 46.9033V47.8841C290.187 47.8841 290.557 47.9735 290.805 48.6369C291.076 49.3654 291.09 50.5141 290.841 51.8734C290.561 53.4031 289.959 55.1685 289.1 56.9772C287.329 60.7067 284.577 64.4311 281.247 67.6301L280.754 56.7333L283.661 52.708H286.112C287.045 52.708 287.803 51.9495 287.803 51.0171V48.7221C287.817 48.6995 287.878 48.621 288.066 48.5116C288.958 47.9936 289.533 47.885 289.858 47.885L289.857 46.9033ZM289.856 46.9033C289.228 46.9033 288.466 47.1431 287.571 47.6627C287.161 47.9008 286.82 48.2367 286.82 48.7104V51.0163C286.82 51.4081 286.502 51.7264 286.11 51.7264H283.157L279.756 56.4358L280.36 69.7672C291.784 59.8537 294.47 46.9033 289.856 46.9033Z" fill="#FBC343"/>
<path d="M254.701 46.9033V47.8841C255.027 47.8841 255.601 47.9928 256.493 48.5107C256.68 48.6193 256.741 48.6987 256.756 48.7213V51.0163C256.756 51.9486 257.515 52.7072 258.447 52.7072H260.897L263.805 56.7324L263.311 67.6293C259.982 64.4303 257.23 60.7058 255.459 56.9764C254.6 55.1676 253.997 53.4023 253.717 51.8726C253.468 50.5141 253.481 49.3646 253.753 48.6361C254.001 47.9727 254.372 47.8833 254.702 47.8833V46.9033M254.701 46.9033C250.087 46.9033 252.773 59.8537 264.196 69.7663L264.8 56.435L261.399 51.7256H258.446C258.054 51.7256 257.736 51.4072 257.736 51.0154V48.7096C257.736 48.2359 257.395 47.9 256.985 47.6619C256.091 47.1431 255.328 46.9033 254.701 46.9033Z" fill="#FBC343"/>
<path d="M281.893 93.423H262.664V103.402H281.893V93.423Z" fill="#6F3428"/>
<path d="M278.95 93.4231H265.608V90.1673C265.608 88.7128 266.786 87.5348 268.24 87.5348H276.317C277.771 87.5348 278.949 88.7136 278.949 90.1673V93.4231H278.95Z" fill="#FBC343"/>
<path d="M276.432 87.5339H268.126V85.5071C268.126 84.6014 268.859 83.8679 269.765 83.8679H274.793C275.698 83.8679 276.432 84.6014 276.432 85.5071V87.5339Z" fill="#FBC343"/>
<path d="M274.595 82.8429L274.854 83.868H269.704L269.96 82.8429C270.303 81.4811 270.303 80.1084 269.96 78.7466L269.704 77.7207H274.854L274.595 78.7466C274.483 79.1953 274.407 79.6448 274.37 80.0959C274.29 81.0132 274.366 81.9306 274.595 82.8429Z" fill="#FBC343"/>
<path opacity="0.3" d="M274.854 77.7214L274.595 78.7474C274.483 79.196 274.407 79.6455 274.37 80.0966C274.088 78.2202 269.704 77.7223 269.704 77.7223H274.854V77.7214Z" fill="#6F3428"/>
<path d="M276.432 74.0564V76.0824C276.432 76.2495 276.407 76.4099 276.361 76.5628C276.156 77.2328 275.531 77.7215 274.792 77.7215H269.764C268.86 77.7215 268.125 76.9888 268.125 76.0824V74.0564H276.432Z" fill="#FBC343"/>
<path opacity="0.3" d="M276.432 74.0564V76.0824C276.432 76.2495 276.407 76.4099 276.361 76.5628C274.143 74.5243 268.509 74.4641 268.125 74.4616V74.0564H276.432Z" fill="#6F3428"/>
<path d="M285.178 49.5734L282.797 59.9706L280.155 71.5099C279.76 73.2376 278.223 74.4616 276.452 74.4616H268.103C266.339 74.4616 264.807 73.246 264.404 71.5274C264.402 71.5208 264.402 71.5174 264.4 71.5107L259.377 49.5742C259.274 49.1273 259.558 48.6803 260.009 48.5926C268.188 46.976 276.367 46.976 284.545 48.5926C284.997 48.6795 285.281 49.1256 285.178 49.5734Z" fill="#FBC343"/>
<path opacity="0.6" d="M266.806 55.8368C266.989 57.3348 266.689 58.6039 266.137 58.6715C265.585 58.7392 264.99 57.5788 264.807 56.0808C264.624 54.5828 264.924 53.3138 265.476 53.2461C266.028 53.1784 266.623 54.3389 266.806 55.8368Z" fill="white"/>
<path opacity="0.1" d="M282.798 59.9697L280.155 71.509C279.761 73.2367 278.224 74.4607 276.453 74.4607H268.104C266.34 74.4607 264.808 73.2451 264.405 71.5266C273.58 70.9476 279.683 65.1312 282.798 59.9697Z" fill="#6F3428"/>
<g opacity="0.3">
<path d="M269.704 83.8679C270.126 83.7618 270.554 83.6992 270.985 83.654C271.415 83.6073 271.847 83.588 272.279 83.5805C273.142 83.578 274.016 83.6365 274.854 83.8679C274.419 83.8796 273.992 83.8788 273.564 83.8813L272.281 83.8938C271.426 83.898 270.571 83.9114 269.704 83.8679Z" fill="#6F3428"/>
</g>
<g opacity="0.3">
<path d="M268.125 87.534C269.503 87.3468 270.89 87.275 272.277 87.2524C272.971 87.2457 273.666 87.2533 274.36 87.2909C275.053 87.3259 275.75 87.3903 276.431 87.5348C275.737 87.5114 275.046 87.5298 274.355 87.5356L272.281 87.5657C270.899 87.5783 269.515 87.5933 268.125 87.534Z" fill="#6F3428"/>
</g>
<path d="M268.545 32.9989L269.405 39.1879C269.455 39.5463 268.974 39.7117 268.792 39.3985L265.668 33.9872C265.477 33.6555 265.636 33.232 265.999 33.1075L267.743 32.5085C268.106 32.384 268.492 32.6196 268.545 32.9989Z" fill="#FBC343"/>
<path d="M277.184 29.2936L273.802 39.9181C273.605 40.5338 272.705 40.4293 272.655 39.7852L271.792 28.6687C271.74 27.9869 272.323 27.4289 273.002 27.5074L276.271 27.8859C276.951 27.9652 277.391 28.6419 277.184 29.2936Z" fill="#FBC343"/>
<path d="M281.132 35.8027L277.098 39.65C276.864 39.873 276.494 39.6107 276.627 39.3166L278.918 34.2345C279.059 33.9229 279.449 33.8185 279.728 34.0157L281.07 34.9672C281.349 35.1636 281.38 35.5663 281.132 35.8027Z" fill="#FBC343"/>
<path d="M284.515 103.677V112.547L187.213 149.604H164.359V141.074H187.008L187.033 136.375L187.061 131.663H209.812V122.254H232.461V113.08H255.113V103.669L284.515 103.677Z" fill="white"/>
<path d="M232.216 122.498H209.878C209.628 122.498 209.424 122.293 209.424 122.043C209.424 121.793 209.628 121.589 209.878 121.589H232.216C232.466 121.589 232.671 121.793 232.671 122.043C232.671 122.293 232.466 122.498 232.216 122.498Z" fill="#ACBFEE"/>
<path d="M254.913 113.446H232.575C232.325 113.446 232.12 113.242 232.12 112.992C232.12 112.742 232.325 112.537 232.575 112.537H254.913C255.163 112.537 255.368 112.742 255.368 112.992C255.368 113.242 255.163 113.446 254.913 113.446Z" fill="#ACBFEE"/>
<path d="M284.529 103.915H255.071C254.822 103.915 254.617 103.71 254.617 103.46C254.617 103.21 254.822 103.006 255.071 103.006H284.529C284.779 103.006 284.984 103.21 284.984 103.46C284.984 103.71 284.779 103.915 284.529 103.915Z" fill="#ACBFEE"/>
<path d="M209.548 131.854H187.21C186.96 131.854 186.755 131.649 186.755 131.399C186.755 131.15 186.96 130.945 187.21 130.945H209.548C209.798 130.945 210.003 131.15 210.003 131.399C210.003 131.649 209.798 131.854 209.548 131.854Z" fill="#ACBFEE"/>
<path d="M186.793 141.264H164.454C164.205 141.264 164 141.059 164 140.809C164 140.559 164.205 140.355 164.454 140.355H186.793C187.043 140.355 187.247 140.559 187.247 140.809C187.247 141.059 187.043 141.264 186.793 141.264Z" fill="#ACBFEE"/>
<path d="M211.736 91.2568L211.612 89.8524L213.851 89.6544C225.478 88.6259 235.258 80.7685 238.767 69.6361L241.632 60.5497L242.976 60.9733L240.112 70.0597C236.43 81.7368 226.17 89.9785 213.975 91.0579L211.736 91.2568Z" fill="#DEE5F8"/>
<path d="M242.341 69.1699L241.728 62.4812L237.182 67.7496L236.115 66.8289L242.829 59.0483L243.744 69.0412L242.341 69.1699Z" fill="#DEE5F8"/>
<path d="M190.214 42.4997C190.214 42.7403 190.124 42.9717 189.953 43.1889H164.414C164.316 42.9717 164.264 42.7403 164.264 42.4997C164.264 41.2181 165.753 40.1796 167.59 40.1796C168.172 40.1796 168.72 40.2849 169.195 40.4687C169.446 38.6491 171.939 37.2196 174.979 37.2196C178.148 37.2196 180.722 38.7719 180.784 40.6993C181.778 40.3759 183.048 40.1796 184.431 40.1796C187.625 40.1796 190.214 41.2181 190.214 42.4997Z" fill="#DEE5F8"/>
<path d="M234.729 25.3203C234.729 25.6077 234.62 25.8851 234.417 26.1449H203.849C203.732 25.8851 203.671 25.6077 203.671 25.3203C203.671 23.7864 205.453 22.5433 207.651 22.5433C208.348 22.5433 209.003 22.6686 209.572 22.8892C209.872 20.7111 212.857 19.0001 216.495 19.0001C220.288 19.0001 223.369 20.8573 223.443 23.1649C224.633 22.7772 226.153 22.5433 227.808 22.5433C231.63 22.5433 234.729 23.7864 234.729 25.3203Z" fill="#DEE5F8"/>
</svg>
