<svg width="300" height="115" viewBox="0 0 300 115" fill="none" xmlns="http://www.w3.org/2000/svg">
<rect width="300" height="115" rx="20" fill="#ADBEC4"/>
<path d="M238.769 70C191.877 70 169.385 100 164 115H299.692V35C298.923 46.6667 285.662 70 238.769 70Z" fill="#CAD5E0"/>
<path d="M223.34 84.7453H209.893C209.56 84.7453 209.291 84.4758 209.291 84.1431V82.8739C209.291 82.5412 209.56 82.2717 209.893 82.2717H223.34C223.673 82.2717 223.943 82.5412 223.943 82.8739V84.1431C223.942 84.4758 223.673 84.7453 223.34 84.7453Z" stroke="#DEE5F8" stroke-width="5" stroke-miterlimit="10"/>
<path d="M231.352 84.7198H225.878C225.462 84.7198 225.125 84.3823 225.125 83.9659V82.9995C225.125 82.5831 225.462 82.2456 225.878 82.2456H231.352C231.768 82.2456 232.106 82.5831 232.106 82.9995V83.9659C232.106 84.3823 231.768 84.7198 231.352 84.7198Z" stroke="#DEE5F8" stroke-width="3.75" stroke-miterlimit="10"/>
<path d="M228.009 51.3119H222.536C222.119 51.3119 221.782 50.9744 221.782 50.558V49.5917C221.782 49.1753 222.119 48.8378 222.536 48.8378H228.009C228.425 48.8378 228.763 49.1753 228.763 49.5917V50.558C228.762 50.9744 228.425 51.3119 228.009 51.3119Z" stroke="#DEE5F8" stroke-width="5" stroke-miterlimit="10"/>
<path d="M236.266 51.3119H230.793C230.376 51.3119 230.039 50.9744 230.039 50.558V49.5917C230.039 49.1753 230.376 48.8378 230.793 48.8378H236.266C236.683 48.8378 237.02 49.1753 237.02 49.5917V50.558C237.02 50.9744 236.683 51.3119 236.266 51.3119Z" stroke="#DEE5F8" stroke-width="5" stroke-miterlimit="10"/>
<path d="M257.236 73.5635H251.763C251.347 73.5635 251.009 73.226 251.009 72.8096V71.8433C251.009 71.4269 251.347 71.0894 251.763 71.0894H257.236C257.653 71.0894 257.99 71.4269 257.99 71.8433V72.8096C257.99 73.226 257.653 73.5635 257.236 73.5635Z" stroke="#DEE5F8" stroke-width="5" stroke-miterlimit="10"/>
<path d="M283.443 40.2736V40.9862C283.683 40.9862 283.951 41.0511 284.132 41.5331C284.329 42.0624 284.339 42.8971 284.158 43.8847C283.955 44.9961 283.517 46.2787 282.893 47.5929C281.607 50.3026 279.607 53.0086 277.188 55.3328L276.829 47.4156L278.941 44.4911H280.722C281.4 44.4911 281.951 43.9399 281.951 43.2625V41.595C281.961 41.5786 282.005 41.5216 282.142 41.4421C282.79 41.0657 283.207 40.9868 283.444 40.9868L283.443 40.2736ZM283.442 40.2736C282.986 40.2736 282.432 40.4478 281.782 40.8253C281.484 40.9983 281.236 41.2423 281.236 41.5865V43.2619C281.236 43.5466 281.005 43.7778 280.72 43.7778H278.575L276.104 47.1995L276.543 56.8856C284.843 49.6828 286.795 40.2736 283.442 40.2736Z" fill="#FBC343"/>
<path d="M257.9 40.2736V40.9862C258.137 40.9862 258.554 41.0651 259.202 41.4414C259.338 41.5204 259.382 41.578 259.393 41.5944V43.2619C259.393 43.9393 259.944 44.4905 260.622 44.4905H262.402L264.514 47.415L264.156 55.3322C261.737 53.008 259.737 50.302 258.45 47.5923C257.826 46.2781 257.389 44.9955 257.185 43.884C257.004 42.8971 257.014 42.0618 257.211 41.5325C257.391 41.0505 257.661 40.9856 257.9 40.9856V40.2736M257.9 40.2736C254.548 40.2736 256.499 49.6828 264.798 56.885L265.237 47.1989L262.766 43.7772H260.621C260.336 43.7772 260.105 43.5459 260.105 43.2613V41.5859C260.105 41.2417 259.857 40.9977 259.559 40.8247C258.91 40.4478 258.356 40.2736 257.9 40.2736Z" fill="#FBC343"/>
<path d="M277.657 74.0732H263.686V81.3234H277.657V74.0732Z" fill="#6F3428"/>
<path d="M275.518 74.0731H265.824V71.7076C265.824 70.6508 266.681 69.7949 267.737 69.7949H273.605C274.662 69.7949 275.518 70.6514 275.518 71.7076V74.0731H275.518Z" fill="#FBC343"/>
<path d="M273.689 69.7942H267.654V68.3216C267.654 67.6636 268.187 67.1306 268.845 67.1306H272.498C273.156 67.1306 273.689 67.6636 273.689 68.3216V69.7942Z" fill="#FBC343"/>
<path d="M272.355 66.3859L272.543 67.1307H268.8L268.987 66.3859C269.236 65.3965 269.236 64.3991 268.987 63.4097L268.8 62.6643H272.543L272.355 63.4097C272.273 63.7357 272.218 64.0622 272.191 64.39C272.133 65.0565 272.188 65.723 272.355 66.3859Z" fill="#FBC343"/>
<path opacity="0.3" d="M272.543 62.6648L272.355 63.4102C272.273 63.7362 272.218 64.0627 272.191 64.3905C271.986 63.0272 268.8 62.6654 268.8 62.6654H272.543V62.6648Z" fill="#6F3428"/>
<path d="M273.689 60.002V61.474C273.689 61.5954 273.671 61.7119 273.637 61.823C273.489 62.3098 273.034 62.6649 272.497 62.6649H268.844C268.187 62.6649 267.653 62.1326 267.653 61.474V60.002H273.689Z" fill="#FBC343"/>
<path opacity="0.3" d="M273.689 60.002V61.474C273.689 61.5954 273.671 61.7119 273.637 61.823C272.026 60.3419 267.933 60.2982 267.653 60.2964V60.002H273.689Z" fill="#6F3428"/>
<path d="M280.044 42.2135L278.314 49.7678L276.394 58.1518C276.107 59.4071 274.99 60.2964 273.703 60.2964H267.638C266.356 60.2964 265.243 59.4132 264.95 58.1645C264.948 58.1597 264.948 58.1572 264.947 58.1524L261.297 42.2142C261.223 41.8894 261.429 41.5647 261.757 41.5009C267.699 40.3264 273.642 40.3264 279.583 41.5009C279.912 41.564 280.118 41.8882 280.044 42.2135Z" fill="#FBC343"/>
<path opacity="0.6" d="M266.695 46.7644C266.828 47.8528 266.61 48.7748 266.209 48.824C265.808 48.8731 265.376 48.03 265.243 46.9416C265.11 45.8533 265.328 44.9312 265.729 44.8821C266.13 44.8329 266.562 45.676 266.695 46.7644Z" fill="white"/>
<path opacity="0.1" d="M278.314 49.7672L276.394 58.1512C276.108 59.4065 274.991 60.2958 273.704 60.2958H267.638C266.356 60.2958 265.244 59.4126 264.95 58.164C271.617 57.7433 276.051 53.5173 278.314 49.7672Z" fill="#6F3428"/>
<g opacity="0.3">
<path d="M268.8 67.1307C269.107 67.0537 269.418 67.0081 269.731 66.9753C270.044 66.9414 270.357 66.9274 270.671 66.9219C271.298 66.9201 271.933 66.9626 272.543 67.1307C272.226 67.1392 271.916 67.1386 271.605 67.1405L270.673 67.1496C270.052 67.1526 269.431 67.1623 268.8 67.1307Z" fill="#6F3428"/>
</g>
<g opacity="0.3">
<path d="M267.653 69.7943C268.655 69.6583 269.663 69.6061 270.67 69.5897C271.174 69.5849 271.679 69.5903 272.183 69.6176C272.687 69.6431 273.193 69.6899 273.688 69.7949C273.184 69.7779 272.682 69.7912 272.18 69.7955L270.673 69.8174C269.669 69.8265 268.663 69.8374 267.653 69.7943Z" fill="#6F3428"/>
</g>
<path d="M267.959 30.1713L268.583 34.668C268.62 34.9284 268.27 35.0486 268.138 34.821L265.868 30.8894C265.729 30.6484 265.845 30.3407 266.109 30.2502L267.376 29.815C267.64 29.7245 267.921 29.8957 267.959 30.1713Z" fill="#FBC343"/>
<path d="M274.235 27.4792L271.778 35.1985C271.635 35.6459 270.981 35.57 270.945 35.102L270.318 27.0251C270.28 26.5298 270.704 26.1243 271.197 26.1814L273.572 26.4564C274.066 26.514 274.386 27.0057 274.235 27.4792Z" fill="#FBC343"/>
<path d="M277.104 32.2084L274.173 35.0037C274.003 35.1657 273.734 34.9751 273.83 34.7615L275.495 31.069C275.597 30.8426 275.881 30.7667 276.084 30.91L277.059 31.6014C277.262 31.744 277.284 32.0366 277.104 32.2084Z" fill="#FBC343"/>
<path d="M279.562 81.5234V87.9674L208.866 114.892H192.261V108.694H208.717L208.735 105.28L208.755 101.856H225.285V95.0202H241.741V88.3553H258.199V81.5173L279.562 81.5234Z" fill="white"/>
<path d="M241.563 95.1975H225.333C225.152 95.1975 225.003 95.0488 225.003 94.8673C225.003 94.6858 225.152 94.5371 225.333 94.5371H241.563C241.745 94.5371 241.894 94.6858 241.894 94.8673C241.894 95.0488 241.745 95.1975 241.563 95.1975Z" fill="#ACBFEE"/>
<path d="M258.054 88.6214H241.824C241.642 88.6214 241.494 88.4726 241.494 88.2911C241.494 88.1097 241.642 87.9609 241.824 87.9609H258.054C258.236 87.9609 258.384 88.1097 258.384 88.2911C258.384 88.4726 258.236 88.6214 258.054 88.6214Z" fill="#ACBFEE"/>
<path d="M279.572 81.6958H258.169C257.987 81.6958 257.839 81.5471 257.839 81.3656C257.839 81.1841 257.987 81.0354 258.169 81.0354H279.572C279.754 81.0354 279.902 81.1841 279.902 81.3656C279.902 81.5471 279.754 81.6958 279.572 81.6958Z" fill="#ACBFEE"/>
<path d="M225.094 101.995H208.863C208.682 101.995 208.533 101.847 208.533 101.665C208.533 101.484 208.682 101.335 208.863 101.335H225.094C225.275 101.335 225.424 101.484 225.424 101.665C225.424 101.847 225.275 101.995 225.094 101.995Z" fill="#ACBFEE"/>
<path d="M208.56 108.832H192.33C192.149 108.832 192 108.683 192 108.502C192 108.32 192.149 108.172 192.33 108.172H208.56C208.742 108.172 208.891 108.32 208.891 108.502C208.891 108.683 208.742 108.832 208.56 108.832Z" fill="#ACBFEE"/>
<path d="M226.683 72.4991L226.593 71.4787L228.22 71.3349C236.668 70.5876 243.773 64.8787 246.323 56.7903L248.405 50.1885L249.381 50.4962L247.3 57.0981C244.625 65.5822 237.171 71.5704 228.31 72.3546L226.683 72.4991Z" fill="#DEE5F8"/>
<path d="M248.919 56.4517L248.474 51.592L245.172 55.4198L244.396 54.7509L249.274 49.0978L249.939 56.3582L248.919 56.4517Z" fill="#DEE5F8"/>
<path d="M211.046 37.074C211.046 37.2488 210.981 37.4169 210.857 37.5748H192.301C192.23 37.4169 192.192 37.2488 192.192 37.074C192.192 36.1428 193.274 35.3883 194.608 35.3883C195.031 35.3883 195.429 35.4648 195.774 35.5983C195.957 34.2763 197.768 33.2377 199.977 33.2377C202.279 33.2377 204.15 34.3655 204.195 35.7659C204.917 35.531 205.84 35.3883 206.844 35.3883C209.165 35.3883 211.046 36.1428 211.046 37.074Z" fill="#DEE5F8"/>
<path d="M243.389 24.5921C243.389 24.801 243.31 25.0025 243.162 25.1913H220.953C220.868 25.0025 220.823 24.801 220.823 24.5921C220.823 23.4777 222.118 22.5744 223.715 22.5744C224.222 22.5744 224.697 22.6655 225.111 22.8257C225.329 21.2433 227.498 20.0001 230.141 20.0001C232.897 20.0001 235.135 21.3495 235.189 23.0261C236.054 22.7444 237.158 22.5744 238.36 22.5744C241.137 22.5744 243.389 23.4777 243.389 24.5921Z" fill="#DEE5F8"/>
</svg>
