<svg width="300" height="150" viewBox="0 0 300 150" fill="none" xmlns="http://www.w3.org/2000/svg">
<mask id="mask0_933_9064" style="mask-type:alpha" maskUnits="userSpaceOnUse" x="0" y="0" width="300" height="150">
<rect width="300" height="150" rx="20" fill="#73BDC0"/>
</mask>
<g mask="url(#mask0_933_9064)">
<rect y="-1" width="300" height="150" rx="20" fill="#73BDC0"/>
<path opacity="0.1" fill-rule="evenodd" clip-rule="evenodd" d="M80.619 -1C79.5985 5.9096 73.3451 25.3399 47.5834 34.1535C22.5888 42.7047 6.12302 39.7638 6.41017e-05 37L7.02785e-05 19C6.93871e-05 7.95431 8.95439 -0.999993 20.0001 -0.999994L80.619 -1Z" fill="#006838"/>
<path opacity="0.1" fill-rule="evenodd" clip-rule="evenodd" d="M164.308 149H280C291.037 149 299.986 140.059 300 129.025C300 129.017 300 129.008 300 129L300 69C299.231 80.6667 285.969 104 239.077 104C192.185 104 169.692 134 164.308 149Z" fill="#006838"/>
<path d="M31.6 27.04V41H28.8V31.92L25.06 41H22.94L19.18 31.92V41H16.38V27.04H19.56L24 37.42L28.44 27.04H31.6ZM44.9683 29.92L38.1083 46.24H35.1283L37.5283 40.72L33.0883 29.92H36.2283L39.0883 37.66L41.9883 29.92H44.9683ZM56.0633 41.14C55.0899 41.14 54.2099 40.9733 53.4233 40.64C52.6499 40.3067 52.0366 39.8267 51.5833 39.2C51.1299 38.5733 50.8966 37.8333 50.8833 36.98H53.8833C53.9233 37.5533 54.1233 38.0067 54.4833 38.34C54.8566 38.6733 55.3633 38.84 56.0033 38.84C56.6566 38.84 57.1699 38.6867 57.5433 38.38C57.9166 38.06 58.1033 37.6467 58.1033 37.14C58.1033 36.7267 57.9766 36.3867 57.7233 36.12C57.4699 35.8533 57.1499 35.6467 56.7633 35.5C56.3899 35.34 55.8699 35.1667 55.2033 34.98C54.2966 34.7133 53.5566 34.4533 52.9833 34.2C52.4233 33.9333 51.9366 33.54 51.5233 33.02C51.1233 32.4867 50.9233 31.78 50.9233 30.9C50.9233 30.0733 51.1299 29.3533 51.5433 28.74C51.9566 28.1267 52.5366 27.66 53.2833 27.34C54.0299 27.0067 54.8833 26.84 55.8433 26.84C57.2833 26.84 58.4499 27.1933 59.3433 27.9C60.2499 28.5933 60.7499 29.5667 60.8433 30.82H57.7633C57.7366 30.34 57.5299 29.9467 57.1433 29.64C56.7699 29.32 56.2699 29.16 55.6433 29.16C55.0966 29.16 54.6566 29.3 54.3233 29.58C54.0033 29.86 53.8433 30.2667 53.8433 30.8C53.8433 31.1733 53.9633 31.4867 54.2033 31.74C54.4566 31.98 54.7633 32.18 55.1233 32.34C55.4966 32.4867 56.0166 32.66 56.6833 32.86C57.5899 33.1267 58.3299 33.3933 58.9033 33.66C59.4766 33.9267 59.9699 34.3267 60.3833 34.86C60.7966 35.3933 61.0033 36.0933 61.0033 36.96C61.0033 37.7067 60.8099 38.4 60.4233 39.04C60.0366 39.68 59.4699 40.1933 58.7233 40.58C57.9766 40.9533 57.0899 41.14 56.0633 41.14ZM66.6908 32.22V37.58C66.6908 37.9533 66.7774 38.2267 66.9508 38.4C67.1374 38.56 67.4441 38.64 67.8708 38.64H69.1708V41H67.4108C65.0508 41 63.8708 39.8533 63.8708 37.56V32.22H62.5508V29.92H63.8708V27.18H66.6908V29.92H69.1708V32.22H66.6908ZM81.6447 29.92V41H78.8247V39.6C78.4647 40.08 77.9914 40.46 77.4047 40.74C76.8314 41.0067 76.2047 41.14 75.5247 41.14C74.658 41.14 73.8914 40.96 73.2247 40.6C72.558 40.2267 72.0314 39.6867 71.6447 38.98C71.2714 38.26 71.0847 37.4067 71.0847 36.42V29.92H73.8847V36.02C73.8847 36.9 74.1047 37.58 74.5447 38.06C74.9847 38.5267 75.5847 38.76 76.3447 38.76C77.118 38.76 77.7247 38.5267 78.1647 38.06C78.6047 37.58 78.8247 36.9 78.8247 36.02V29.92H81.6447ZM83.6873 35.42C83.6873 34.3 83.9073 33.3067 84.3473 32.44C84.8007 31.5733 85.414 30.9067 86.1873 30.44C86.9607 29.9733 87.8207 29.74 88.7673 29.74C89.4873 29.74 90.174 29.9 90.8273 30.22C91.4807 30.5267 92.0007 30.94 92.3873 31.46V26.2H95.2273V41H92.3873V39.36C92.0407 39.9067 91.554 40.3467 90.9273 40.68C90.3007 41.0133 89.574 41.18 88.7473 41.18C87.814 41.18 86.9607 40.94 86.1873 40.46C85.414 39.98 84.8007 39.3067 84.3473 38.44C83.9073 37.56 83.6873 36.5533 83.6873 35.42ZM92.4073 35.46C92.4073 34.78 92.274 34.2 92.0073 33.72C91.7407 33.2267 91.3807 32.8533 90.9273 32.6C90.474 32.3333 89.9873 32.2 89.4673 32.2C88.9473 32.2 88.4673 32.3267 88.0273 32.58C87.5873 32.8333 87.2273 33.2067 86.9473 33.7C86.6807 34.18 86.5473 34.7533 86.5473 35.42C86.5473 36.0867 86.6807 36.6733 86.9473 37.18C87.2273 37.6733 87.5873 38.0533 88.0273 38.32C88.4807 38.5867 88.9607 38.72 89.4673 38.72C89.9873 38.72 90.474 38.5933 90.9273 38.34C91.3807 38.0733 91.7407 37.7 92.0073 37.22C92.274 36.7267 92.4073 36.14 92.4073 35.46ZM108.562 29.92L101.702 46.24H98.722L101.122 40.72L96.682 29.92H99.822L102.682 37.66L105.582 29.92H108.562Z" fill="white"/>
<path d="M22.752 59H21.384L17.268 52.772V59H15.9V50.648H17.268L21.384 56.864V50.648H22.752V59ZM30.5364 52.388V59H29.1684V58.22C28.9524 58.492 28.6684 58.708 28.3164 58.868C27.9724 59.02 27.6044 59.096 27.2124 59.096C26.6924 59.096 26.2244 58.988 25.8084 58.772C25.4004 58.556 25.0764 58.236 24.8364 57.812C24.6044 57.388 24.4884 56.876 24.4884 56.276V52.388H25.8444V56.072C25.8444 56.664 25.9924 57.12 26.2884 57.44C26.5844 57.752 26.9884 57.908 27.5004 57.908C28.0124 57.908 28.4164 57.752 28.7124 57.44C29.0164 57.12 29.1684 56.664 29.1684 56.072V52.388H30.5364ZM40.3454 52.28C40.8654 52.28 41.3294 52.388 41.7374 52.604C42.1534 52.82 42.4774 53.14 42.7094 53.564C42.9494 53.988 43.0694 54.5 43.0694 55.1V59H41.7134V55.304C41.7134 54.712 41.5654 54.26 41.2694 53.948C40.9734 53.628 40.5694 53.468 40.0574 53.468C39.5454 53.468 39.1374 53.628 38.8334 53.948C38.5374 54.26 38.3894 54.712 38.3894 55.304V59H37.0334V55.304C37.0334 54.712 36.8854 54.26 36.5894 53.948C36.2934 53.628 35.8894 53.468 35.3774 53.468C34.8654 53.468 34.4574 53.628 34.1534 53.948C33.8574 54.26 33.7094 54.712 33.7094 55.304V59H32.3414V52.388H33.7094V53.144C33.9334 52.872 34.2174 52.66 34.5614 52.508C34.9054 52.356 35.2734 52.28 35.6654 52.28C36.1934 52.28 36.6654 52.392 37.0814 52.616C37.4974 52.84 37.8174 53.164 38.0414 53.588C38.2414 53.188 38.5534 52.872 38.9774 52.64C39.4014 52.4 39.8574 52.28 40.3454 52.28ZM46.1782 53.372C46.4102 53.052 46.7262 52.792 47.1262 52.592C47.5342 52.384 47.9862 52.28 48.4822 52.28C49.0662 52.28 49.5942 52.42 50.0662 52.7C50.5382 52.98 50.9102 53.38 51.1822 53.9C51.4542 54.412 51.5902 55 51.5902 55.664C51.5902 56.328 51.4542 56.924 51.1822 57.452C50.9102 57.972 50.5342 58.38 50.0542 58.676C49.5822 58.964 49.0582 59.108 48.4822 59.108C47.9702 59.108 47.5142 59.008 47.1142 58.808C46.7222 58.608 46.4102 58.352 46.1782 58.04V59H44.8102V50.12H46.1782V53.372ZM50.1982 55.664C50.1982 55.208 50.1022 54.816 49.9102 54.488C49.7262 54.152 49.4782 53.9 49.1662 53.732C48.8622 53.556 48.5342 53.468 48.1822 53.468C47.8382 53.468 47.5102 53.556 47.1982 53.732C46.8942 53.908 46.6462 54.164 46.4542 54.5C46.2702 54.836 46.1782 55.232 46.1782 55.688C46.1782 56.144 46.2702 56.544 46.4542 56.888C46.6462 57.224 46.8942 57.48 47.1982 57.656C47.5102 57.832 47.8382 57.92 48.1822 57.92C48.5342 57.92 48.8622 57.832 49.1662 57.656C49.4782 57.472 49.7262 57.208 49.9102 56.864C50.1022 56.52 50.1982 56.12 50.1982 55.664ZM59.003 55.532C59.003 55.78 58.987 56.004 58.955 56.204H53.903C53.943 56.732 54.139 57.156 54.491 57.476C54.843 57.796 55.275 57.956 55.787 57.956C56.523 57.956 57.043 57.648 57.347 57.032H58.823C58.623 57.64 58.259 58.14 57.731 58.532C57.211 58.916 56.563 59.108 55.787 59.108C55.155 59.108 54.587 58.968 54.083 58.688C53.587 58.4 53.195 58 52.907 57.488C52.627 56.968 52.487 56.368 52.487 55.688C52.487 55.008 52.623 54.412 52.895 53.9C53.175 53.38 53.563 52.98 54.059 52.7C54.563 52.42 55.139 52.28 55.787 52.28C56.411 52.28 56.967 52.416 57.455 52.688C57.943 52.96 58.323 53.344 58.595 53.84C58.867 54.328 59.003 54.892 59.003 55.532ZM57.575 55.1C57.567 54.596 57.387 54.192 57.035 53.888C56.683 53.584 56.247 53.432 55.727 53.432C55.255 53.432 54.851 53.584 54.515 53.888C54.179 54.184 53.979 54.588 53.915 55.1H57.575ZM61.7172 53.348C61.9172 53.012 62.1812 52.752 62.5092 52.568C62.8452 52.376 63.2412 52.28 63.6972 52.28V53.696H63.3492C62.8132 53.696 62.4052 53.832 62.1252 54.104C61.8532 54.376 61.7172 54.848 61.7172 55.52V59H60.3492V52.388H61.7172V53.348ZM70.9399 59.108C70.3159 59.108 69.7519 58.968 69.2479 58.688C68.7439 58.4 68.3479 58 68.0599 57.488C67.7719 56.968 67.6279 56.368 67.6279 55.688C67.6279 55.016 67.7759 54.42 68.0719 53.9C68.3679 53.38 68.7719 52.98 69.2839 52.7C69.7959 52.42 70.3679 52.28 70.9999 52.28C71.6319 52.28 72.2039 52.42 72.7159 52.7C73.2279 52.98 73.6319 53.38 73.9279 53.9C74.2239 54.42 74.3719 55.016 74.3719 55.688C74.3719 56.36 74.2199 56.956 73.9159 57.476C73.6119 57.996 73.1959 58.4 72.6679 58.688C72.1479 58.968 71.5719 59.108 70.9399 59.108ZM70.9399 57.92C71.2919 57.92 71.6199 57.836 71.9239 57.668C72.2359 57.5 72.4879 57.248 72.6799 56.912C72.8719 56.576 72.9679 56.168 72.9679 55.688C72.9679 55.208 72.8759 54.804 72.6919 54.476C72.5079 54.14 72.2639 53.888 71.9599 53.72C71.6559 53.552 71.3279 53.468 70.9759 53.468C70.6239 53.468 70.2959 53.552 69.9919 53.72C69.6959 53.888 69.4599 54.14 69.2839 54.476C69.1079 54.804 69.0199 55.208 69.0199 55.688C69.0199 56.4 69.1999 56.952 69.5599 57.344C69.9279 57.728 70.3879 57.92 70.9399 57.92ZM78.4962 53.504H77.2722V59H75.8922V53.504H75.1122V52.388H75.8922V51.92C75.8922 51.16 76.0922 50.608 76.4922 50.264C76.9002 49.912 77.5362 49.736 78.4002 49.736V50.876C77.9842 50.876 77.6922 50.956 77.5242 51.116C77.3562 51.268 77.2722 51.536 77.2722 51.92V52.388H78.4962V53.504ZM84.1938 53.36C84.4258 53.056 84.7418 52.8 85.1418 52.592C85.5418 52.384 85.9938 52.28 86.4978 52.28C87.0738 52.28 87.5978 52.424 88.0698 52.712C88.5498 52.992 88.9258 53.388 89.1978 53.9C89.4698 54.412 89.6058 55 89.6058 55.664C89.6058 56.328 89.4698 56.924 89.1978 57.452C88.9258 57.972 88.5498 58.38 88.0698 58.676C87.5978 58.964 87.0738 59.108 86.4978 59.108C85.9938 59.108 85.5458 59.008 85.1538 58.808C84.7618 58.6 84.4418 58.344 84.1938 58.04V62.144H82.8258V52.388H84.1938V53.36ZM88.2138 55.664C88.2138 55.208 88.1178 54.816 87.9258 54.488C87.7418 54.152 87.4938 53.9 87.1818 53.732C86.8778 53.556 86.5498 53.468 86.1978 53.468C85.8538 53.468 85.5258 53.556 85.2138 53.732C84.9098 53.908 84.6618 54.164 84.4698 54.5C84.2858 54.836 84.1938 55.232 84.1938 55.688C84.1938 56.144 84.2858 56.544 84.4698 56.888C84.6618 57.224 84.9098 57.48 85.2138 57.656C85.5258 57.832 85.8538 57.92 86.1978 57.92C86.5498 57.92 86.8778 57.832 87.1818 57.656C87.4938 57.472 87.7418 57.208 87.9258 56.864C88.1178 56.52 88.2138 56.12 88.2138 55.664ZM92.3266 53.348C92.5266 53.012 92.7906 52.752 93.1186 52.568C93.4546 52.376 93.8506 52.28 94.3066 52.28V53.696H93.9586C93.4226 53.696 93.0146 53.832 92.7346 54.104C92.4626 54.376 92.3266 54.848 92.3266 55.52V59H90.9586V52.388H92.3266V53.348ZM101.624 55.532C101.624 55.78 101.608 56.004 101.576 56.204H96.5241C96.5641 56.732 96.7601 57.156 97.1121 57.476C97.4641 57.796 97.8961 57.956 98.4081 57.956C99.1441 57.956 99.6641 57.648 99.9681 57.032H101.444C101.244 57.64 100.88 58.14 100.352 58.532C99.8321 58.916 99.1841 59.108 98.4081 59.108C97.7761 59.108 97.2081 58.968 96.7041 58.688C96.2081 58.4 95.8161 58 95.5281 57.488C95.2481 56.968 95.1081 56.368 95.1081 55.688C95.1081 55.008 95.2441 54.412 95.5161 53.9C95.7961 53.38 96.1841 52.98 96.6801 52.7C97.1841 52.42 97.7601 52.28 98.4081 52.28C99.0321 52.28 99.5881 52.416 100.076 52.688C100.564 52.96 100.944 53.344 101.216 53.84C101.488 54.328 101.624 54.892 101.624 55.532ZM100.196 55.1C100.188 54.596 100.008 54.192 99.6561 53.888C99.3041 53.584 98.8681 53.432 98.3481 53.432C97.8761 53.432 97.4721 53.584 97.1361 53.888C96.8001 54.184 96.6001 54.588 96.5361 55.1H100.196ZM105.37 59.108C104.85 59.108 104.382 59.016 103.966 58.832C103.558 58.64 103.234 58.384 102.994 58.064C102.754 57.736 102.626 57.372 102.61 56.972H104.026C104.05 57.252 104.182 57.488 104.422 57.68C104.67 57.864 104.978 57.956 105.346 57.956C105.73 57.956 106.026 57.884 106.234 57.74C106.45 57.588 106.558 57.396 106.558 57.164C106.558 56.916 106.438 56.732 106.198 56.612C105.966 56.492 105.594 56.36 105.082 56.216C104.586 56.08 104.182 55.948 103.87 55.82C103.558 55.692 103.286 55.496 103.054 55.232C102.83 54.968 102.718 54.62 102.718 54.188C102.718 53.836 102.822 53.516 103.03 53.228C103.238 52.932 103.534 52.7 103.918 52.532C104.31 52.364 104.758 52.28 105.262 52.28C106.014 52.28 106.618 52.472 107.074 52.856C107.538 53.232 107.786 53.748 107.818 54.404H106.45C106.426 54.108 106.306 53.872 106.09 53.696C105.874 53.52 105.582 53.432 105.214 53.432C104.854 53.432 104.578 53.5 104.386 53.636C104.194 53.772 104.098 53.952 104.098 54.176C104.098 54.352 104.162 54.5 104.29 54.62C104.418 54.74 104.574 54.836 104.758 54.908C104.942 54.972 105.214 55.056 105.574 55.16C106.054 55.288 106.446 55.42 106.75 55.556C107.062 55.684 107.33 55.876 107.554 56.132C107.778 56.388 107.894 56.728 107.902 57.152C107.902 57.528 107.798 57.864 107.59 58.16C107.382 58.456 107.086 58.688 106.702 58.856C106.326 59.024 105.882 59.108 105.37 59.108ZM115.44 55.532C115.44 55.78 115.424 56.004 115.392 56.204H110.34C110.38 56.732 110.576 57.156 110.928 57.476C111.28 57.796 111.712 57.956 112.224 57.956C112.96 57.956 113.48 57.648 113.784 57.032H115.26C115.06 57.64 114.696 58.14 114.168 58.532C113.648 58.916 113 59.108 112.224 59.108C111.592 59.108 111.024 58.968 110.52 58.688C110.024 58.4 109.632 58 109.344 57.488C109.064 56.968 108.924 56.368 108.924 55.688C108.924 55.008 109.06 54.412 109.332 53.9C109.612 53.38 110 52.98 110.496 52.7C111 52.42 111.576 52.28 112.224 52.28C112.848 52.28 113.404 52.416 113.892 52.688C114.38 52.96 114.76 53.344 115.032 53.84C115.304 54.328 115.44 54.892 115.44 55.532ZM114.012 55.1C114.004 54.596 113.824 54.192 113.472 53.888C113.12 53.584 112.684 53.432 112.164 53.432C111.692 53.432 111.288 53.584 110.952 53.888C110.616 54.184 110.416 54.588 110.352 55.1H114.012ZM118.383 53.504V57.164C118.383 57.412 118.439 57.592 118.551 57.704C118.671 57.808 118.871 57.86 119.151 57.86H119.991V59H118.911C118.295 59 117.823 58.856 117.495 58.568C117.167 58.28 117.003 57.812 117.003 57.164V53.504H116.223V52.388H117.003V50.744H118.383V52.388H119.991V53.504H118.383ZM123.913 55.664C123.913 55 124.049 54.412 124.321 53.9C124.601 53.388 124.977 52.992 125.449 52.712C125.929 52.424 126.461 52.28 127.045 52.28C127.557 52.28 128.009 52.384 128.401 52.592C128.801 52.8 129.109 53.052 129.325 53.348V52.388H130.705V62.144H129.325V58.04C129.109 58.336 128.797 58.588 128.389 58.796C127.981 59.004 127.517 59.108 126.997 59.108C126.429 59.108 125.909 58.964 125.437 58.676C124.973 58.38 124.601 57.972 124.321 57.452C124.049 56.924 123.913 56.328 123.913 55.664ZM129.325 55.688C129.325 55.232 129.229 54.836 129.037 54.5C128.853 54.164 128.609 53.908 128.305 53.732C128.001 53.556 127.673 53.468 127.321 53.468C126.969 53.468 126.641 53.556 126.337 53.732C126.033 53.9 125.785 54.152 125.593 54.488C125.409 54.816 125.317 55.208 125.317 55.664C125.317 56.12 125.409 56.52 125.593 56.864C125.785 57.208 126.033 57.472 126.337 57.656C126.649 57.832 126.977 57.92 127.321 57.92C127.673 57.92 128.001 57.832 128.305 57.656C128.609 57.48 128.853 57.224 129.037 56.888C129.229 56.544 129.325 56.144 129.325 55.688ZM138.49 52.388V59H137.122V58.22C136.906 58.492 136.622 58.708 136.27 58.868C135.926 59.02 135.558 59.096 135.166 59.096C134.646 59.096 134.178 58.988 133.762 58.772C133.354 58.556 133.03 58.236 132.79 57.812C132.558 57.388 132.442 56.876 132.442 56.276V52.388H133.798V56.072C133.798 56.664 133.946 57.12 134.242 57.44C134.538 57.752 134.942 57.908 135.454 57.908C135.966 57.908 136.37 57.752 136.666 57.44C136.97 57.12 137.122 56.664 137.122 56.072V52.388H138.49ZM146.355 55.532C146.355 55.78 146.339 56.004 146.307 56.204H141.255C141.295 56.732 141.491 57.156 141.843 57.476C142.195 57.796 142.627 57.956 143.139 57.956C143.875 57.956 144.395 57.648 144.699 57.032H146.175C145.975 57.64 145.611 58.14 145.083 58.532C144.563 58.916 143.915 59.108 143.139 59.108C142.507 59.108 141.939 58.968 141.435 58.688C140.939 58.4 140.547 58 140.259 57.488C139.979 56.968 139.839 56.368 139.839 55.688C139.839 55.008 139.975 54.412 140.247 53.9C140.527 53.38 140.915 52.98 141.411 52.7C141.915 52.42 142.491 52.28 143.139 52.28C143.763 52.28 144.319 52.416 144.807 52.688C145.295 52.96 145.675 53.344 145.947 53.84C146.219 54.328 146.355 54.892 146.355 55.532ZM144.927 55.1C144.919 54.596 144.739 54.192 144.387 53.888C144.035 53.584 143.599 53.432 143.079 53.432C142.607 53.432 142.203 53.584 141.867 53.888C141.531 54.184 141.331 54.588 141.267 55.1H144.927ZM150.101 59.108C149.581 59.108 149.113 59.016 148.697 58.832C148.289 58.64 147.965 58.384 147.725 58.064C147.485 57.736 147.357 57.372 147.341 56.972H148.757C148.781 57.252 148.913 57.488 149.153 57.68C149.401 57.864 149.709 57.956 150.077 57.956C150.461 57.956 150.757 57.884 150.965 57.74C151.181 57.588 151.289 57.396 151.289 57.164C151.289 56.916 151.169 56.732 150.929 56.612C150.697 56.492 150.325 56.36 149.813 56.216C149.317 56.08 148.913 55.948 148.601 55.82C148.289 55.692 148.017 55.496 147.785 55.232C147.561 54.968 147.449 54.62 147.449 54.188C147.449 53.836 147.553 53.516 147.761 53.228C147.969 52.932 148.265 52.7 148.649 52.532C149.041 52.364 149.489 52.28 149.993 52.28C150.745 52.28 151.349 52.472 151.805 52.856C152.269 53.232 152.517 53.748 152.549 54.404H151.181C151.157 54.108 151.037 53.872 150.821 53.696C150.605 53.52 150.313 53.432 149.945 53.432C149.585 53.432 149.309 53.5 149.117 53.636C148.925 53.772 148.829 53.952 148.829 54.176C148.829 54.352 148.893 54.5 149.021 54.62C149.149 54.74 149.305 54.836 149.489 54.908C149.673 54.972 149.945 55.056 150.305 55.16C150.785 55.288 151.177 55.42 151.481 55.556C151.793 55.684 152.061 55.876 152.285 56.132C152.509 56.388 152.625 56.728 152.633 57.152C152.633 57.528 152.529 57.864 152.321 58.16C152.113 58.456 151.817 58.688 151.433 58.856C151.057 59.024 150.613 59.108 150.101 59.108ZM155.707 53.504V57.164C155.707 57.412 155.763 57.592 155.875 57.704C155.995 57.808 156.195 57.86 156.475 57.86H157.315V59H156.235C155.619 59 155.147 58.856 154.819 58.568C154.491 58.28 154.327 57.812 154.327 57.164V53.504H153.547V52.388H154.327V50.744H155.707V52.388H157.315V53.504H155.707ZM159.272 51.512C159.024 51.512 158.816 51.428 158.648 51.26C158.48 51.092 158.396 50.884 158.396 50.636C158.396 50.388 158.48 50.18 158.648 50.012C158.816 49.844 159.024 49.76 159.272 49.76C159.512 49.76 159.716 49.844 159.884 50.012C160.052 50.18 160.136 50.388 160.136 50.636C160.136 50.884 160.052 51.092 159.884 51.26C159.716 51.428 159.512 51.512 159.272 51.512ZM159.944 52.388V59H158.576V52.388H159.944ZM164.608 59.108C163.984 59.108 163.42 58.968 162.916 58.688C162.412 58.4 162.016 58 161.728 57.488C161.44 56.968 161.296 56.368 161.296 55.688C161.296 55.016 161.444 54.42 161.74 53.9C162.036 53.38 162.44 52.98 162.952 52.7C163.464 52.42 164.036 52.28 164.668 52.28C165.3 52.28 165.872 52.42 166.384 52.7C166.896 52.98 167.3 53.38 167.596 53.9C167.892 54.42 168.04 55.016 168.04 55.688C168.04 56.36 167.888 56.956 167.584 57.476C167.28 57.996 166.864 58.4 166.336 58.688C165.816 58.968 165.24 59.108 164.608 59.108ZM164.608 57.92C164.96 57.92 165.288 57.836 165.592 57.668C165.904 57.5 166.156 57.248 166.348 56.912C166.54 56.576 166.636 56.168 166.636 55.688C166.636 55.208 166.544 54.804 166.36 54.476C166.176 54.14 165.932 53.888 165.628 53.72C165.324 53.552 164.996 53.468 164.644 53.468C164.292 53.468 163.964 53.552 163.66 53.72C163.364 53.888 163.128 54.14 162.952 54.476C162.776 54.804 162.688 55.208 162.688 55.688C162.688 56.4 162.868 56.952 163.228 57.344C163.596 57.728 164.056 57.92 164.608 57.92ZM172.728 52.28C173.248 52.28 173.712 52.388 174.12 52.604C174.536 52.82 174.86 53.14 175.092 53.564C175.324 53.988 175.44 54.5 175.44 55.1V59H174.084V55.304C174.084 54.712 173.936 54.26 173.64 53.948C173.344 53.628 172.94 53.468 172.428 53.468C171.916 53.468 171.508 53.628 171.204 53.948C170.908 54.26 170.76 54.712 170.76 55.304V59H169.392V52.388H170.76V53.144C170.984 52.872 171.268 52.66 171.612 52.508C171.964 52.356 172.336 52.28 172.728 52.28ZM179.585 59.108C179.065 59.108 178.597 59.016 178.181 58.832C177.773 58.64 177.449 58.384 177.209 58.064C176.969 57.736 176.841 57.372 176.825 56.972H178.241C178.265 57.252 178.397 57.488 178.637 57.68C178.885 57.864 179.193 57.956 179.561 57.956C179.945 57.956 180.241 57.884 180.449 57.74C180.665 57.588 180.773 57.396 180.773 57.164C180.773 56.916 180.653 56.732 180.413 56.612C180.181 56.492 179.809 56.36 179.297 56.216C178.801 56.08 178.397 55.948 178.085 55.82C177.773 55.692 177.501 55.496 177.269 55.232C177.045 54.968 176.933 54.62 176.933 54.188C176.933 53.836 177.037 53.516 177.245 53.228C177.453 52.932 177.749 52.7 178.133 52.532C178.525 52.364 178.973 52.28 179.477 52.28C180.229 52.28 180.833 52.472 181.289 52.856C181.753 53.232 182.001 53.748 182.033 54.404H180.665C180.641 54.108 180.521 53.872 180.305 53.696C180.089 53.52 179.797 53.432 179.429 53.432C179.069 53.432 178.793 53.5 178.601 53.636C178.409 53.772 178.313 53.952 178.313 54.176C178.313 54.352 178.377 54.5 178.505 54.62C178.633 54.74 178.789 54.836 178.973 54.908C179.157 54.972 179.429 55.056 179.789 55.16C180.269 55.288 180.661 55.42 180.965 55.556C181.277 55.684 181.545 55.876 181.769 56.132C181.993 56.388 182.109 56.728 182.117 57.152C182.117 57.528 182.013 57.864 181.805 58.16C181.597 58.456 181.301 58.688 180.917 58.856C180.541 59.024 180.097 59.108 179.585 59.108Z" fill="white"/>
<g clip-path="url(#clip0_933_9064)">
<path d="M275 66.5C275 66.6326 275 66.7653 275 66.8909C274.993 67.2819 274.979 67.6798 274.965 68.0637C274.337 80.4131 266.372 90.8218 255.342 95.0104C255.223 95.0523 255.111 95.1012 254.993 95.1431C254.643 95.2687 254.287 95.3944 253.931 95.5061C253.813 95.548 253.694 95.5829 253.575 95.6178C252.856 95.8412 252.13 96.0366 251.397 96.2042C251.153 96.26 250.902 96.3159 250.657 96.3647C250.036 96.4904 249.408 96.6021 248.779 96.6859C248.654 96.7068 248.528 96.7208 248.396 96.7347C248.144 96.7696 247.886 96.7976 247.628 96.8255C247.502 96.8394 247.369 96.8534 247.244 96.8604C246.985 96.8813 246.727 96.9023 246.469 96.9162C245.82 96.9581 245.17 96.9791 244.507 96.9791C243.851 96.9791 243.195 96.9581 242.545 96.9162C242.287 96.9023 242.029 96.8813 241.771 96.8604C241.645 96.8464 241.512 96.8394 241.387 96.8255C241.128 96.7976 240.877 96.7696 240.619 96.7347C240.493 96.7208 240.367 96.6998 240.235 96.6859C239.599 96.5951 238.971 96.4904 238.357 96.3647C238.106 96.3159 237.861 96.26 237.617 96.2042C236.877 96.0366 236.151 95.8342 235.432 95.6178C235.313 95.5829 235.194 95.541 235.076 95.5061C234.72 95.3874 234.364 95.2687 234.015 95.1431C233.896 95.1012 233.784 95.0593 233.666 95.0104C222.636 90.8148 214.67 80.4062 214.042 68.0637C214.028 67.7426 214.014 67.4145 214.007 67.0864C214.007 67.0236 214.007 66.9538 214.007 66.8909C214.007 66.8421 214.007 66.7932 214.007 66.7443C214.007 66.6606 214.007 66.5768 214.007 66.493C214.007 66.13 214.014 65.767 214.028 65.411C214.035 65.2993 214.035 65.1876 214.042 65.0689C214.042 65.02 214.049 64.9712 214.049 64.9223C214.063 64.664 214.077 64.4057 214.098 64.1474C214.105 64.0217 214.119 63.8891 214.133 63.7634C214.154 63.5052 214.182 63.2469 214.21 62.9955C214.237 62.7372 214.272 62.4859 214.307 62.2346C214.363 61.8576 214.419 61.4737 214.489 61.1037C215.082 57.7807 216.213 54.6463 217.791 51.784C217.84 51.6863 217.895 51.5956 217.951 51.4978C218.573 50.3948 219.264 49.3337 220.018 48.3285C220.06 48.2726 220.101 48.2168 220.143 48.1609C220.855 47.2185 221.616 46.3179 222.426 45.4662C222.433 45.4593 222.44 45.4523 222.44 45.4523C223.529 44.3074 224.709 43.2463 225.966 42.2829C226.545 41.8361 227.145 41.4103 227.76 41.0054C228.374 40.6005 229.002 40.2165 229.645 39.8605C229.861 39.7418 230.077 39.6231 230.294 39.5114C230.51 39.3997 230.734 39.2811 230.95 39.1764C231.097 39.1065 231.243 39.0298 231.39 38.9599C231.655 38.8343 231.92 38.7086 232.186 38.59C232.255 38.562 232.325 38.5271 232.395 38.4992C232.591 38.4154 232.779 38.3317 232.974 38.2549C233.205 38.1641 233.435 38.0734 233.666 37.9826C233.784 37.9407 233.896 37.8919 234.015 37.85C234.161 37.7941 234.308 37.7453 234.454 37.6894C234.657 37.6196 234.866 37.5498 235.069 37.48C235.187 37.4381 235.306 37.4032 235.425 37.3683C235.662 37.2915 235.906 37.2217 236.144 37.1519C236.744 36.9773 237.359 36.8307 237.973 36.6911C238.217 36.6353 238.469 36.5864 238.72 36.5375C238.971 36.4887 239.222 36.4468 239.474 36.4049C239.851 36.3421 240.228 36.2862 240.612 36.2374C240.863 36.2024 241.121 36.1745 241.38 36.1466C241.505 36.1326 241.638 36.1187 241.764 36.1117C242.022 36.0908 242.28 36.0698 242.538 36.0558C243.188 36.0209 243.844 36 244.5 36C245.156 36 245.813 36.0209 246.462 36.0628C246.72 36.0768 246.978 36.0977 247.237 36.1187C247.362 36.1326 247.495 36.1396 247.621 36.1536C247.879 36.1815 248.13 36.2094 248.389 36.2443C248.772 36.2932 249.149 36.3491 249.526 36.4119C249.778 36.4538 250.029 36.4957 250.28 36.5445C250.532 36.5934 250.776 36.6423 251.027 36.6981C251.642 36.8307 252.256 36.9843 252.856 37.1588C253.101 37.2287 253.338 37.2985 253.575 37.3753C253.694 37.4102 253.813 37.452 253.931 37.487C254.141 37.5568 254.343 37.6266 254.553 37.6964C254.699 37.7453 254.846 37.8011 254.993 37.8569C255.111 37.8988 255.223 37.9407 255.342 37.9896C255.572 38.0803 255.802 38.1711 256.033 38.2618C256.228 38.3386 256.424 38.4224 256.612 38.5062C256.682 38.5341 256.752 38.569 256.822 38.5969C257.087 38.7156 257.359 38.8343 257.617 38.9669C257.764 39.0367 257.911 39.1065 258.057 39.1833C258.281 39.295 258.497 39.4067 258.713 39.5184C258.93 39.6301 259.146 39.7488 259.363 39.8675C260.005 40.2305 260.633 40.6075 261.248 41.0124C261.862 41.4173 262.462 41.8431 263.042 42.2899C264.298 43.2533 265.478 44.3144 266.567 45.4593C266.574 45.4662 266.581 45.4732 266.581 45.4732C267.391 46.3249 268.159 47.2255 268.864 48.1679C268.906 48.2237 268.948 48.2796 268.989 48.3354C269.743 49.3477 270.428 50.4018 271.056 51.5048C271.112 51.5956 271.161 51.6933 271.216 51.791C272.794 54.6463 273.925 57.7877 274.518 61.1107C274.588 61.4876 274.644 61.8646 274.7 62.2416C274.735 62.4929 274.77 62.7512 274.798 63.0025C274.826 63.2608 274.853 63.5121 274.874 63.7704C274.888 63.8961 274.895 64.0287 274.909 64.1544C274.93 64.4127 274.944 64.671 274.958 64.9293C274.986 65.4528 275 65.9694 275 66.5Z" fill="#D8226D"/>
<path d="M244.5 91.876C258.515 91.876 269.876 80.5148 269.876 66.5001C269.876 52.4853 258.515 41.1241 244.5 41.1241C230.485 41.1241 219.124 52.4853 219.124 66.5001C219.124 80.5148 230.485 91.876 244.5 91.876Z" fill="white"/>
<path d="M244.5 86.5913C255.596 86.5913 264.591 77.5961 264.591 66.5C264.591 55.4039 255.596 46.4087 244.5 46.4087C233.404 46.4087 224.409 55.4039 224.409 66.5C224.409 77.5961 233.404 86.5913 244.5 86.5913Z" fill="#D8226D"/>
<path d="M244.5 81.7395C252.917 81.7395 259.74 74.9166 259.74 66.5C259.74 58.0835 252.917 51.2605 244.5 51.2605C236.083 51.2605 229.26 58.0835 229.26 66.5C229.26 74.9166 236.083 81.7395 244.5 81.7395Z" fill="white"/>
<path d="M244.5 77.2159C250.372 77.2159 255.132 72.4558 255.132 66.5838C255.132 60.7119 250.372 55.9518 244.5 55.9518C238.628 55.9518 233.868 60.7119 233.868 66.5838C233.868 72.4558 238.628 77.2159 244.5 77.2159Z" fill="#D8226D"/>
<path d="M244.5 71.3519C247.318 71.3519 249.603 69.0671 249.603 66.2487C249.603 63.4304 247.318 61.1456 244.5 61.1456C241.682 61.1456 239.397 63.4304 239.397 66.2487C239.397 69.0671 241.682 71.3519 244.5 71.3519Z" fill="white"/>
<path d="M247.304 67.0714H245.142V69.2866H244.008V67.0714H241.846V66.044H244.008V63.8287H245.142V66.044H247.304V67.0714Z" fill="#D8226D"/>
</g>
<path fill-rule="evenodd" clip-rule="evenodd" d="M236.435 107.995V98.7244H252.569V107.995H236.435ZM236.435 119.364V110.094H252.569V119.364H236.435ZM236.435 130.73V121.459H252.569V130.73H236.435ZM236.435 142.099V132.828H252.569V142.099H236.435ZM236.435 153.468V144.197H252.569V153.468H236.435ZM236.435 164.834V155.563H252.569V164.834H236.435ZM236.435 176.203V166.932H252.569V176.203H236.435ZM236.435 188.207L236.435 188.207V178.301H252.569V189.035H253.841L254.67 188.207V74.5264H253.397L253.397 74.5264H253.394V74.5297L252.569 75.3541V85.26H236.435V74.5264H236.435V74.5264H235.162L234.333 75.3541V189.035H235.606L236.435 188.207ZM236.435 87.3553H252.569V96.6258H236.435V87.3553Z" fill="white"/>
</g>
<defs>
<clipPath id="clip0_933_9064">
<rect width="61" height="61" fill="white" transform="translate(214 36)"/>
</clipPath>
</defs>
</svg>
