<svg width="300" height="150" viewBox="0 0 300 150" fill="none" xmlns="http://www.w3.org/2000/svg">
<rect width="300" height="150" rx="20" fill="#8EB2F4"/>
<path opacity="0.1" fill-rule="evenodd" clip-rule="evenodd" d="M80.619 0C79.5985 6.9096 73.3451 26.3399 47.5834 35.1535C22.5888 43.7047 6.12302 40.7638 6.41017e-05 38L7.02785e-05 20C6.93871e-05 8.95431 8.95439 6.78721e-06 20.0001 5.7411e-06L80.619 0Z" fill="#006838"/>
<path opacity="0.1" fill-rule="evenodd" clip-rule="evenodd" d="M299.999 70.0137V130C299.999 141.046 291.045 150 279.999 150H164.308C169.692 135 192.185 105 239.077 105C285.951 105 299.22 81.6849 299.999 70.0137Z" fill="#006838"/>
<path d="M31.6 28.04V42H28.8V32.92L25.06 42H22.94L19.18 32.92V42H16.38V28.04H19.56L24 38.42L28.44 28.04H31.6ZM44.9683 30.92L38.1083 47.24H35.1283L37.5283 41.72L33.0883 30.92H36.2283L39.0883 38.66L41.9883 30.92H44.9683ZM56.0633 42.14C55.0899 42.14 54.2099 41.9733 53.4233 41.64C52.6499 41.3067 52.0366 40.8267 51.5833 40.2C51.1299 39.5733 50.8966 38.8333 50.8833 37.98H53.8833C53.9233 38.5533 54.1233 39.0067 54.4833 39.34C54.8566 39.6733 55.3633 39.84 56.0033 39.84C56.6566 39.84 57.1699 39.6867 57.5433 39.38C57.9166 39.06 58.1033 38.6467 58.1033 38.14C58.1033 37.7267 57.9766 37.3867 57.7233 37.12C57.4699 36.8533 57.1499 36.6467 56.7633 36.5C56.3899 36.34 55.8699 36.1667 55.2033 35.98C54.2966 35.7133 53.5566 35.4533 52.9833 35.2C52.4233 34.9333 51.9366 34.54 51.5233 34.02C51.1233 33.4867 50.9233 32.78 50.9233 31.9C50.9233 31.0733 51.1299 30.3533 51.5433 29.74C51.9566 29.1267 52.5366 28.66 53.2833 28.34C54.0299 28.0067 54.8833 27.84 55.8433 27.84C57.2833 27.84 58.4499 28.1933 59.3433 28.9C60.2499 29.5933 60.7499 30.5667 60.8433 31.82H57.7633C57.7366 31.34 57.5299 30.9467 57.1433 30.64C56.7699 30.32 56.2699 30.16 55.6433 30.16C55.0966 30.16 54.6566 30.3 54.3233 30.58C54.0033 30.86 53.8433 31.2667 53.8433 31.8C53.8433 32.1733 53.9633 32.4867 54.2033 32.74C54.4566 32.98 54.7633 33.18 55.1233 33.34C55.4966 33.4867 56.0166 33.66 56.6833 33.86C57.5899 34.1267 58.3299 34.3933 58.9033 34.66C59.4766 34.9267 59.9699 35.3267 60.3833 35.86C60.7966 36.3933 61.0033 37.0933 61.0033 37.96C61.0033 38.7067 60.8099 39.4 60.4233 40.04C60.0366 40.68 59.4699 41.1933 58.7233 41.58C57.9766 41.9533 57.0899 42.14 56.0633 42.14ZM66.6908 33.22V38.58C66.6908 38.9533 66.7774 39.2267 66.9508 39.4C67.1374 39.56 67.4441 39.64 67.8708 39.64H69.1708V42H67.4108C65.0508 42 63.8708 40.8533 63.8708 38.56V33.22H62.5508V30.92H63.8708V28.18H66.6908V30.92H69.1708V33.22H66.6908ZM81.6447 30.92V42H78.8247V40.6C78.4647 41.08 77.9914 41.46 77.4047 41.74C76.8314 42.0067 76.2047 42.14 75.5247 42.14C74.658 42.14 73.8914 41.96 73.2247 41.6C72.558 41.2267 72.0314 40.6867 71.6447 39.98C71.2714 39.26 71.0847 38.4067 71.0847 37.42V30.92H73.8847V37.02C73.8847 37.9 74.1047 38.58 74.5447 39.06C74.9847 39.5267 75.5847 39.76 76.3447 39.76C77.118 39.76 77.7247 39.5267 78.1647 39.06C78.6047 38.58 78.8247 37.9 78.8247 37.02V30.92H81.6447ZM83.6873 36.42C83.6873 35.3 83.9073 34.3067 84.3473 33.44C84.8007 32.5733 85.414 31.9067 86.1873 31.44C86.9607 30.9733 87.8207 30.74 88.7673 30.74C89.4873 30.74 90.174 30.9 90.8273 31.22C91.4807 31.5267 92.0007 31.94 92.3873 32.46V27.2H95.2273V42H92.3873V40.36C92.0407 40.9067 91.554 41.3467 90.9273 41.68C90.3007 42.0133 89.574 42.18 88.7473 42.18C87.814 42.18 86.9607 41.94 86.1873 41.46C85.414 40.98 84.8007 40.3067 84.3473 39.44C83.9073 38.56 83.6873 37.5533 83.6873 36.42ZM92.4073 36.46C92.4073 35.78 92.274 35.2 92.0073 34.72C91.7407 34.2267 91.3807 33.8533 90.9273 33.6C90.474 33.3333 89.9873 33.2 89.4673 33.2C88.9473 33.2 88.4673 33.3267 88.0273 33.58C87.5873 33.8333 87.2273 34.2067 86.9473 34.7C86.6807 35.18 86.5473 35.7533 86.5473 36.42C86.5473 37.0867 86.6807 37.6733 86.9473 38.18C87.2273 38.6733 87.5873 39.0533 88.0273 39.32C88.4807 39.5867 88.9607 39.72 89.4673 39.72C89.9873 39.72 90.474 39.5933 90.9273 39.34C91.3807 39.0733 91.7407 38.7 92.0073 38.22C92.274 37.7267 92.4073 37.14 92.4073 36.46ZM108.562 30.92L101.702 47.24H98.722L101.122 41.72L96.682 30.92H99.822L102.682 38.66L105.582 30.92H108.562Z" fill="white"/>
<path d="M15.444 55.812C15.444 54.996 15.632 54.264 16.008 53.616C16.392 52.968 16.908 52.464 17.556 52.104C18.212 51.736 18.928 51.552 19.704 51.552C20.592 51.552 21.38 51.772 22.068 52.212C22.764 52.644 23.268 53.26 23.58 54.06H21.936C21.72 53.62 21.42 53.292 21.036 53.076C20.652 52.86 20.208 52.752 19.704 52.752C19.152 52.752 18.66 52.876 18.228 53.124C17.796 53.372 17.456 53.728 17.208 54.192C16.968 54.656 16.848 55.196 16.848 55.812C16.848 56.428 16.968 56.968 17.208 57.432C17.456 57.896 17.796 58.256 18.228 58.512C18.66 58.76 19.152 58.884 19.704 58.884C20.208 58.884 20.652 58.776 21.036 58.56C21.42 58.344 21.72 58.016 21.936 57.576H23.58C23.268 58.376 22.764 58.992 22.068 59.424C21.38 59.856 20.592 60.072 19.704 60.072C18.92 60.072 18.204 59.892 17.556 59.532C16.908 59.164 16.392 58.656 16.008 58.008C15.632 57.36 15.444 56.628 15.444 55.812ZM24.7253 56.664C24.7253 56 24.8613 55.412 25.1333 54.9C25.4133 54.388 25.7893 53.992 26.2613 53.712C26.7413 53.424 27.2693 53.28 27.8453 53.28C28.3653 53.28 28.8173 53.384 29.2013 53.592C29.5933 53.792 29.9053 54.044 30.1373 54.348V53.388H31.5173V60H30.1373V59.016C29.9053 59.328 29.5893 59.588 29.1893 59.796C28.7893 60.004 28.3333 60.108 27.8213 60.108C27.2533 60.108 26.7333 59.964 26.2613 59.676C25.7893 59.38 25.4133 58.972 25.1333 58.452C24.8613 57.924 24.7253 57.328 24.7253 56.664ZM30.1373 56.688C30.1373 56.232 30.0413 55.836 29.8493 55.5C29.6653 55.164 29.4213 54.908 29.1173 54.732C28.8133 54.556 28.4853 54.468 28.1333 54.468C27.7813 54.468 27.4533 54.556 27.1493 54.732C26.8453 54.9 26.5973 55.152 26.4053 55.488C26.2213 55.816 26.1293 56.208 26.1293 56.664C26.1293 57.12 26.2213 57.52 26.4053 57.864C26.5973 58.208 26.8453 58.472 27.1493 58.656C27.4613 58.832 27.7893 58.92 28.1333 58.92C28.4853 58.92 28.8133 58.832 29.1173 58.656C29.4213 58.48 29.6653 58.224 29.8493 57.888C30.0413 57.544 30.1373 57.144 30.1373 56.688ZM34.6821 54.348C34.8821 54.012 35.1461 53.752 35.4741 53.568C35.8101 53.376 36.2061 53.28 36.6621 53.28V54.696H36.3141C35.7781 54.696 35.3701 54.832 35.0901 55.104C34.8181 55.376 34.6821 55.848 34.6821 56.52V60H33.3141V53.388H34.6821V54.348ZM43.9795 56.532C43.9795 56.78 43.9635 57.004 43.9315 57.204H38.8795C38.9195 57.732 39.1155 58.156 39.4675 58.476C39.8195 58.796 40.2515 58.956 40.7635 58.956C41.4995 58.956 42.0195 58.648 42.3235 58.032H43.7995C43.5995 58.64 43.2355 59.14 42.7075 59.532C42.1875 59.916 41.5395 60.108 40.7635 60.108C40.1315 60.108 39.5635 59.968 39.0595 59.688C38.5635 59.4 38.1715 59 37.8835 58.488C37.6035 57.968 37.4635 57.368 37.4635 56.688C37.4635 56.008 37.5995 55.412 37.8715 54.9C38.1515 54.38 38.5395 53.98 39.0355 53.7C39.5395 53.42 40.1155 53.28 40.7635 53.28C41.3875 53.28 41.9435 53.416 42.4315 53.688C42.9195 53.96 43.2995 54.344 43.5715 54.84C43.8435 55.328 43.9795 55.892 43.9795 56.532ZM42.5515 56.1C42.5435 55.596 42.3635 55.192 42.0115 54.888C41.6595 54.584 41.2235 54.432 40.7035 54.432C40.2315 54.432 39.8275 54.584 39.4915 54.888C39.1555 55.184 38.9555 55.588 38.8915 56.1H42.5515ZM51.3858 56.532C51.3858 56.78 51.3698 57.004 51.3378 57.204H46.2858C46.3258 57.732 46.5218 58.156 46.8738 58.476C47.2258 58.796 47.6578 58.956 48.1698 58.956C48.9058 58.956 49.4258 58.648 49.7298 58.032H51.2058C51.0058 58.64 50.6418 59.14 50.1138 59.532C49.5938 59.916 48.9458 60.108 48.1698 60.108C47.5378 60.108 46.9698 59.968 46.4658 59.688C45.9698 59.4 45.5778 59 45.2898 58.488C45.0098 57.968 44.8698 57.368 44.8698 56.688C44.8698 56.008 45.0058 55.412 45.2778 54.9C45.5578 54.38 45.9458 53.98 46.4418 53.7C46.9458 53.42 47.5218 53.28 48.1698 53.28C48.7938 53.28 49.3498 53.416 49.8378 53.688C50.3258 53.96 50.7058 54.344 50.9778 54.84C51.2498 55.328 51.3858 55.892 51.3858 56.532ZM49.9578 56.1C49.9498 55.596 49.7698 55.192 49.4178 54.888C49.0658 54.584 48.6298 54.432 48.1098 54.432C47.6378 54.432 47.2338 54.584 46.8978 54.888C46.5618 55.184 46.3618 55.588 46.2978 56.1H49.9578ZM54.1 54.348C54.3 54.012 54.564 53.752 54.892 53.568C55.228 53.376 55.624 53.28 56.08 53.28V54.696H55.732C55.196 54.696 54.788 54.832 54.508 55.104C54.236 55.376 54.1 55.848 54.1 56.52V60H52.732V53.388H54.1V54.348ZM65.8427 51.66V52.776H63.6227V60H62.2547V52.776H60.0227V51.66H65.8427ZM73.2161 53.388V60H71.8481V59.22C71.6321 59.492 71.3481 59.708 70.9961 59.868C70.6521 60.02 70.2841 60.096 69.8921 60.096C69.3721 60.096 68.9041 59.988 68.4881 59.772C68.0801 59.556 67.7561 59.236 67.5161 58.812C67.2841 58.388 67.1681 57.876 67.1681 57.276V53.388H68.5241V57.072C68.5241 57.664 68.6721 58.12 68.9681 58.44C69.2641 58.752 69.6681 58.908 70.1801 58.908C70.6921 58.908 71.0961 58.752 71.3921 58.44C71.6961 58.12 71.8481 57.664 71.8481 57.072V53.388H73.2161ZM76.6171 54.504V58.164C76.6171 58.412 76.6731 58.592 76.7851 58.704C76.9051 58.808 77.1051 58.86 77.3851 58.86H78.2251V60H77.1451C76.5291 60 76.0571 59.856 75.7291 59.568C75.4011 59.28 75.2371 58.812 75.2371 58.164V54.504H74.4571V53.388H75.2371V51.744H76.6171V53.388H78.2251V54.504H76.6171ZM82.3539 60.108C81.7299 60.108 81.1659 59.968 80.6619 59.688C80.1579 59.4 79.7619 59 79.4739 58.488C79.1859 57.968 79.0419 57.368 79.0419 56.688C79.0419 56.016 79.1899 55.42 79.4859 54.9C79.7819 54.38 80.1859 53.98 80.6979 53.7C81.2099 53.42 81.7819 53.28 82.4139 53.28C83.0459 53.28 83.6179 53.42 84.1299 53.7C84.6419 53.98 85.0459 54.38 85.3419 54.9C85.6379 55.42 85.7859 56.016 85.7859 56.688C85.7859 57.36 85.6339 57.956 85.3299 58.476C85.0259 58.996 84.6099 59.4 84.0819 59.688C83.5619 59.968 82.9859 60.108 82.3539 60.108ZM82.3539 58.92C82.7059 58.92 83.0339 58.836 83.3379 58.668C83.6499 58.5 83.9019 58.248 84.0939 57.912C84.2859 57.576 84.3819 57.168 84.3819 56.688C84.3819 56.208 84.2899 55.804 84.1059 55.476C83.9219 55.14 83.6779 54.888 83.3739 54.72C83.0699 54.552 82.7419 54.468 82.3899 54.468C82.0379 54.468 81.7099 54.552 81.4059 54.72C81.1099 54.888 80.8739 55.14 80.6979 55.476C80.5219 55.804 80.4339 56.208 80.4339 56.688C80.4339 57.4 80.6139 57.952 80.9739 58.344C81.3419 58.728 81.8019 58.92 82.3539 58.92ZM88.5063 54.348C88.7063 54.012 88.9703 53.752 89.2983 53.568C89.6343 53.376 90.0303 53.28 90.4863 53.28V54.696H90.1383C89.6023 54.696 89.1943 54.832 88.9143 55.104C88.6423 55.376 88.5063 55.848 88.5063 56.52V60H87.1383V53.388H88.5063V54.348ZM92.4398 52.512C92.1918 52.512 91.9838 52.428 91.8158 52.26C91.6478 52.092 91.5638 51.884 91.5638 51.636C91.5638 51.388 91.6478 51.18 91.8158 51.012C91.9838 50.844 92.1918 50.76 92.4398 50.76C92.6798 50.76 92.8838 50.844 93.0518 51.012C93.2198 51.18 93.3038 51.388 93.3038 51.636C93.3038 51.884 93.2198 52.092 93.0518 52.26C92.8838 52.428 92.6798 52.512 92.4398 52.512ZM93.1118 53.388V60H91.7438V53.388H93.1118ZM94.4518 56.664C94.4518 56 94.5878 55.412 94.8598 54.9C95.1398 54.388 95.5158 53.992 95.9878 53.712C96.4678 53.424 96.9958 53.28 97.5718 53.28C98.0918 53.28 98.5438 53.384 98.9278 53.592C99.3198 53.792 99.6318 54.044 99.8638 54.348V53.388H101.244V60H99.8638V59.016C99.6318 59.328 99.3158 59.588 98.9158 59.796C98.5158 60.004 98.0598 60.108 97.5478 60.108C96.9798 60.108 96.4598 59.964 95.9878 59.676C95.5158 59.38 95.1398 58.972 94.8598 58.452C94.5878 57.924 94.4518 57.328 94.4518 56.664ZM99.8638 56.688C99.8638 56.232 99.7678 55.836 99.5758 55.5C99.3918 55.164 99.1478 54.908 98.8438 54.732C98.5398 54.556 98.2118 54.468 97.8598 54.468C97.5078 54.468 97.1798 54.556 96.8758 54.732C96.5718 54.9 96.3238 55.152 96.1318 55.488C95.9478 55.816 95.8558 56.208 95.8558 56.664C95.8558 57.12 95.9478 57.52 96.1318 57.864C96.3238 58.208 96.5718 58.472 96.8758 58.656C97.1878 58.832 97.5158 58.92 97.8598 58.92C98.2118 58.92 98.5398 58.832 98.8438 58.656C99.1478 58.48 99.3918 58.224 99.5758 57.888C99.7678 57.544 99.8638 57.144 99.8638 56.688ZM104.409 51.12V60H103.041V51.12H104.409ZM116.51 51.66L113.378 60H111.794L108.65 51.66H110.114L112.586 58.596L115.07 51.66H116.51ZM118.35 52.512C118.102 52.512 117.894 52.428 117.726 52.26C117.558 52.092 117.474 51.884 117.474 51.636C117.474 51.388 117.558 51.18 117.726 51.012C117.894 50.844 118.102 50.76 118.35 50.76C118.59 50.76 118.794 50.844 118.962 51.012C119.13 51.18 119.214 51.388 119.214 51.636C119.214 51.884 119.13 52.092 118.962 52.26C118.794 52.428 118.59 52.512 118.35 52.512ZM119.022 53.388V60H117.654V53.388H119.022ZM120.362 56.664C120.362 56 120.498 55.412 120.77 54.9C121.05 54.388 121.426 53.992 121.898 53.712C122.378 53.424 122.91 53.28 123.494 53.28C123.926 53.28 124.35 53.376 124.766 53.568C125.19 53.752 125.526 54 125.774 54.312V51.12H127.154V60H125.774V59.004C125.55 59.324 125.238 59.588 124.838 59.796C124.446 60.004 123.994 60.108 123.482 60.108C122.906 60.108 122.378 59.964 121.898 59.676C121.426 59.38 121.05 58.972 120.77 58.452C120.498 57.924 120.362 57.328 120.362 56.664ZM125.774 56.688C125.774 56.232 125.678 55.836 125.486 55.5C125.302 55.164 125.058 54.908 124.754 54.732C124.45 54.556 124.122 54.468 123.77 54.468C123.418 54.468 123.09 54.556 122.786 54.732C122.482 54.9 122.234 55.152 122.042 55.488C121.858 55.816 121.766 56.208 121.766 56.664C121.766 57.12 121.858 57.52 122.042 57.864C122.234 58.208 122.482 58.472 122.786 58.656C123.098 58.832 123.426 58.92 123.77 58.92C124.122 58.92 124.45 58.832 124.754 58.656C125.058 58.48 125.302 58.224 125.486 57.888C125.678 57.544 125.774 57.144 125.774 56.688ZM135.011 56.532C135.011 56.78 134.995 57.004 134.963 57.204H129.911C129.951 57.732 130.147 58.156 130.499 58.476C130.851 58.796 131.283 58.956 131.795 58.956C132.531 58.956 133.051 58.648 133.355 58.032H134.831C134.631 58.64 134.267 59.14 133.739 59.532C133.219 59.916 132.571 60.108 131.795 60.108C131.163 60.108 130.595 59.968 130.091 59.688C129.595 59.4 129.203 59 128.915 58.488C128.635 57.968 128.495 57.368 128.495 56.688C128.495 56.008 128.631 55.412 128.903 54.9C129.183 54.38 129.571 53.98 130.067 53.7C130.571 53.42 131.147 53.28 131.795 53.28C132.419 53.28 132.975 53.416 133.463 53.688C133.951 53.96 134.331 54.344 134.603 54.84C134.875 55.328 135.011 55.892 135.011 56.532ZM133.583 56.1C133.575 55.596 133.395 55.192 133.043 54.888C132.691 54.584 132.255 54.432 131.735 54.432C131.263 54.432 130.859 54.584 130.523 54.888C130.187 55.184 129.987 55.588 129.923 56.1H133.583ZM139.225 60.108C138.601 60.108 138.037 59.968 137.533 59.688C137.029 59.4 136.633 59 136.345 58.488C136.057 57.968 135.913 57.368 135.913 56.688C135.913 56.016 136.061 55.42 136.357 54.9C136.653 54.38 137.057 53.98 137.569 53.7C138.081 53.42 138.653 53.28 139.285 53.28C139.917 53.28 140.489 53.42 141.001 53.7C141.513 53.98 141.917 54.38 142.213 54.9C142.509 55.42 142.657 56.016 142.657 56.688C142.657 57.36 142.505 57.956 142.201 58.476C141.897 58.996 141.481 59.4 140.953 59.688C140.433 59.968 139.857 60.108 139.225 60.108ZM139.225 58.92C139.577 58.92 139.905 58.836 140.209 58.668C140.521 58.5 140.773 58.248 140.965 57.912C141.157 57.576 141.253 57.168 141.253 56.688C141.253 56.208 141.161 55.804 140.977 55.476C140.793 55.14 140.549 54.888 140.245 54.72C139.941 54.552 139.613 54.468 139.261 54.468C138.909 54.468 138.581 54.552 138.277 54.72C137.981 54.888 137.745 55.14 137.569 55.476C137.393 55.804 137.305 56.208 137.305 56.688C137.305 57.4 137.485 57.952 137.845 58.344C138.213 58.728 138.673 58.92 139.225 58.92ZM146.671 56.664C146.671 56 146.807 55.412 147.079 54.9C147.359 54.388 147.735 53.992 148.207 53.712C148.687 53.424 149.215 53.28 149.791 53.28C150.311 53.28 150.763 53.384 151.147 53.592C151.539 53.792 151.851 54.044 152.083 54.348V53.388H153.463V60H152.083V59.016C151.851 59.328 151.535 59.588 151.135 59.796C150.735 60.004 150.279 60.108 149.767 60.108C149.199 60.108 148.679 59.964 148.207 59.676C147.735 59.38 147.359 58.972 147.079 58.452C146.807 57.924 146.671 57.328 146.671 56.664ZM152.083 56.688C152.083 56.232 151.987 55.836 151.795 55.5C151.611 55.164 151.367 54.908 151.063 54.732C150.759 54.556 150.431 54.468 150.079 54.468C149.727 54.468 149.399 54.556 149.095 54.732C148.791 54.9 148.543 55.152 148.351 55.488C148.167 55.816 148.075 56.208 148.075 56.664C148.075 57.12 148.167 57.52 148.351 57.864C148.543 58.208 148.791 58.472 149.095 58.656C149.407 58.832 149.735 58.92 150.079 58.92C150.431 58.92 150.759 58.832 151.063 58.656C151.367 58.48 151.611 58.224 151.795 57.888C151.987 57.544 152.083 57.144 152.083 56.688ZM158.595 53.28C159.115 53.28 159.579 53.388 159.987 53.604C160.403 53.82 160.727 54.14 160.959 54.564C161.191 54.988 161.307 55.5 161.307 56.1V60H159.951V56.304C159.951 55.712 159.803 55.26 159.507 54.948C159.211 54.628 158.807 54.468 158.295 54.468C157.783 54.468 157.375 54.628 157.071 54.948C156.775 55.26 156.627 55.712 156.627 56.304V60H155.259V53.388H156.627V54.144C156.851 53.872 157.135 53.66 157.479 53.508C157.831 53.356 158.203 53.28 158.595 53.28ZM162.596 56.664C162.596 56 162.732 55.412 163.004 54.9C163.284 54.388 163.66 53.992 164.132 53.712C164.612 53.424 165.144 53.28 165.728 53.28C166.16 53.28 166.584 53.376 167 53.568C167.424 53.752 167.76 54 168.008 54.312V51.12H169.388V60H168.008V59.004C167.784 59.324 167.472 59.588 167.072 59.796C166.68 60.004 166.228 60.108 165.716 60.108C165.14 60.108 164.612 59.964 164.132 59.676C163.66 59.38 163.284 58.972 163.004 58.452C162.732 57.924 162.596 57.328 162.596 56.664ZM168.008 56.688C168.008 56.232 167.912 55.836 167.72 55.5C167.536 55.164 167.292 54.908 166.988 54.732C166.684 54.556 166.356 54.468 166.004 54.468C165.652 54.468 165.324 54.556 165.02 54.732C164.716 54.9 164.468 55.152 164.276 55.488C164.092 55.816 164 56.208 164 56.664C164 57.12 164.092 57.52 164.276 57.864C164.468 58.208 164.716 58.472 165.02 58.656C165.332 58.832 165.66 58.92 166.004 58.92C166.356 58.92 166.684 58.832 166.988 58.656C167.292 58.48 167.536 58.224 167.72 57.888C167.912 57.544 168.008 57.144 168.008 56.688ZM180.758 61.512L179.294 59.928C178.934 60.032 178.538 60.084 178.106 60.084C177.33 60.084 176.614 59.904 175.958 59.544C175.31 59.176 174.794 58.668 174.41 58.02C174.034 57.364 173.846 56.628 173.846 55.812C173.846 54.996 174.034 54.264 174.41 53.616C174.794 52.968 175.31 52.464 175.958 52.104C176.614 51.736 177.33 51.552 178.106 51.552C178.89 51.552 179.606 51.736 180.254 52.104C180.91 52.464 181.426 52.968 181.802 53.616C182.178 54.264 182.366 54.996 182.366 55.812C182.366 56.58 182.198 57.276 181.862 57.9C181.534 58.516 181.078 59.012 180.494 59.388L182.498 61.512H180.758ZM175.25 55.812C175.25 56.428 175.37 56.972 175.61 57.444C175.858 57.908 176.198 58.268 176.63 58.524C177.062 58.772 177.554 58.896 178.106 58.896C178.658 58.896 179.15 58.772 179.582 58.524C180.014 58.268 180.35 57.908 180.59 57.444C180.838 56.972 180.962 56.428 180.962 55.812C180.962 55.196 180.838 54.656 180.59 54.192C180.35 53.728 180.014 53.372 179.582 53.124C179.15 52.876 178.658 52.752 178.106 52.752C177.554 52.752 177.062 52.876 176.63 53.124C176.198 53.372 175.858 53.728 175.61 54.192C175.37 54.656 175.25 55.196 175.25 55.812ZM189.736 53.388V60H188.368V59.22C188.152 59.492 187.868 59.708 187.516 59.868C187.172 60.02 186.804 60.096 186.412 60.096C185.892 60.096 185.424 59.988 185.008 59.772C184.6 59.556 184.276 59.236 184.036 58.812C183.804 58.388 183.688 57.876 183.688 57.276V53.388H185.044V57.072C185.044 57.664 185.192 58.12 185.488 58.44C185.784 58.752 186.188 58.908 186.7 58.908C187.212 58.908 187.616 58.752 187.912 58.44C188.216 58.12 188.368 57.664 188.368 57.072V53.388H189.736ZM192.237 52.512C191.989 52.512 191.781 52.428 191.613 52.26C191.445 52.092 191.361 51.884 191.361 51.636C191.361 51.388 191.445 51.18 191.613 51.012C191.781 50.844 191.989 50.76 192.237 50.76C192.477 50.76 192.681 50.844 192.849 51.012C193.017 51.18 193.101 51.388 193.101 51.636C193.101 51.884 193.017 52.092 192.849 52.26C192.681 52.428 192.477 52.512 192.237 52.512ZM192.909 53.388V60H191.541V53.388H192.909ZM195.917 58.884H198.917V60H194.333V58.884L197.345 54.504H194.333V53.388H198.917V54.504L195.917 58.884ZM206.413 56.532C206.413 56.78 206.397 57.004 206.365 57.204H201.313C201.353 57.732 201.549 58.156 201.901 58.476C202.253 58.796 202.685 58.956 203.197 58.956C203.933 58.956 204.453 58.648 204.757 58.032H206.233C206.033 58.64 205.669 59.14 205.141 59.532C204.621 59.916 203.973 60.108 203.197 60.108C202.565 60.108 201.997 59.968 201.493 59.688C200.997 59.4 200.605 59 200.317 58.488C200.037 57.968 199.897 57.368 199.897 56.688C199.897 56.008 200.033 55.412 200.305 54.9C200.585 54.38 200.973 53.98 201.469 53.7C201.973 53.42 202.549 53.28 203.197 53.28C203.821 53.28 204.377 53.416 204.865 53.688C205.353 53.96 205.733 54.344 206.005 54.84C206.277 55.328 206.413 55.892 206.413 56.532ZM204.985 56.1C204.977 55.596 204.797 55.192 204.445 54.888C204.093 54.584 203.657 54.432 203.137 54.432C202.665 54.432 202.261 54.584 201.925 54.888C201.589 55.184 201.389 55.588 201.325 56.1H204.985ZM210.159 60.108C209.639 60.108 209.171 60.016 208.755 59.832C208.347 59.64 208.023 59.384 207.783 59.064C207.543 58.736 207.415 58.372 207.399 57.972H208.815C208.839 58.252 208.971 58.488 209.211 58.68C209.459 58.864 209.767 58.956 210.135 58.956C210.519 58.956 210.815 58.884 211.023 58.74C211.239 58.588 211.347 58.396 211.347 58.164C211.347 57.916 211.227 57.732 210.987 57.612C210.755 57.492 210.383 57.36 209.871 57.216C209.375 57.08 208.971 56.948 208.659 56.82C208.347 56.692 208.075 56.496 207.843 56.232C207.619 55.968 207.507 55.62 207.507 55.188C207.507 54.836 207.611 54.516 207.819 54.228C208.027 53.932 208.323 53.7 208.707 53.532C209.099 53.364 209.547 53.28 210.051 53.28C210.803 53.28 211.407 53.472 211.863 53.856C212.327 54.232 212.575 54.748 212.607 55.404H211.239C211.215 55.108 211.095 54.872 210.879 54.696C210.663 54.52 210.371 54.432 210.003 54.432C209.643 54.432 209.367 54.5 209.175 54.636C208.983 54.772 208.887 54.952 208.887 55.176C208.887 55.352 208.951 55.5 209.079 55.62C209.207 55.74 209.363 55.836 209.547 55.908C209.731 55.972 210.003 56.056 210.363 56.16C210.843 56.288 211.235 56.42 211.539 56.556C211.851 56.684 212.119 56.876 212.343 57.132C212.567 57.388 212.683 57.728 212.691 58.152C212.691 58.528 212.587 58.864 212.379 59.16C212.171 59.456 211.875 59.688 211.491 59.856C211.115 60.024 210.671 60.108 210.159 60.108Z" fill="white"/>
</svg>
