<svg width="300" height="150" viewBox="0 0 300 150" fill="none" xmlns="http://www.w3.org/2000/svg">
<rect width="300" height="150" rx="20" fill="#00B0F2"/>
<path opacity="0.1" fill-rule="evenodd" clip-rule="evenodd" d="M80.619 0C79.5985 6.9096 73.3451 26.3399 47.5834 35.1535C22.5888 43.7047 6.12302 40.7638 6.41017e-05 38L7.02785e-05 20C6.93871e-05 8.95431 8.95439 6.78721e-06 20.0001 5.7411e-06L80.619 0Z" fill="#006838"/>
<path opacity="0.1" fill-rule="evenodd" clip-rule="evenodd" d="M299.999 70.0137V130C299.999 141.046 291.045 150 279.999 150H164.308C169.692 135 192.185 105 239.077 105C285.951 105 299.22 81.6849 299.999 70.0137Z" fill="#006838"/>
<path d="M31.6 28.04V42H28.8V32.92L25.06 42H22.94L19.18 32.92V42H16.38V28.04H19.56L24 38.42L28.44 28.04H31.6ZM44.9683 30.92L38.1083 47.24H35.1283L37.5283 41.72L33.0883 30.92H36.2283L39.0883 38.66L41.9883 30.92H44.9683ZM50.5633 35C50.5633 33.6267 50.8699 32.4 51.4833 31.32C52.1099 30.2267 52.9566 29.38 54.0233 28.78C55.1033 28.1667 56.3099 27.86 57.6433 27.86C59.2033 27.86 60.5699 28.26 61.7433 29.06C62.9166 29.86 63.7366 30.9667 64.2033 32.38H60.9833C60.6633 31.7133 60.2099 31.2133 59.6233 30.88C59.0499 30.5467 58.3833 30.38 57.6233 30.38C56.8099 30.38 56.0833 30.5733 55.4433 30.96C54.8166 31.3333 54.3233 31.8667 53.9633 32.56C53.6166 33.2533 53.4433 34.0667 53.4433 35C53.4433 35.92 53.6166 36.7333 53.9633 37.44C54.3233 38.1333 54.8166 38.6733 55.4433 39.06C56.0833 39.4333 56.8099 39.62 57.6233 39.62C58.3833 39.62 59.0499 39.4533 59.6233 39.12C60.2099 38.7733 60.6633 38.2667 60.9833 37.6H64.2033C63.7366 39.0267 62.9166 40.14 61.7433 40.94C60.5833 41.7267 59.2166 42.12 57.6433 42.12C56.3099 42.12 55.1033 41.82 54.0233 41.22C52.9566 40.6067 52.1099 39.76 51.4833 38.68C50.8699 37.6 50.5633 36.3733 50.5633 35ZM72.8348 30.76C73.6748 30.76 74.4215 30.9467 75.0748 31.32C75.7282 31.68 76.2348 32.22 76.5948 32.94C76.9682 33.6467 77.1548 34.5 77.1548 35.5V42H74.3548V35.88C74.3548 35 74.1348 34.3267 73.6948 33.86C73.2548 33.38 72.6548 33.14 71.8948 33.14C71.1215 33.14 70.5082 33.38 70.0548 33.86C69.6148 34.3267 69.3948 35 69.3948 35.88V42H66.5948V27.2H69.3948V32.3C69.7548 31.82 70.2348 31.4467 70.8348 31.18C71.4348 30.9 72.1015 30.76 72.8348 30.76ZM84.7375 42.18C83.6708 42.18 82.7108 41.9467 81.8575 41.48C81.0042 41 80.3308 40.3267 79.8375 39.46C79.3575 38.5933 79.1175 37.5933 79.1175 36.46C79.1175 35.3267 79.3642 34.3267 79.8575 33.46C80.3642 32.5933 81.0508 31.9267 81.9175 31.46C82.7842 30.98 83.7508 30.74 84.8175 30.74C85.8842 30.74 86.8508 30.98 87.7175 31.46C88.5842 31.9267 89.2642 32.5933 89.7575 33.46C90.2642 34.3267 90.5175 35.3267 90.5175 36.46C90.5175 37.5933 90.2575 38.5933 89.7375 39.46C89.2308 40.3267 88.5375 41 87.6575 41.48C86.7908 41.9467 85.8175 42.18 84.7375 42.18ZM84.7375 39.74C85.2442 39.74 85.7175 39.62 86.1575 39.38C86.6108 39.1267 86.9708 38.7533 87.2375 38.26C87.5042 37.7667 87.6375 37.1667 87.6375 36.46C87.6375 35.4067 87.3575 34.6 86.7975 34.04C86.2508 33.4667 85.5775 33.18 84.7775 33.18C83.9775 33.18 83.3042 33.4667 82.7575 34.04C82.2242 34.6 81.9575 35.4067 81.9575 36.46C81.9575 37.5133 82.2175 38.3267 82.7375 38.9C83.2708 39.46 83.9375 39.74 84.7375 39.74ZM93.9914 29.6C93.4981 29.6 93.0847 29.4467 92.7514 29.14C92.4314 28.82 92.2714 28.4267 92.2714 27.96C92.2714 27.4933 92.4314 27.1067 92.7514 26.8C93.0847 26.48 93.4981 26.32 93.9914 26.32C94.4847 26.32 94.8914 26.48 95.2114 26.8C95.5447 27.1067 95.7114 27.4933 95.7114 27.96C95.7114 28.4267 95.5447 28.82 95.2114 29.14C94.8914 29.4467 94.4847 29.6 93.9914 29.6ZM95.3714 30.92V42H92.5714V30.92H95.3714ZM97.4178 36.46C97.4178 35.3133 97.6511 34.3133 98.1178 33.46C98.5845 32.5933 99.2311 31.9267 100.058 31.46C100.884 30.98 101.831 30.74 102.898 30.74C104.271 30.74 105.404 31.0867 106.298 31.78C107.204 32.46 107.811 33.42 108.118 34.66H105.098C104.938 34.18 104.664 33.8067 104.278 33.54C103.904 33.26 103.438 33.12 102.878 33.12C102.078 33.12 101.444 33.4133 100.978 34C100.511 34.5733 100.278 35.3933 100.278 36.46C100.278 37.5133 100.511 38.3333 100.978 38.92C101.444 39.4933 102.078 39.78 102.878 39.78C104.011 39.78 104.751 39.2733 105.098 38.26H108.118C107.811 39.46 107.204 40.4133 106.298 41.12C105.391 41.8267 104.258 42.18 102.898 42.18C101.831 42.18 100.884 41.9467 100.058 41.48C99.2311 41 98.5845 40.3333 98.1178 39.48C97.6511 38.6133 97.4178 37.6067 97.4178 36.46ZM120.469 36.22C120.469 36.62 120.442 36.98 120.389 37.3H112.289C112.356 38.1 112.636 38.7267 113.129 39.18C113.622 39.6333 114.229 39.86 114.949 39.86C115.989 39.86 116.729 39.4133 117.169 38.52H120.189C119.869 39.5867 119.256 40.4667 118.349 41.16C117.442 41.84 116.329 42.18 115.009 42.18C113.942 42.18 112.982 41.9467 112.129 41.48C111.289 41 110.629 40.3267 110.149 39.46C109.682 38.5933 109.449 37.5933 109.449 36.46C109.449 35.3133 109.682 34.3067 110.149 33.44C110.616 32.5733 111.269 31.9067 112.109 31.44C112.949 30.9733 113.916 30.74 115.009 30.74C116.062 30.74 117.002 30.9667 117.829 31.42C118.669 31.8733 119.316 32.52 119.769 33.36C120.236 34.1867 120.469 35.14 120.469 36.22ZM117.569 35.42C117.556 34.7 117.296 34.1267 116.789 33.7C116.282 33.26 115.662 33.04 114.929 33.04C114.236 33.04 113.649 33.2533 113.169 33.68C112.702 34.0933 112.416 34.6733 112.309 35.42H117.569ZM126.753 42.18C125.846 42.18 125.033 42.02 124.313 41.7C123.593 41.3667 123.019 40.92 122.593 40.36C122.179 39.8 121.953 39.18 121.913 38.5H124.733C124.786 38.9267 124.993 39.28 125.353 39.56C125.726 39.84 126.186 39.98 126.733 39.98C127.266 39.98 127.679 39.8733 127.973 39.66C128.279 39.4467 128.433 39.1733 128.433 38.84C128.433 38.48 128.246 38.2133 127.873 38.04C127.513 37.8533 126.933 37.6533 126.133 37.44C125.306 37.24 124.626 37.0333 124.093 36.82C123.573 36.6067 123.119 36.28 122.733 35.84C122.359 35.4 122.173 34.8067 122.173 34.06C122.173 33.4467 122.346 32.8867 122.693 32.38C123.053 31.8733 123.559 31.4733 124.213 31.18C124.879 30.8867 125.659 30.74 126.553 30.74C127.873 30.74 128.926 31.0733 129.713 31.74C130.499 32.3933 130.933 33.28 131.013 34.4H128.333C128.293 33.96 128.106 33.6133 127.773 33.36C127.453 33.0933 127.019 32.96 126.473 32.96C125.966 32.96 125.573 33.0533 125.293 33.24C125.026 33.4267 124.893 33.6867 124.893 34.02C124.893 34.3933 125.079 34.68 125.453 34.88C125.826 35.0667 126.406 35.26 127.193 35.46C127.993 35.66 128.653 35.8667 129.173 36.08C129.693 36.2933 130.139 36.6267 130.513 37.08C130.899 37.52 131.099 38.1067 131.113 38.84C131.113 39.48 130.933 40.0533 130.573 40.56C130.226 41.0667 129.719 41.4667 129.053 41.76C128.399 42.04 127.633 42.18 126.753 42.18Z" fill="white"/>
<path d="M17.268 51.66V60H15.9V51.66H17.268ZM18.6081 56.664C18.6081 56 18.7441 55.412 19.0161 54.9C19.2961 54.388 19.6721 53.992 20.1441 53.712C20.6241 53.424 21.1561 53.28 21.7401 53.28C22.1721 53.28 22.5961 53.376 23.0121 53.568C23.4361 53.752 23.7721 54 24.0201 54.312V51.12H25.4001V60H24.0201V59.004C23.7961 59.324 23.4841 59.588 23.0841 59.796C22.6921 60.004 22.2401 60.108 21.7281 60.108C21.1521 60.108 20.6241 59.964 20.1441 59.676C19.6721 59.38 19.2961 58.972 19.0161 58.452C18.7441 57.924 18.6081 57.328 18.6081 56.664ZM24.0201 56.688C24.0201 56.232 23.9241 55.836 23.7321 55.5C23.5481 55.164 23.3041 54.908 23.0001 54.732C22.6961 54.556 22.3681 54.468 22.0161 54.468C21.6641 54.468 21.3361 54.556 21.0321 54.732C20.7281 54.9 20.4801 55.152 20.2881 55.488C20.1041 55.816 20.0121 56.208 20.0121 56.664C20.0121 57.12 20.1041 57.52 20.2881 57.864C20.4801 58.208 20.7281 58.472 21.0321 58.656C21.3441 58.832 21.6721 58.92 22.0161 58.92C22.3681 58.92 22.6961 58.832 23.0001 58.656C23.3041 58.48 23.5481 58.224 23.7321 57.888C23.9241 57.544 24.0201 57.144 24.0201 56.688ZM33.2569 56.532C33.2569 56.78 33.2409 57.004 33.2089 57.204H28.1569C28.1969 57.732 28.3929 58.156 28.7449 58.476C29.0969 58.796 29.5289 58.956 30.0409 58.956C30.7769 58.956 31.2969 58.648 31.6009 58.032H33.0769C32.8769 58.64 32.5129 59.14 31.9849 59.532C31.4649 59.916 30.8169 60.108 30.0409 60.108C29.4089 60.108 28.8409 59.968 28.3369 59.688C27.8409 59.4 27.4489 59 27.1609 58.488C26.8809 57.968 26.7409 57.368 26.7409 56.688C26.7409 56.008 26.8769 55.412 27.1489 54.9C27.4289 54.38 27.8169 53.98 28.3129 53.7C28.8169 53.42 29.3929 53.28 30.0409 53.28C30.6649 53.28 31.2209 53.416 31.7089 53.688C32.1969 53.96 32.5769 54.344 32.8489 54.84C33.1209 55.328 33.2569 55.892 33.2569 56.532ZM31.8289 56.1C31.8209 55.596 31.6409 55.192 31.2889 54.888C30.9369 54.584 30.5009 54.432 29.9809 54.432C29.5089 54.432 29.1049 54.584 28.7689 54.888C28.4329 55.184 28.2329 55.588 28.1689 56.1H31.8289ZM34.1471 56.664C34.1471 56 34.2831 55.412 34.5551 54.9C34.8351 54.388 35.2111 53.992 35.6831 53.712C36.1631 53.424 36.6911 53.28 37.2671 53.28C37.7871 53.28 38.2391 53.384 38.6231 53.592C39.0151 53.792 39.3271 54.044 39.5591 54.348V53.388H40.9391V60H39.5591V59.016C39.3271 59.328 39.0111 59.588 38.6111 59.796C38.2111 60.004 37.7551 60.108 37.2431 60.108C36.6751 60.108 36.1551 59.964 35.6831 59.676C35.2111 59.38 34.8351 58.972 34.5551 58.452C34.2831 57.924 34.1471 57.328 34.1471 56.664ZM39.5591 56.688C39.5591 56.232 39.4631 55.836 39.2711 55.5C39.0871 55.164 38.8431 54.908 38.5391 54.732C38.2351 54.556 37.9071 54.468 37.5551 54.468C37.2031 54.468 36.8751 54.556 36.5711 54.732C36.2671 54.9 36.0191 55.152 35.8271 55.488C35.6431 55.816 35.5511 56.208 35.5511 56.664C35.5511 57.12 35.6431 57.52 35.8271 57.864C36.0191 58.208 36.2671 58.472 36.5711 58.656C36.8831 58.832 37.2111 58.92 37.5551 58.92C37.9071 58.92 38.2351 58.832 38.5391 58.656C38.8431 58.48 39.0871 58.224 39.2711 57.888C39.4631 57.544 39.5591 57.144 39.5591 56.688ZM45.1359 60.108C44.6159 60.108 44.1479 60.016 43.7319 59.832C43.3239 59.64 42.9999 59.384 42.7599 59.064C42.5199 58.736 42.3919 58.372 42.3759 57.972H43.7919C43.8159 58.252 43.9479 58.488 44.1879 58.68C44.4359 58.864 44.7439 58.956 45.1119 58.956C45.4959 58.956 45.7919 58.884 45.9999 58.74C46.2159 58.588 46.3239 58.396 46.3239 58.164C46.3239 57.916 46.2039 57.732 45.9639 57.612C45.7319 57.492 45.3599 57.36 44.8479 57.216C44.3519 57.08 43.9479 56.948 43.6359 56.82C43.3239 56.692 43.0519 56.496 42.8199 56.232C42.5959 55.968 42.4839 55.62 42.4839 55.188C42.4839 54.836 42.5879 54.516 42.7959 54.228C43.0039 53.932 43.2999 53.7 43.6839 53.532C44.0759 53.364 44.5239 53.28 45.0279 53.28C45.7799 53.28 46.3839 53.472 46.8399 53.856C47.3039 54.232 47.5519 54.748 47.5839 55.404H46.2159C46.1919 55.108 46.0719 54.872 45.8559 54.696C45.6399 54.52 45.3479 54.432 44.9799 54.432C44.6199 54.432 44.3439 54.5 44.1519 54.636C43.9599 54.772 43.8639 54.952 43.8639 55.176C43.8639 55.352 43.9279 55.5 44.0559 55.62C44.1839 55.74 44.3399 55.836 44.5239 55.908C44.7079 55.972 44.9799 56.056 45.3399 56.16C45.8199 56.288 46.2119 56.42 46.5159 56.556C46.8279 56.684 47.0959 56.876 47.3199 57.132C47.5439 57.388 47.6599 57.728 47.6679 58.152C47.6679 58.528 47.5639 58.864 47.3559 59.16C47.1479 59.456 46.8519 59.688 46.4679 59.856C46.0919 60.024 45.6479 60.108 45.1359 60.108ZM55.0353 54.504H53.8113V60H52.4313V54.504H51.6513V53.388H52.4313V52.92C52.4313 52.16 52.6313 51.608 53.0313 51.264C53.4393 50.912 54.0753 50.736 54.9393 50.736V51.876C54.5233 51.876 54.2313 51.956 54.0633 52.116C53.8953 52.268 53.8113 52.536 53.8113 52.92V53.388H55.0353V54.504ZM59.1157 60.108C58.4917 60.108 57.9277 59.968 57.4237 59.688C56.9197 59.4 56.5237 59 56.2357 58.488C55.9477 57.968 55.8037 57.368 55.8037 56.688C55.8037 56.016 55.9517 55.42 56.2477 54.9C56.5437 54.38 56.9477 53.98 57.4597 53.7C57.9717 53.42 58.5437 53.28 59.1757 53.28C59.8077 53.28 60.3797 53.42 60.8917 53.7C61.4037 53.98 61.8077 54.38 62.1037 54.9C62.3997 55.42 62.5477 56.016 62.5477 56.688C62.5477 57.36 62.3957 57.956 62.0917 58.476C61.7877 58.996 61.3717 59.4 60.8437 59.688C60.3237 59.968 59.7477 60.108 59.1157 60.108ZM59.1157 58.92C59.4677 58.92 59.7957 58.836 60.0997 58.668C60.4117 58.5 60.6637 58.248 60.8557 57.912C61.0477 57.576 61.1437 57.168 61.1437 56.688C61.1437 56.208 61.0517 55.804 60.8677 55.476C60.6837 55.14 60.4397 54.888 60.1357 54.72C59.8317 54.552 59.5037 54.468 59.1517 54.468C58.7997 54.468 58.4717 54.552 58.1677 54.72C57.8717 54.888 57.6357 55.14 57.4597 55.476C57.2837 55.804 57.1957 56.208 57.1957 56.688C57.1957 57.4 57.3757 57.952 57.7357 58.344C58.1037 58.728 58.5637 58.92 59.1157 58.92ZM65.268 54.348C65.468 54.012 65.732 53.752 66.06 53.568C66.396 53.376 66.792 53.28 67.248 53.28V54.696H66.9C66.364 54.696 65.956 54.832 65.676 55.104C65.404 55.376 65.268 55.848 65.268 56.52V60H63.9V53.388H65.268V54.348ZM78.4747 60H77.1067L72.9907 53.772V60H71.6227V51.648H72.9907L77.1067 57.864V51.648H78.4747V60ZM86.3311 56.532C86.3311 56.78 86.3151 57.004 86.2831 57.204H81.2311C81.2711 57.732 81.4671 58.156 81.8191 58.476C82.1711 58.796 82.6031 58.956 83.1151 58.956C83.8511 58.956 84.3711 58.648 84.6751 58.032H86.1511C85.9511 58.64 85.5871 59.14 85.0591 59.532C84.5391 59.916 83.8911 60.108 83.1151 60.108C82.4831 60.108 81.9151 59.968 81.4111 59.688C80.9151 59.4 80.5231 59 80.2351 58.488C79.9551 57.968 79.8151 57.368 79.8151 56.688C79.8151 56.008 79.9511 55.412 80.2231 54.9C80.5031 54.38 80.8911 53.98 81.3871 53.7C81.8911 53.42 82.4671 53.28 83.1151 53.28C83.7391 53.28 84.2951 53.416 84.7831 53.688C85.2711 53.96 85.6511 54.344 85.9231 54.84C86.1951 55.328 86.3311 55.892 86.3311 56.532ZM84.9031 56.1C84.8951 55.596 84.7151 55.192 84.3631 54.888C84.0111 54.584 83.5751 54.432 83.0551 54.432C82.5831 54.432 82.1791 54.584 81.8431 54.888C81.5071 55.184 81.3071 55.588 81.2431 56.1H84.9031ZM90.5093 56.652L92.6453 60H91.0973L89.6693 57.756L88.3253 60H86.8973L89.0333 56.748L86.8973 53.388H88.4453L89.8733 55.632L91.2173 53.388H92.6453L90.5093 56.652ZM95.2616 54.504V58.164C95.2616 58.412 95.3176 58.592 95.4296 58.704C95.5496 58.808 95.7496 58.86 96.0296 58.86H96.8696V60H95.7896C95.1736 60 94.7016 59.856 94.3736 59.568C94.0456 59.28 93.8816 58.812 93.8816 58.164V54.504H93.1016V53.388H93.8816V51.744H95.2616V53.388H96.8696V54.504H95.2616ZM100.792 55.812C100.792 54.996 100.98 54.264 101.356 53.616C101.74 52.968 102.256 52.464 102.904 52.104C103.56 51.736 104.276 51.552 105.052 51.552C105.94 51.552 106.728 51.772 107.416 52.212C108.112 52.644 108.616 53.26 108.928 54.06H107.284C107.068 53.62 106.768 53.292 106.384 53.076C106 52.86 105.556 52.752 105.052 52.752C104.5 52.752 104.008 52.876 103.576 53.124C103.144 53.372 102.804 53.728 102.556 54.192C102.316 54.656 102.196 55.196 102.196 55.812C102.196 56.428 102.316 56.968 102.556 57.432C102.804 57.896 103.144 58.256 103.576 58.512C104.008 58.76 104.5 58.884 105.052 58.884C105.556 58.884 106 58.776 106.384 58.56C106.768 58.344 107.068 58.016 107.284 57.576H108.928C108.616 58.376 108.112 58.992 107.416 59.424C106.728 59.856 105.94 60.072 105.052 60.072C104.268 60.072 103.552 59.892 102.904 59.532C102.256 59.164 101.74 58.656 101.356 58.008C100.98 57.36 100.792 56.628 100.792 55.812ZM113.949 53.28C114.453 53.28 114.901 53.388 115.293 53.604C115.693 53.82 116.005 54.14 116.229 54.564C116.461 54.988 116.577 55.5 116.577 56.1V60H115.221V56.304C115.221 55.712 115.073 55.26 114.777 54.948C114.481 54.628 114.077 54.468 113.565 54.468C113.053 54.468 112.645 54.628 112.341 54.948C112.045 55.26 111.897 55.712 111.897 56.304V60H110.529V51.12H111.897V54.156C112.129 53.876 112.421 53.66 112.773 53.508C113.133 53.356 113.525 53.28 113.949 53.28ZM117.866 56.664C117.866 56 118.002 55.412 118.274 54.9C118.554 54.388 118.93 53.992 119.402 53.712C119.882 53.424 120.41 53.28 120.986 53.28C121.506 53.28 121.958 53.384 122.342 53.592C122.734 53.792 123.046 54.044 123.278 54.348V53.388H124.658V60H123.278V59.016C123.046 59.328 122.73 59.588 122.33 59.796C121.93 60.004 121.474 60.108 120.962 60.108C120.394 60.108 119.874 59.964 119.402 59.676C118.93 59.38 118.554 58.972 118.274 58.452C118.002 57.924 117.866 57.328 117.866 56.664ZM123.278 56.688C123.278 56.232 123.182 55.836 122.99 55.5C122.806 55.164 122.562 54.908 122.258 54.732C121.954 54.556 121.626 54.468 121.274 54.468C120.922 54.468 120.594 54.556 120.29 54.732C119.986 54.9 119.738 55.152 119.546 55.488C119.362 55.816 119.27 56.208 119.27 56.664C119.27 57.12 119.362 57.52 119.546 57.864C119.738 58.208 119.986 58.472 120.29 58.656C120.602 58.832 120.93 58.92 121.274 58.92C121.626 58.92 121.954 58.832 122.258 58.656C122.562 58.48 122.806 58.224 122.99 57.888C123.182 57.544 123.278 57.144 123.278 56.688ZM127.823 54.36C128.055 54.056 128.371 53.8 128.771 53.592C129.171 53.384 129.623 53.28 130.127 53.28C130.703 53.28 131.227 53.424 131.699 53.712C132.179 53.992 132.555 54.388 132.827 54.9C133.099 55.412 133.235 56 133.235 56.664C133.235 57.328 133.099 57.924 132.827 58.452C132.555 58.972 132.179 59.38 131.699 59.676C131.227 59.964 130.703 60.108 130.127 60.108C129.623 60.108 129.175 60.008 128.783 59.808C128.391 59.6 128.071 59.344 127.823 59.04V63.144H126.455V53.388H127.823V54.36ZM131.843 56.664C131.843 56.208 131.747 55.816 131.555 55.488C131.371 55.152 131.123 54.9 130.811 54.732C130.507 54.556 130.179 54.468 129.827 54.468C129.483 54.468 129.155 54.556 128.843 54.732C128.539 54.908 128.291 55.164 128.099 55.5C127.915 55.836 127.823 56.232 127.823 56.688C127.823 57.144 127.915 57.544 128.099 57.888C128.291 58.224 128.539 58.48 128.843 58.656C129.155 58.832 129.483 58.92 129.827 58.92C130.179 58.92 130.507 58.832 130.811 58.656C131.123 58.472 131.371 58.208 131.555 57.864C131.747 57.52 131.843 57.12 131.843 56.664ZM136.184 54.504V58.164C136.184 58.412 136.24 58.592 136.352 58.704C136.472 58.808 136.672 58.86 136.952 58.86H137.792V60H136.712C136.096 60 135.624 59.856 135.296 59.568C134.968 59.28 134.804 58.812 134.804 58.164V54.504H134.024V53.388H134.804V51.744H136.184V53.388H137.792V54.504H136.184ZM145.112 56.532C145.112 56.78 145.096 57.004 145.064 57.204H140.012C140.052 57.732 140.248 58.156 140.6 58.476C140.952 58.796 141.384 58.956 141.896 58.956C142.632 58.956 143.152 58.648 143.456 58.032H144.932C144.732 58.64 144.368 59.14 143.84 59.532C143.32 59.916 142.672 60.108 141.896 60.108C141.264 60.108 140.696 59.968 140.192 59.688C139.696 59.4 139.304 59 139.016 58.488C138.736 57.968 138.596 57.368 138.596 56.688C138.596 56.008 138.732 55.412 139.004 54.9C139.284 54.38 139.672 53.98 140.168 53.7C140.672 53.42 141.248 53.28 141.896 53.28C142.52 53.28 143.076 53.416 143.564 53.688C144.052 53.96 144.432 54.344 144.704 54.84C144.976 55.328 145.112 55.892 145.112 56.532ZM143.684 56.1C143.676 55.596 143.496 55.192 143.144 54.888C142.792 54.584 142.356 54.432 141.836 54.432C141.364 54.432 140.96 54.584 140.624 54.888C140.288 55.184 140.088 55.588 140.024 56.1H143.684ZM147.827 54.348C148.027 54.012 148.291 53.752 148.619 53.568C148.955 53.376 149.351 53.28 149.807 53.28V54.696H149.459C148.923 54.696 148.515 54.832 148.235 55.104C147.963 55.376 147.827 55.848 147.827 56.52V60H146.459V53.388H147.827V54.348ZM153.464 60.108C152.944 60.108 152.476 60.016 152.06 59.832C151.652 59.64 151.328 59.384 151.088 59.064C150.848 58.736 150.72 58.372 150.704 57.972H152.12C152.144 58.252 152.276 58.488 152.516 58.68C152.764 58.864 153.072 58.956 153.44 58.956C153.824 58.956 154.12 58.884 154.328 58.74C154.544 58.588 154.652 58.396 154.652 58.164C154.652 57.916 154.532 57.732 154.292 57.612C154.06 57.492 153.688 57.36 153.176 57.216C152.68 57.08 152.276 56.948 151.964 56.82C151.652 56.692 151.38 56.496 151.148 56.232C150.924 55.968 150.812 55.62 150.812 55.188C150.812 54.836 150.916 54.516 151.124 54.228C151.332 53.932 151.628 53.7 152.012 53.532C152.404 53.364 152.852 53.28 153.356 53.28C154.108 53.28 154.712 53.472 155.168 53.856C155.632 54.232 155.88 54.748 155.912 55.404H154.544C154.52 55.108 154.4 54.872 154.184 54.696C153.968 54.52 153.676 54.432 153.308 54.432C152.948 54.432 152.672 54.5 152.48 54.636C152.288 54.772 152.192 54.952 152.192 55.176C152.192 55.352 152.256 55.5 152.384 55.62C152.512 55.74 152.668 55.836 152.852 55.908C153.036 55.972 153.308 56.056 153.668 56.16C154.148 56.288 154.54 56.42 154.844 56.556C155.156 56.684 155.424 56.876 155.648 57.132C155.872 57.388 155.988 57.728 155.996 58.152C155.996 58.528 155.892 58.864 155.684 59.16C155.476 59.456 155.18 59.688 154.796 59.856C154.42 60.024 153.976 60.108 153.464 60.108ZM161.287 52.512C161.039 52.512 160.831 52.428 160.663 52.26C160.495 52.092 160.411 51.884 160.411 51.636C160.411 51.388 160.495 51.18 160.663 51.012C160.831 50.844 161.039 50.76 161.287 50.76C161.527 50.76 161.731 50.844 161.899 51.012C162.067 51.18 162.151 51.388 162.151 51.636C162.151 51.884 162.067 52.092 161.899 52.26C161.731 52.428 161.527 52.512 161.287 52.512ZM161.959 53.388V60H160.591V53.388H161.959ZM167.091 53.28C167.611 53.28 168.075 53.388 168.483 53.604C168.899 53.82 169.223 54.14 169.455 54.564C169.687 54.988 169.803 55.5 169.803 56.1V60H168.447V56.304C168.447 55.712 168.299 55.26 168.003 54.948C167.707 54.628 167.303 54.468 166.791 54.468C166.279 54.468 165.871 54.628 165.567 54.948C165.271 55.26 165.123 55.712 165.123 56.304V60H163.755V53.388H165.123V54.144C165.347 53.872 165.631 53.66 165.975 53.508C166.327 53.356 166.699 53.28 167.091 53.28ZM176.034 58.896H178.854V60H174.666V51.66H176.034V58.896ZM180.694 52.512C180.446 52.512 180.238 52.428 180.07 52.26C179.902 52.092 179.818 51.884 179.818 51.636C179.818 51.388 179.902 51.18 180.07 51.012C180.238 50.844 180.446 50.76 180.694 50.76C180.934 50.76 181.138 50.844 181.306 51.012C181.474 51.18 181.558 51.388 181.558 51.636C181.558 51.884 181.474 52.092 181.306 52.26C181.138 52.428 180.934 52.512 180.694 52.512ZM181.366 53.388V60H179.998V53.388H181.366ZM185.934 54.504H184.71V60H183.33V54.504H182.55V53.388H183.33V52.92C183.33 52.16 183.53 51.608 183.93 51.264C184.338 50.912 184.974 50.736 185.838 50.736V51.876C185.422 51.876 185.13 51.956 184.962 52.116C184.794 52.268 184.71 52.536 184.71 52.92V53.388H185.934V54.504ZM193.206 56.532C193.206 56.78 193.19 57.004 193.158 57.204H188.106C188.146 57.732 188.342 58.156 188.694 58.476C189.046 58.796 189.478 58.956 189.99 58.956C190.726 58.956 191.246 58.648 191.55 58.032H193.026C192.826 58.64 192.462 59.14 191.934 59.532C191.414 59.916 190.766 60.108 189.99 60.108C189.358 60.108 188.79 59.968 188.286 59.688C187.79 59.4 187.398 59 187.11 58.488C186.83 57.968 186.69 57.368 186.69 56.688C186.69 56.008 186.826 55.412 187.098 54.9C187.378 54.38 187.766 53.98 188.262 53.7C188.766 53.42 189.342 53.28 189.99 53.28C190.614 53.28 191.17 53.416 191.658 53.688C192.146 53.96 192.526 54.344 192.798 54.84C193.07 55.328 193.206 55.892 193.206 56.532ZM191.778 56.1C191.77 55.596 191.59 55.192 191.238 54.888C190.886 54.584 190.45 54.432 189.93 54.432C189.458 54.432 189.054 54.584 188.718 54.888C188.382 55.184 188.182 55.588 188.118 56.1H191.778Z" fill="white"/>
</svg>
