<svg width="24" height="24" viewBox="0 0 24 24" fill="none" xmlns="http://www.w3.org/2000/svg">
<path d="M23.2349 10.95H21.4949V20.475H2.50492V4.92H11.9999V3H2.50492C2.26256 3.0076 2.02419 3.06369 1.80387 3.16495C1.58355 3.26621 1.38575 3.41059 1.22216 3.58956C1.05856 3.76854 0.932488 3.97848 0.85138 4.20699C0.770271 4.43549 0.735771 4.67794 0.749918 4.92V20.475C0.741907 20.7134 0.780961 20.951 0.864845 21.1743C0.94873 21.3976 1.0758 21.6021 1.23879 21.7763C1.40178 21.9504 1.5975 22.0907 1.81475 22.1891C2.032 22.2876 2.26653 22.3422 2.50492 22.35H21.4949C21.7333 22.3422 21.9678 22.2876 22.1851 22.1891C22.4023 22.0907 22.5981 21.9504 22.761 21.7763C22.924 21.6021 23.0511 21.3976 23.135 21.1743C23.2189 20.951 23.2579 20.7134 23.2499 20.475L23.2349 10.95Z" fill="#7A97FF"/>
<path d="M15.84 4.30499L9.32999 10.83L8.66999 11.49L8.54999 11.61L6.26999 16.35C6.11702 16.6543 6.06386 16.9991 6.11806 17.3354C6.17226 17.6716 6.33106 17.9822 6.5719 18.2231C6.81274 18.4639 7.12337 18.6227 7.45963 18.6769C7.79589 18.7311 8.14068 18.678 8.44499 18.525L13.155 16.23L13.95 15.435L14.595 14.79L21.105 8.24999L21.78 7.58999L22.155 7.21499C22.7669 6.60193 23.1105 5.77116 23.1105 4.90499C23.1105 4.03883 22.7669 3.20806 22.155 2.59499C21.5448 1.98925 20.7198 1.64953 19.86 1.64999C18.996 1.65044 18.1666 1.98973 17.55 2.59499L16.5 3.62999L15.825 4.28999L15.84 4.30499ZM8.26499 16.5L10.035 12.855L11.91 14.745L8.26499 16.5ZM11.265 11.46L17.115 5.59499L19.065 7.55999L13.275 13.5L11.265 11.46ZM19.785 3.49499C19.9664 3.49353 20.1462 3.52865 20.3137 3.59823C20.4812 3.66781 20.633 3.77045 20.76 3.89999C21.0192 4.16128 21.1647 4.51443 21.1647 4.88249C21.1647 5.25056 21.0192 5.60371 20.76 5.86499L20.385 6.22499L18.435 4.27499L18.81 3.89999C18.9454 3.76669 19.1079 3.66417 19.2865 3.59945C19.4652 3.53473 19.6556 3.50933 19.845 3.52499L19.785 3.49499Z" fill="#7A97FF"/>
</svg>
