<svg width="20" height="20" viewBox="0 0 20 20" fill="none" xmlns="http://www.w3.org/2000/svg">
<path fill-rule="evenodd" clip-rule="evenodd" d="M10 1.53846C5.32692 1.53846 1.53846 5.32692 1.53846 10C1.53846 14.6731 5.32692 18.4615 10 18.4615C14.6731 18.4615 18.4615 14.6731 18.4615 10C18.4615 5.32692 14.6731 1.53846 10 1.53846ZM0 10C0 4.47692 4.47692 0 10 0C15.5231 0 20 4.47692 20 10C20 15.5231 15.5231 20 10 20C4.47692 20 0 15.5231 0 10Z" fill="#9D9C9D"/>
<path fill-rule="evenodd" clip-rule="evenodd" d="M10.0002 6.15394C9.1841 6.15394 8.40147 6.47811 7.82444 7.05515C7.2474 7.63218 6.92323 8.41481 6.92323 9.23086C6.92323 10.0469 7.2474 10.8295 7.82444 11.4066C8.40147 11.9836 9.1841 12.3078 10.0002 12.3078C10.8162 12.3078 11.5988 11.9836 12.1759 11.4066C12.7529 10.8295 13.0771 10.0469 13.0771 9.23086C13.0771 8.41481 12.7529 7.63218 12.1759 7.05515C11.5988 6.47811 10.8162 6.15394 10.0002 6.15394ZM5.38477 9.23086C5.38477 8.00679 5.87103 6.83285 6.73658 5.96729C7.60213 5.10174 8.77607 4.61548 10.0002 4.61548C11.2242 4.61548 12.3982 5.10174 13.2637 5.96729C14.1293 6.83285 14.6155 8.00679 14.6155 9.23086C14.6155 10.4549 14.1293 11.6289 13.2637 12.4944C12.3982 13.36 11.2242 13.8462 10.0002 13.8462C8.77607 13.8462 7.60213 13.36 6.73658 12.4944C5.87103 11.6289 5.38477 10.4549 5.38477 9.23086Z" fill="#9D9C9D"/>
<path fill-rule="evenodd" clip-rule="evenodd" d="M9.99928 13.8462C8.86294 13.8462 7.74878 14.1609 6.7803 14.7553C5.81182 15.3497 5.02684 16.2007 4.51236 17.2139C4.4666 17.304 4.40354 17.3842 4.32678 17.4499C4.25002 17.5157 4.16106 17.5656 4.06499 17.597C3.96892 17.6284 3.86761 17.6405 3.76685 17.6327C3.66609 17.6249 3.56785 17.5973 3.47775 17.5516C3.38764 17.5058 3.30743 17.4428 3.24169 17.366C3.17595 17.2892 3.12598 17.2003 3.09462 17.1042C3.06327 17.0081 3.05114 16.9068 3.05893 16.8061C3.06673 16.7053 3.09429 16.6071 3.14005 16.517C3.78307 15.2502 4.76433 14.1862 5.97505 13.443C7.18577 12.6998 8.57865 12.3064 9.99928 12.3064C11.4199 12.3064 12.8128 12.6998 14.0235 13.443C15.2342 14.1862 16.2155 15.2502 16.8585 16.517C16.9509 16.6989 16.9673 16.9102 16.9039 17.1042C16.8406 17.2982 16.7028 17.4592 16.5208 17.5516C16.3388 17.644 16.1276 17.6603 15.9336 17.597C15.7395 17.5337 15.5786 17.3959 15.4862 17.2139C14.9718 16.2005 14.1869 15.3494 13.2184 14.7548C12.2499 14.1603 11.1357 13.8463 9.99928 13.8462Z" fill="#9D9C9D"/>
</svg>
