<svg width="20" height="23" viewBox="0 0 20 23" fill="none" xmlns="http://www.w3.org/2000/svg">
<path d="M1.76 8.17867C1.6717 8.09028 1.54944 8.03962 1.42453 8.03962M1.76 8.17867L1.72463 8.21401M1.76 8.17867C1.75999 8.17866 1.75998 8.17865 1.75997 8.17864L1.72463 8.21401M1.76 8.17867C1.84836 8.267 1.89906 8.38923 1.89906 8.51415C1.89906 8.63906 1.84837 8.7613 1.76 8.84959M1.42453 8.03962L1.72463 8.21401M1.42453 8.03962C1.29959 8.03962 1.1774 8.09033 1.08904 8.17864M1.42453 8.03962L1.08904 8.17864M1.72463 8.21401C1.80363 8.29297 1.84906 8.4025 1.84906 8.51415C1.84906 8.6258 1.80363 8.73533 1.72463 8.81425M1.76 8.84959L1.72463 8.81425M1.76 8.84959C1.67171 8.93797 1.54946 8.98868 1.42453 8.98868C1.2996 8.98868 1.17735 8.93797 1.08902 8.8496M1.76 8.84959C1.75999 8.8496 1.75998 8.84961 1.75996 8.84962L1.72463 8.81425M1.72463 8.81425L1.08902 8.8496M1.08902 8.8496C1.08903 8.84961 1.08904 8.84961 1.08905 8.84962L1.12438 8.81425L1.08902 8.8496ZM1.08902 8.8496C1.00064 8.7613 0.95 8.63905 0.95 8.51415M1.08902 8.8496L0.95 8.51415M1.08904 8.17864C1.00066 8.26698 0.95 8.38923 0.95 8.51415M1.08904 8.17864L0.95 8.51415M17.7264 0.95H9.13681C8.87477 0.95 8.66228 1.16249 8.66228 1.42453C8.66228 1.68657 8.87477 1.89906 9.13681 1.89906H17.7264C17.9329 1.89906 18.1009 2.06711 18.1009 2.27358V21.4623C18.1009 21.6687 17.9329 21.8368 17.7264 21.8368H2.27358C2.06711 21.8368 1.89906 21.6687 1.89906 21.4623V10.099C1.89906 9.837 1.68657 9.62451 1.42453 9.62451C1.16249 9.62451 0.95 9.837 0.95 10.099V21.4623C0.95 22.1921 1.54372 22.7858 2.27358 22.7858H17.7264C18.4563 22.7858 19.05 22.1921 19.05 21.4623V2.27358C19.05 1.54372 18.4563 0.95 17.7264 0.95Z" fill="#BDBDBD" stroke="#BDBDBD" stroke-width="0.1"/>
<path d="M6.41454 15.6079C6.32621 15.5195 6.20396 15.4689 6.07905 15.4689C5.95412 15.4689 5.83188 15.5196 5.74355 15.6079C5.65522 15.6962 5.60452 15.8185 5.60452 15.9434L5.60452 15.9435C5.60487 16.0692 5.6548 16.1897 5.74347 16.2788L5.74354 16.2788C5.83187 16.3672 5.95412 16.4179 6.07905 16.4179C6.20398 16.4179 6.32622 16.3672 6.41455 16.2788L6.37919 16.2435M6.41454 15.6079C6.50341 15.6963 6.55357 15.8186 6.55357 15.9434C6.55357 16.0682 6.50337 16.1905 6.41444 16.279L6.37919 16.2435M6.41454 15.6079C6.41455 15.6079 6.41455 15.6079 6.41455 15.6079L6.37919 15.6433M6.41454 15.6079C6.41451 15.6079 6.41448 15.6078 6.41445 15.6078L6.37919 15.6433M6.37919 16.2435C6.30023 16.3225 6.1907 16.3679 6.07905 16.3679C5.9674 16.3679 5.85787 16.3225 5.77891 16.2435L6.37919 15.6433M6.37919 16.2435C6.45858 16.1646 6.50357 16.0551 6.50357 15.9434C6.50357 15.8318 6.45858 15.7222 6.37919 15.6433M6.07905 17.8462H6.07917C6.20488 17.8465 6.32539 17.8965 6.41447 17.9852M6.07905 17.8462L6.37919 18.0206M6.07905 17.8462C5.95412 17.8462 5.83188 17.8969 5.74355 17.9853C5.65522 18.0736 5.60452 18.1958 5.60452 18.3208L5.60452 18.3209C5.60487 18.4466 5.6548 18.5671 5.74347 18.6561L5.74354 18.6562C5.83187 18.7446 5.95411 18.7953 6.07905 18.7953C6.20398 18.7953 6.32622 18.7446 6.41455 18.6562L6.37919 18.6209M6.07905 17.8462L5.77891 18.6209C5.85787 18.6999 5.9674 18.7453 6.07905 18.7453C6.1907 18.7453 6.30023 18.6999 6.37919 18.6209M6.41447 17.9852L6.37919 18.0206M6.41447 17.9852C6.41446 17.9852 6.41446 17.9852 6.41445 17.9852L6.37919 18.0206M6.41447 17.9852C6.50338 18.0736 6.55357 18.196 6.55357 18.3208V18.3208C6.55348 18.4466 6.50348 18.5672 6.41455 18.6562L6.37919 18.6209M6.37919 18.0206C6.45858 18.0996 6.50357 18.2091 6.50357 18.3208C6.50349 18.4333 6.45875 18.5412 6.37919 18.6209M6.02889 3.41115L6.0289 3.41117C6.21421 3.59647 6.2142 3.89694 6.02891 4.08228L6.0289 4.08229L4.34616 5.76503L4.34613 5.76506C4.25346 5.85759 4.13203 5.90396 4.01064 5.90398C4.01062 5.90398 4.0106 5.90398 4.01057 5.90398L6.02889 3.41115ZM6.02889 3.41115C5.8435 3.22591 5.54314 3.2259 5.35779 3.41116L5.35778 3.41117M6.02889 3.41115L5.35778 3.41117M5.35778 3.41117L4.01062 4.75833M5.35778 3.41117L4.01062 4.75833M4.01062 4.75833L3.57352 4.32123L3.5735 4.32121C3.38812 4.13597 3.08775 4.13597 2.9024 4.32122L2.90239 4.32123C2.71709 4.50657 2.71709 4.80704 2.90239 4.99235L3.67499 5.76494L4.01062 4.75833ZM9.1296 2.71424L9.12959 2.71425C8.87056 2.75401 8.69275 2.99615 8.73247 3.25521C8.77219 3.5143 9.0145 3.69182 9.27339 3.65235L9.27341 3.65234C9.51385 3.61559 9.75675 3.59715 9.99998 3.59718C12.6176 3.59718 14.7472 5.72681 14.7472 8.34439C14.7472 9.48148 14.3452 10.5262 13.6759 11.3446C13.3645 10.829 12.9472 10.3834 12.445 10.0348C12.1643 9.83993 11.8613 9.67945 11.5426 9.55673C11.9063 9.17453 12.1302 8.6579 12.1302 8.08971V7.6758C12.1302 6.50111 11.1746 5.54557 9.99999 5.54557C8.82534 5.54557 7.8698 6.50111 7.8698 7.6758V8.08971C7.8698 8.6579 8.09369 9.17453 8.45739 9.55673C8.13869 9.67947 7.83573 9.83995 7.55502 10.0348C7.05032 10.3851 6.63137 10.8332 6.31947 11.352C5.81318 10.7317 5.45928 9.97614 5.31836 9.13584C5.27503 8.87743 5.03013 8.70312 4.7719 8.74635L4.77189 8.74635C4.51341 8.78968 4.33903 9.03434 4.38235 9.29281L4.38235 9.29282C4.6026 10.6061 5.28432 11.808 6.30193 12.6772C7.33117 13.5565 8.64451 14.0407 9.99995 14.0407C13.1409 14.0407 15.6962 11.4854 15.6962 8.34443C15.6962 5.20345 13.141 2.64812 9.99999 2.64812C9.70862 2.64812 9.41579 2.67039 9.1296 2.71424ZM8.81886 7.67576C8.81886 7.02451 9.34878 6.49458 9.99999 6.49458C10.6512 6.49458 11.1811 7.02451 11.1811 7.67576V8.08967C11.1811 8.74088 10.6512 9.2708 9.99999 9.2708C9.34878 9.2708 8.81886 8.74088 8.81886 8.08967V7.67576ZM9.99999 13.0916C8.87667 13.0916 7.8373 12.7043 7.01905 12.0463C7.58694 10.927 8.7244 10.2199 9.99999 10.2199C11.2729 10.2199 12.4082 10.924 12.9772 12.0392C12.1623 12.6971 11.1264 13.0916 9.99999 13.0916ZM13.9208 17.8463H7.8925C7.63047 17.8463 7.41798 18.0588 7.41798 18.3208C7.41798 18.5829 7.63047 18.7954 7.8925 18.7954H13.9208C14.1829 18.7954 14.3953 18.5829 14.3953 18.3208C14.3953 18.0588 14.1828 17.8463 13.9208 17.8463ZM13.9208 15.469H7.8925C7.63047 15.469 7.41798 15.6814 7.41798 15.9435C7.41798 16.2055 7.63047 16.418 7.8925 16.418H13.9208C14.1829 16.418 14.3953 16.2055 14.3953 15.9435C14.3953 15.6814 14.1828 15.469 13.9208 15.469Z" fill="#BDBDBD" stroke="#BDBDBD" stroke-width="0.1"/>
<path d="M4.48113 0.95C2.53401 0.95 0.95 2.53401 0.95 4.48113C0.95 6.42825 2.53401 8.01226 4.48113 8.01226C6.42825 8.01226 8.01226 6.42825 8.01226 4.48113C8.01226 2.53401 6.42825 0.95 4.48113 0.95ZM4.48113 7.06321C3.05741 7.06321 1.89906 5.90485 1.89906 4.48113C1.89906 3.05741 3.05741 1.89906 4.48113 1.89906C5.90485 1.89906 7.06321 3.05741 7.06321 4.48113C7.06321 5.90485 5.90485 7.06321 4.48113 7.06321Z" fill="#BDBDBD" stroke="#BDBDBD" stroke-width="0.1"/>
</svg>
