<svg width="25" height="21" viewBox="0 0 25 21" fill="none" xmlns="http://www.w3.org/2000/svg">
<path d="M12.5791 0.947975L12.5791 0.947977L23.2201 4.93256C23.2201 4.93257 23.2201 4.93257 23.2202 4.93258C23.3703 4.98872 23.4994 5.09112 23.5903 5.22523C23.6812 5.35931 23.7297 5.51875 23.7296 5.68183C23.7295 5.84491 23.6808 6.00428 23.5897 6.13823C23.4985 6.27222 23.3693 6.37444 23.2191 6.43036L22.1211 6.83964V13.0482L23.8745 14.8611C23.8745 14.8611 23.8745 14.8611 23.8745 14.8611C24.1752 15.1719 24.1752 15.6746 23.8745 15.9854L22.1212 17.7983V19.3033C22.1212 19.7401 21.7779 20.1 21.3474 20.1C20.917 20.1 20.5736 19.7401 20.5736 19.3033V17.7983L18.8202 15.9853L18.8921 15.9158L18.8202 15.9853C18.6755 15.8357 18.5948 15.6335 18.5948 15.4232C18.5948 15.213 18.6755 15.0108 18.8202 14.8611L18.8921 14.9307L18.8202 14.8611L20.5736 13.0482V7.41644L19.1339 7.95313V12.4301C19.1339 12.598 19.0824 12.762 18.9862 12.8983L18.9862 12.8983C18.9333 12.9732 18.4973 13.5586 17.4193 14.1107C16.0537 14.8101 14.2859 15.1613 12.1702 15.1613C10.053 15.1613 8.29371 14.8094 6.94676 14.1083C5.87866 13.5524 5.4561 12.9604 5.40482 12.8843M12.5791 0.947975L5.48773 12.8284M12.5791 0.947975C12.4083 0.884008 12.221 0.884008 12.0502 0.947975L12.0501 0.947977L1.40916 4.93258L1.40913 4.93259C1.25966 4.98861 1.13101 5.09051 1.04018 5.22393C0.949371 5.3573 0.900585 5.51592 0.900005 5.67835C0.899425 5.84077 0.947077 5.99975 1.03692 6.1338C1.12679 6.26789 1.25469 6.37077 1.40375 6.42792L1.40379 6.42794L5.26667 7.90751M12.5791 0.947975L5.36667 7.83873M5.40482 12.8843L5.48773 12.8284M5.40482 12.8843C5.40482 12.8843 5.40483 12.8843 5.40483 12.8843L5.48773 12.8284M5.40482 12.8843C5.3147 12.7507 5.26667 12.5921 5.26667 12.43V7.90751M5.48773 12.8284C5.4089 12.7116 5.36667 12.5725 5.36667 12.43V7.83873M5.26667 7.90751L5.33091 7.93211L5.36667 7.83873M5.26667 7.90751V7.83873H5.36667M6.81421 12.1184V8.50029L11.9004 10.4484L11.9099 10.4521L11.92 10.4537C11.9296 10.4553 11.9388 10.4583 11.9581 10.4644C11.9619 10.4656 11.9661 10.467 11.9708 10.4684C11.9966 10.4766 12.0296 10.4863 12.0715 10.4922C12.1563 10.5041 12.2656 10.4988 12.4259 10.4534L12.426 10.4537L12.4336 10.4509L17.5864 8.53011L17.5863 12.1084C17.0279 12.6131 16.1997 12.9843 15.2325 13.2263C14.2482 13.4727 13.1285 13.5832 12.022 13.5683C10.9154 13.5535 9.8254 13.4134 8.90069 13.1606C7.99273 12.9124 7.25546 12.5586 6.81421 12.1184ZM3.91487 5.68972L12.3147 2.54437L20.6873 5.67958L12.1739 8.85317L3.91487 5.68972ZM22.2343 15.4232L21.3474 16.3403L20.4604 15.4232L21.3474 14.5062L22.2343 15.4232Z" fill="#9D9C9D" stroke="#9D9C9D" stroke-width="0.2"/>
</svg>
