<svg width="85" height="100" viewBox="0 0 85 100" fill="none" xmlns="http://www.w3.org/2000/svg">
<path d="M83.3007 9.57232C82.6259 8.77748 81.7862 8.13907 80.8398 7.70146C79.8934 7.26385 78.8631 7.03752 77.8205 7.0382H70.885V4.86875C70.885 2.18418 68.7007 0 66.0163 0H18.9841C16.2993 0 14.1155 2.18418 14.1155 4.86856V7.038H7.17932C6.13667 7.03735 5.10638 7.26369 4.16002 7.7013C3.21365 8.13891 2.3739 8.7773 1.69909 9.57213C0.343525 11.166 -0.242361 13.2594 0.0920706 15.3154C1.91448 26.5213 8.96664 36.4211 18.9754 41.8513C19.8899 44.05 20.9255 46.1326 22.0789 48.0729C25.7629 54.272 30.3428 58.5563 35.3839 60.6282C35.8947 65.7938 32.4575 70.6873 27.2811 71.8535C27.2701 71.856 27.2623 71.8599 27.2514 71.8624C26.2412 72.1038 25.4891 73.0103 25.4891 74.0945V84.634H21.2266C17.4263 84.634 14.3346 87.7257 14.3346 91.526V96.9657C14.3346 98.2346 15.3631 99.2631 16.632 99.2631H68.5876C69.8566 99.2631 70.885 98.2346 70.885 96.9657V91.526C70.885 87.7257 67.7933 84.634 63.993 84.634H59.7301V74.0947C59.7301 73.0084 58.9754 72.1005 57.9624 71.8612C57.9529 71.8589 57.9438 71.8558 57.9343 71.8535C52.7187 70.6796 49.2751 65.7368 49.8397 60.5324C54.7928 58.4269 59.2924 54.1809 62.9221 48.0733C64.0754 46.1328 65.1109 44.05 66.0256 41.8509C76.0338 36.4205 83.0855 26.521 84.9079 15.3154C85.2424 13.2594 84.6565 11.1662 83.3007 9.57232ZM4.62716 14.5778C4.50774 13.8436 4.71072 13.1229 5.1989 12.5487C5.44268 12.2614 5.74609 12.0306 6.08806 11.8724C6.43002 11.7141 6.80233 11.6323 7.17912 11.6324H14.1153V15.8593C14.1153 22.487 14.9612 28.907 16.5644 34.778C10.2642 29.7996 5.92651 22.5675 4.62716 14.5778ZM63.993 89.229C65.2598 89.229 66.2904 90.2596 66.2904 91.5264V94.6687H18.9292V91.5264C18.9292 90.2596 19.9599 89.229 21.2266 89.229H63.993ZM55.1353 76.3921V84.6342H30.0843V76.3921H55.1353ZM36.1093 71.7974C36.6824 71.1661 37.2014 70.4878 37.6607 69.7695C39.1917 67.3773 39.9953 64.6596 40.0314 61.8839C40.8474 61.995 41.671 62.0545 42.5016 62.0545C43.4005 62.0536 44.2981 61.9865 45.1871 61.8537C45.2394 65.5836 46.6912 69.1142 49.1322 71.7972H36.1093V71.7974ZM66.2901 15.8595C66.2901 27.1776 63.691 37.7844 58.9719 45.7255C54.4756 53.2924 48.626 57.4597 42.5012 57.4597C36.3753 57.4597 30.5254 53.2926 26.0285 45.7259C21.3092 37.7846 18.7102 27.1778 18.7102 15.8598V4.86856C18.7102 4.71733 18.8331 4.59461 18.9839 4.59461H66.0159C66.1671 4.59461 66.2901 4.71753 66.2901 4.86856V15.8595ZM80.3728 14.5778C79.0735 22.5669 74.7362 29.7988 68.4362 34.7776C70.0392 28.9066 70.885 22.487 70.885 15.8595V11.6326H77.8205C78.584 11.6326 79.3056 11.9667 79.8007 12.5489C80.2889 13.1229 80.4921 13.8436 80.3728 14.5778Z" fill="#1476B7"/>
<path d="M56.4471 23.5862C56.3144 23.1786 56.0705 22.8162 55.7428 22.54C55.4151 22.2637 55.0166 22.0846 54.5925 22.0228L47.6599 21.0154L44.5597 14.7335C44.3699 14.3493 44.0763 14.0258 43.7123 13.7996C43.3483 13.5734 42.9282 13.4535 42.4996 13.4535C42.071 13.4535 41.651 13.5734 41.2869 13.7996C40.9229 14.0258 40.6293 14.3493 40.4395 14.7335L37.3393 21.0154L30.4067 22.0228C29.9825 22.0844 29.5839 22.2634 29.2561 22.5398C28.9283 22.8161 28.6843 23.1786 28.5519 23.5864C28.4194 23.9941 28.4037 24.4308 28.5065 24.847C28.6093 25.2632 28.8265 25.6424 29.1336 25.9416L34.1501 30.8312L32.9657 37.7357C32.8931 38.1582 32.9402 38.5926 33.1016 38.9898C33.2631 39.3869 33.5325 39.731 33.8793 39.983C34.2262 40.235 34.6366 40.3849 35.0642 40.4157C35.4918 40.4466 35.9195 40.3571 36.2989 40.1575L42.4996 36.8979L48.7001 40.1575C49.0795 40.3571 49.5071 40.4465 49.9347 40.4155C50.3622 40.3846 50.7725 40.2346 51.1192 39.9825C51.4661 39.7305 51.7355 39.3866 51.897 38.9895C52.0585 38.5924 52.1057 38.158 52.0332 37.7355L50.8488 30.8311L55.8653 25.9414C56.1724 25.6422 56.3896 25.2631 56.4924 24.8468C56.5952 24.4306 56.5795 23.9939 56.4471 23.5862ZM46.7772 28.384C46.5105 28.644 46.3109 28.9649 46.1958 29.3192C46.0807 29.6734 46.0535 30.0504 46.1165 30.4175L46.7179 33.9247L43.5684 32.2688C43.2387 32.0957 42.8718 32.0052 42.4994 32.0052C42.127 32.0052 41.7601 32.0957 41.4304 32.2688L38.2809 33.9247L38.8823 30.4175C38.9453 30.0504 38.9181 29.6735 38.803 29.3192C38.6879 28.9649 38.4883 28.644 38.2216 28.384L35.6739 25.9005L39.195 25.3886C39.5636 25.3351 39.9137 25.1927 40.215 24.9738C40.5163 24.7549 40.7599 24.4659 40.9248 24.1319L42.4996 20.9412L44.0743 24.1319C44.2391 24.4659 44.4827 24.7548 44.784 24.9737C45.0854 25.1927 45.4354 25.3351 45.804 25.3886L49.3251 25.9005L46.7772 28.384Z" fill="#1476B7"/>
</svg>
